<svg id="about" xmlns="http://www.w3.org/2000/svg" width="300" height="300" viewBox="0 0 500 500">
  <metadata><?xpacket begin="﻿" id="W5M0MpCehiHzreSzNTczkc9d"?>
<x:xmpmeta xmlns:x="adobe:ns:meta/" x:xmptk="Adobe XMP Core 5.6-c138 79.159824, 2016/09/14-01:09:01        ">
   <rdf:RDF xmlns:rdf="http://www.w3.org/1999/02/22-rdf-syntax-ns#">
      <rdf:Description rdf:about=""/>
   </rdf:RDF>
</x:xmpmeta>
                                                                                                    
                                                                                                    
                                                                                                    
                                                                                                    
                                                                                                    
                                                                                                    
                                                                                                    
                                                                                                    
                                                                                                    
                                                                                                    
                                                                                                    
                                                                                                    
                                                                                                    
                                                                                                    
                                                                                                    
                                                                                                    
                                                                                                    
                                                                                                    
                                                                                                    
                                                                                                    
                           
<?xpacket end="w"?></metadata>
<defs>
    <style>
      .cls-1 {
        fill: #fff;
        fill-rule: evenodd;
      }
    </style>
  </defs>
  <path class="cls-1" d="M396.727,144.8c-4.165,17.825-12.1,37.531-12.1,37.531a142.6,142.6,0,0,1-44.43,8.558c-26.06.537-56.057-6.487-56.057-6.487l-21.021-52.765a135.978,135.978,0,0,0-14.058-.929,115.74,115.74,0,0,0-13.173.78l-20.9,52.569s-29.986,7.06-56.053,6.585a143.232,143.232,0,0,1-44.458-8.417s-7.985-19.6-12.192-37.329c-1.15-4.848-3.265-13.717-3.265-13.717l0.383-12.5s33.728-8.34,65.329-8.569c34.242-.249,66.569,7.612,66.569,7.612s9.664-.833,19.031-0.814c8.807,0.018,17.351.888,17.351,0.888s32.3-7.971,66.539-7.8c31.595,0.158,65.335,8.459,65.335,8.459l0.447,12.2S397.9,139.787,396.727,144.8Z"/>
  <path class="cls-1" d="M375,325c-24.333,24.333-49.476,49.768-75,75,0,10.667-28,25-50,25s-50-16-50-25l-75-75c-25-25-25-125-25-125s9.026,56.406,30.026,96.169C150.438,334.818,175,334,175,334s6.406-40.406,25-59,82-18,100,0,24.263,58.926,24.263,58.926S356.594,334.676,370,297c16.723-47,30-97,30-97S399.333,300.667,375,325ZM200,310s-19.942,30.09-12.4,40.728C196.769,363.646,225,372,225,372s-0.667-47,25-47,25,49,25,49,30-14,40-24-15-40-15-40-25.667-10-50-10S199.564,309.079,200,310Z"/>
</svg>
