<svg xmlns="http://www.w3.org/2000/svg" width="300" height="300" viewBox="0 0 500 500">
  <metadata><?xpacket begin="﻿" id="W5M0MpCehiHzreSzNTczkc9d"?>
<x:xmpmeta xmlns:x="adobe:ns:meta/" x:xmptk="Adobe XMP Core 5.6-c138 79.159824, 2016/09/14-01:09:01        ">
   <rdf:RDF xmlns:rdf="http://www.w3.org/1999/02/22-rdf-syntax-ns#">
      <rdf:Description rdf:about=""/>
   </rdf:RDF>
</x:xmpmeta>
                                                                                                    
                                                                                                    
                                                                                                    
                                                                                                    
                                                                                                    
                                                                                                    
                                                                                                    
                                                                                                    
                                                                                                    
                                                                                                    
                                                                                                    
                                                                                                    
                                                                                                    
                                                                                                    
                                                                                                    
                                                                                                    
                                                                                                    
                                                                                                    
                                                                                                    
                                                                                                    
                           
<?xpacket end="w"?></metadata>
<defs>
    <style>
      .cls-1 {
        fill: #fff;
        fill-rule: evenodd;
      }
    </style>
  </defs>
  <path class="cls-1" d="M397.71,250.942c-4.185,17.82-12.147,37.517-12.147,37.517a142.623,142.623,0,0,1-44.439,8.507c-26.061.507-56.05-6.552-56.05-6.552l-20.961-52.789a136,136,0,0,0-14.056-.945,115.905,115.905,0,0,0-13.175.765L215.917,289.99s-29.994,7.026-56.06,6.521a143.255,143.255,0,0,1-44.449-8.468s-7.963-19.605-12.149-37.343c-1.145-4.849-3.249-13.721-3.249-13.721l0.4-12.494s33.738-8.3,65.339-8.5c34.242-.209,66.56,7.689,66.56,7.689s9.665-.822,19.032-0.792c8.807,0.028,17.35.908,17.35,0.908s32.312-7.935,66.548-7.724c31.6,0.194,65.325,8.534,65.325,8.534l0.433,12.2S398.887,245.93,397.71,250.942Zm-7.541,5.671c-1.365,13.192-6.921,26.167-6.921,26.167a136.89,136.89,0,0,1-42.817,8.2c-24.691.47-51.758-5.856-51.758-5.856s-9.807-14.055-12.8-28.225c-2.813-13.3-1.4-22.87-.195-27.3s29.116-10.515,58.748-10.521c26.759,0,54.329,10.5,54.329,10.5S391.556,243.207,390.169,256.613ZM211.317,284.725s-27.072,6.3-51.768,5.83a137.49,137.49,0,0,1-42.826-8.166s-5.556-12.915-6.921-26.046c-1.387-13.344,1.417-26.907,1.417-26.907s27.575-10.455,54.339-10.45c29.639,0.006,57.556,6.062,58.76,10.472s2.619,13.931-.2,27.173C221.126,270.736,211.317,284.725,211.317,284.725Z"/>
</svg>
