<svg xmlns="http://www.w3.org/2000/svg" width="1166" height="173" viewBox="0 0 1166 173">
  <metadata><?xpacket begin="﻿" id="W5M0MpCehiHzreSzNTczkc9d"?>
<x:xmpmeta xmlns:x="adobe:ns:meta/" x:xmptk="Adobe XMP Core 5.6-c138 79.159824, 2016/09/14-01:09:01        ">
   <rdf:RDF xmlns:rdf="http://www.w3.org/1999/02/22-rdf-syntax-ns#">
      <rdf:Description rdf:about=""/>
   </rdf:RDF>
</x:xmpmeta>
                                                                                                    
                                                                                                    
                                                                                                    
                                                                                                    
                                                                                                    
                                                                                                    
                                                                                                    
                                                                                                    
                                                                                                    
                                                                                                    
                                                                                                    
                                                                                                    
                                                                                                    
                                                                                                    
                                                                                                    
                                                                                                    
                                                                                                    
                                                                                                    
                                                                                                    
                                                                                                    
                           
<?xpacket end="w"?></metadata>
<defs>
    <style>
      .cls-1 {
        fill: #ed1c24;
        fill-rule: evenodd;
      }
    </style>
  </defs>
  <path class="cls-1" d="M1108.66,0C1138.63,0,1166,15.727,1166,15.727V141.545L1032.2,15.727S1072.34,0,1108.66,0Zm-19.12,173c-39.26,0-76.46-15.727-76.46-15.727L860.164,15.727S898.393,0,936.623,0s76.457,15.727,76.457,15.727L1166,157.273S1126.68,173,1089.54,173Zm-172.032,0c-39.261,0-76.459-15.727-76.459-15.727L688.131,15.727S726.361,0,764.59,0s76.459,15.727,76.459,15.727L993.967,157.273S954.647,173,917.508,173Zm-172.033,0c-39.261,0-76.459-15.727-76.459-15.727L516.1,15.727S554.328,0,592.557,0s76.459,15.727,76.459,15.727L821.934,157.273S782.614,173,745.475,173Zm-172.032,0c-39.262,0-76.459-15.727-76.459-15.727L344.065,15.727S382.3,0,420.525,0s76.459,15.727,76.459,15.727L649.9,157.273S610.581,173,573.443,173ZM401.41,173c-39.262,0-76.459-15.727-76.459-15.727L172.033,15.727S210.262,0,248.492,0s76.459,15.727,76.459,15.727L477.869,157.273S438.548,173,401.41,173Zm-172.033,0c-39.261,0-76.459-15.727-76.459-15.727L0,15.727S38.229,0,76.459,0s76.459,15.727,76.459,15.727L305.836,157.273S266.516,173,229.377,173ZM57.344,173C27.365,173,0,157.273,0,157.273V31.455L133.8,157.273S93.656,173,57.344,173Z"/>
</svg>
