<svg id="belt" xmlns="http://www.w3.org/2000/svg" width="270" height="47" viewBox="0 0 270 47">
  <metadata><?xpacket begin="﻿" id="W5M0MpCehiHzreSzNTczkc9d"?>
<x:xmpmeta xmlns:x="adobe:ns:meta/" x:xmptk="Adobe XMP Core 5.6-c138 79.159824, 2016/09/14-01:09:01        ">
   <rdf:RDF xmlns:rdf="http://www.w3.org/1999/02/22-rdf-syntax-ns#">
      <rdf:Description rdf:about=""/>
   </rdf:RDF>
</x:xmpmeta>
                                                                                                    
                                                                                                    
                                                                                                    
                                                                                                    
                                                                                                    
                                                                                                    
                                                                                                    
                                                                                                    
                                                                                                    
                                                                                                    
                                                                                                    
                                                                                                    
                                                                                                    
                                                                                                    
                                                                                                    
                                                                                                    
                                                                                                    
                                                                                                    
                                                                                                    
                                                                                                    
                           
<?xpacket end="w"?></metadata>
<defs>
    <style>
      .cls-1 {
        fill: #545454;
      }

      .cls-1, .cls-2 {
        fill-rule: evenodd;
      }

      .cls-2 {
        fill: #fff;
      }
    </style>
  </defs>
  <path id="belt-2" data-name="belt" class="cls-1" d="M135,19s57.28,1.8,95-3.8C251.414,12.023,263,0,263,0a49.239,49.239,0,0,1,3,6.081,14.227,14.227,0,0,1,1,5.067,17.739,17.739,0,0,1,3,9.121c0.223,4.519-2,11.148-2,11.148s-15.614,9.146-42,12.161c-37.962,4.339-91,3.04-91,3.04v0.19s-53.038,1.3-91-3.053C17.613,40.728,2,31.545,2,31.545S-0.223,24.89,0,20.352a17.857,17.857,0,0,1,3-9.158A14.345,14.345,0,0,1,4,6.105,49.46,49.46,0,0,1,7,0S18.586,12.072,40,15.264c37.72,5.622,95,3.816,95,3.816V19Z"/>
  <path class="cls-2" d="M86,19h6V47H86V19Zm17,0h6V47h-6V19Zm29,0h3V47h-3V19Zm25,0h6V47h-6V19Zm17,0h6V47h-6V19Z"/>
</svg>
