<svg xmlns="http://www.w3.org/2000/svg" width="300" height="108" viewBox="0 0 300 108">
  <metadata><?xpacket begin="﻿" id="W5M0MpCehiHzreSzNTczkc9d"?>
<x:xmpmeta xmlns:x="adobe:ns:meta/" x:xmptk="Adobe XMP Core 5.6-c138 79.159824, 2016/09/14-01:09:01        ">
   <rdf:RDF xmlns:rdf="http://www.w3.org/1999/02/22-rdf-syntax-ns#">
      <rdf:Description rdf:about=""/>
   </rdf:RDF>
</x:xmpmeta>
                                                                                                    
                                                                                                    
                                                                                                    
                                                                                                    
                                                                                                    
                                                                                                    
                                                                                                    
                                                                                                    
                                                                                                    
                                                                                                    
                                                                                                    
                                                                                                    
                                                                                                    
                                                                                                    
                                                                                                    
                                                                                                    
                                                                                                    
                                                                                                    
                                                                                                    
                                                                                                    
                           
<?xpacket end="w"?></metadata>
<defs>
    <style>
      .cls-1 {
        fill: #959595;
      }

      .cls-1, .cls-11, .cls-2, .cls-3, .cls-6 {
        fill-rule: evenodd;
      }

      .cls-2, .cls-8 {
        fill: #73b0b5;
      }

      .cls-3, .cls-9 {
        fill: #fff200;
      }

      .cls-4 {
        fill: #00a651;
      }

      .cls-5 {
        fill: #9e0b0f;
      }

      .cls-10, .cls-6 {
        fill: #fff;
      }

      .cls-7 {
        fill: #004a80;
      }

      .cls-11 {
        fill: #e1e1e1;
      }
    </style>
  </defs>
  <path class="cls-1" d="M300,54.5S271.429,19,233.714,19H36L0,36.75v35.5L36,90H233.714C268,90,300,54.5,300,54.5Z"/>
  <path class="cls-2" d="M65,28h36V46H65V28ZM209,64h36V82H209V64Z"/>
  <path class="cls-3" d="M65,64h36V82H65V64ZM209,46h36V64H209V46Z"/>
  <rect class="cls-4" x="65" y="46" width="36" height="18"/>
  <rect class="cls-5" x="101" y="28" width="36" height="18"/>
  <path class="cls-6" d="M101,46h36V64H101V46ZM209,28h36V46H209V28Z"/>
  <rect class="cls-7" x="101" y="64" width="36" height="18"/>
  <rect id="Rectangle_1_copy" data-name="Rectangle 1 copy" class="cls-8" x="137" y="28" width="36" height="18"/>
  <rect id="Rectangle_2_copy" data-name="Rectangle 2 copy" class="cls-9" x="137" y="46" width="36" height="18"/>
  <rect id="Rectangle_3_copy" data-name="Rectangle 3 copy" class="cls-4" x="137" y="64" width="36" height="18"/>
  <rect id="Rectangle_4_copy" data-name="Rectangle 4 copy" class="cls-5" x="173" y="46" width="36" height="18"/>
  <rect id="Rectangle_5_copy" data-name="Rectangle 5 copy" class="cls-10" x="173" y="64" width="36" height="18"/>
  <rect id="Rectangle_6_copy" data-name="Rectangle 6 copy" class="cls-7" x="173" y="28" width="36" height="18"/>
  <path class="cls-11" d="M54,108H36s0-36-18-36V36C37.98,36,36,0,36,0H54V108Z"/>
</svg>
