<svg xmlns="http://www.w3.org/2000/svg" width="800" height="800" viewBox="0 0 800 800">
  <metadata><?xpacket begin="﻿" id="W5M0MpCehiHzreSzNTczkc9d"?>
<x:xmpmeta xmlns:x="adobe:ns:meta/" x:xmptk="Adobe XMP Core 5.6-c138 79.159824, 2016/09/14-01:09:01        ">
   <rdf:RDF xmlns:rdf="http://www.w3.org/1999/02/22-rdf-syntax-ns#">
      <rdf:Description rdf:about=""/>
   </rdf:RDF>
</x:xmpmeta>
                                                                                                    
                                                                                                    
                                                                                                    
                                                                                                    
                                                                                                    
                                                                                                    
                                                                                                    
                                                                                                    
                                                                                                    
                                                                                                    
                                                                                                    
                                                                                                    
                                                                                                    
                                                                                                    
                                                                                                    
                                                                                                    
                                                                                                    
                                                                                                    
                                                                                                    
                                                                                                    
                           
<?xpacket end="w"?></metadata>
<defs>
    <style>
      .cls-1 {
        fill: #00ba00;
        fill-rule: evenodd;
      }
    </style>
  </defs>
  <path class="cls-1" d="M435.51,800s1.329-108.788,19.693-155.4c19.041-48.325,55.142-34.532,55.142-34.532s20.763,47.2,35.448,51.8c12.749,3.991,19.694-34.533,19.694-34.533s33.806,33.544,51.2,28.777c13.655-3.741,11.816-46.043,11.816-46.043s54.317,23.624,70.9,11.511c14.832-10.837-7.878-57.554-7.878-57.554s36.477-24.737,35.448-51.8c-0.936-24.621-39.359-34.078-39.359-34.078s5.664-29.2-7.878-34.985c-11.963-5.108-43.33,13.119-43.33,13.119s-13.775-22.959-31.513-21.865c-17.714,1.093-43.33,26.239-43.33,26.239s-12.285-41.655-31.512-26.239c-15.908,12.755-43.338,100.831-43.338,100.831s-17.724,34.532-35.449,57.554-35.448,34.532-35.448,34.532-1.267-86.3,19.694-143.885c19.281-52.968,68.877-90.126,74.835-115.108,8.238-34.538-31.51-46.043-31.51-46.043s39.387-70.762,39.387-97.842c0-32.8-39.387-23.021-39.387-23.021s29.529-87.33,19.694-120.863c-7.6-25.9-55.142,0-55.142,0S423.246,0,404,0c-20.121,0-39.387,80.575-39.387,80.575s-47.545-25.9-55.142,0c-9.835,33.533,19.694,120.863,19.694,120.863s-39.387-9.779-39.387,23.021c0,27.08,39.387,97.842,39.387,97.842s-39.748,11.5-31.51,46.043c5.958,24.982,55.554,62.14,74.835,115.108,20.961,57.583,19.694,143.885,19.694,143.885s-17.724-11.511-35.448-34.532-35.449-57.554-35.449-57.554-27.43-88.076-43.338-100.831c-19.227-15.416-31.512,26.239-31.512,26.239s-25.616-25.146-43.33-26.239c-17.738-1.094-31.513,21.865-31.513,21.865s-31.367-18.227-43.33-13.119c-13.542,5.783-7.878,34.985-7.878,34.985s-38.423,9.457-39.359,34.078c-1.029,27.062,35.448,51.8,35.448,51.8s-22.71,46.717-7.878,57.554c16.58,12.113,70.9-11.511,70.9-11.511s-1.839,42.3,11.816,46.043c17.4,4.767,51.2-28.777,51.2-28.777s6.945,38.524,19.694,34.533c14.685-4.6,35.448-51.8,35.448-51.8s36.1-13.793,55.142,34.532C371.161,691.212,372.49,800,372.49,800h63.02Z"/>
</svg>
