<svg xmlns="http://www.w3.org/2000/svg" width="1037.76" height="476.721" viewBox="0 0 1920 882">
  <metadata><?xpacket begin="﻿" id="W5M0MpCehiHzreSzNTczkc9d"?>
<x:xmpmeta xmlns:x="adobe:ns:meta/" x:xmptk="Adobe XMP Core 5.6-c138 79.159824, 2016/09/14-01:09:01        ">
   <rdf:RDF xmlns:rdf="http://www.w3.org/1999/02/22-rdf-syntax-ns#">
      <rdf:Description rdf:about=""/>
   </rdf:RDF>
</x:xmpmeta>
                                                                                                    
                                                                                                    
                                                                                                    
                                                                                                    
                                                                                                    
                                                                                                    
                                                                                                    
                                                                                                    
                                                                                                    
                                                                                                    
                                                                                                    
                                                                                                    
                                                                                                    
                                                                                                    
                                                                                                    
                                                                                                    
                                                                                                    
                                                                                                    
                                                                                                    
                                                                                                    
                           
<?xpacket end="w"?></metadata>
<defs>
    <style>
      .cls-1 {
        fill: #e0d894;
        fill-rule: evenodd;
      }
    </style>
  </defs>
  <path class="cls-1" d="M1607.03,165.827c-0.97,11.428-3.88,10.047-2.46,20.884-2.55.457-2.36,0.3-3.68,1.228,1.36,2.256.68,6.357,0,7.371-1.18.859-6.36-.426-6.15,4.913,0.08,1.851,2.35.748,1.23,3.686-1.74,1.18-4.02,1.2-7.37,1.228v-1.228h-1.23c0.48-3.6,2.01-1.54-1.23-3.686-1.5,3.808-.46,2.778-4.91,3.686-1.26-.988-0.34-0.436-2.46-1.229v-1.228c2.9-2.068,5.17-4.466,6.14-8.6h-1.22c-2.85,2.539-9.77,4.983-13.52,6.142v-1.229c1.6-2.611-.96-4.141,1.23-8.6,1.44-2.941,4.66-3.284,6.14-7.371h-11.05a13.232,13.232,0,0,1-7.38,3.685l1.23,6.142h2.46c1.79-3.123-.27-1.385,3.69-2.456-0.62,10.179.82,10.13,1.22,20.883h-3.68a10.4,10.4,0,0,0-3.69-4.914c0.87-2.883,1.26-2.744,2.46-4.914-2.61-1.789-3.07-3.487-6.14-4.913v1.228c-5.52,2.062-6.19,7.276-9.83,11.056,1.27,4.082,2.09,7.166,3.68,12.284-2.95-.46-1.88-0.774-4.91,0l1.23,3.685c2.6,0.555,4.48,1.1,6.14,2.457-7.04.182-12.67,3.546-14.74,1.229-3.05-2.151-9.28-6.438-11.06-9.828,4.4-.511,3.09.58,4.92-2.457-0.72-1.218-.82-3.62,1.22-7.37h-2.45c-4,3.39-7.63,3.277-12.29,3.685v1.229h1.23c1.32,0.923,1.16.738,3.69,1.228,0.41,3.275.81,6.552,1.22,9.827-2.86.24-3.47,0.237-4.91,1.229h3.69c-1.02,3.986.6,1.877-2.46,3.685a64.239,64.239,0,0,0-12.29-1.228v1.228h1.23c1.87,1.509,5.13,2.651,7.37,3.685-1.01,2.82-2.44,5.559-3.68,8.6-2.45-.06-4.28-0.069-6.15,3.686,3.52,1.783,4.32,2.673,6.15,6.142-4.6,1.077-3.38,2.183-7.37,3.685-1.12-2.977-1.32-1.953-2.46-4.914,1.25-3.124-2.79-6.312,0-12.284h-2.46v1.229h-1.23l1.23-3.686h-3.68c-0.46,2.55-.3,2.364-1.23,3.686-0.91,1.071-1.55,1.385-2.46,2.456-2.16-.774-1.19-0.236-2.46-1.228-2.84-3.338-.05-4.036-3.68-6.142v1.228h-1.23a30.86,30.86,0,0,1,4.91-6.142l-1.23-2.457c-2.52,1.77-1.59,1.909-6.14,2.457V226.02c-0.87-1.9-.16-0.166,0-3.685h-2.46c-1.31.923-1.16,0.739-3.68,1.228v-6.142c-3.02.353-.59,0.81-3.69,0,0.32-3.306,2.32-3.261-1.23-4.913a14.1,14.1,0,0,1-3.68,2.456c1.76,4.38,1.54,3.166,1.23,8.6a59.591,59.591,0,0,0-8.6,1.229c1.7,4.256,2.81,6.121,0,9.827-1.26-.988-0.34-0.436-2.46-1.228,0.46,2.953.77,1.889,0,4.914h-2.46c0.19-5.085-.55-8.448-3.68-14.742-2.71.636-2.44,1.386-4.92,0,2-1.658,1.38-.785,2.46-3.685-5.37-1.848-.77-2.2-4.91-3.685v1.228c-0.93,1.318-.74,1.162-1.23,3.686-3.92.621-3.59,1.071-6.15,2.456l1.23-3.685h-2.45c-2.32,1.055-.91.582-3.69,0-1.02,5.7-3.08,5.411-6.14,8.6a20.109,20.109,0,0,1,6.14,9.828c-4.24.028-.46,2.317-4.91,4.913V241.99h1.22c2.37-.953-2.45-1.229-2.45-1.229-1.32-.923-1.16-0.738-3.69-1.228v1.228c2.51,3.006,1.18,4.823,2.46,7.371,3.33,2.53,7.12-.691,12.28,2.457h-1.22c-3.04,2.352-9.51,3.918-13.52,4.914,4.36,5.485,3.57,2.969,2.46,9.827,8.28,0.359,7.9,1.289,15.97,1.228v2.457c-2.34,1.647-1.07,1.576-4.91,2.457a63.651,63.651,0,0,0-13.52-3.685v2.457c2.46-.036.35-1.257,2.46,0a12.279,12.279,0,0,0-3.69,6.142c2,1.658,1.38.786,2.46,3.685,4.11-.575,3.26-0.625,7.37,0v2.457a7.589,7.589,0,0,0-2.46,2.457q-3.675-1.229-7.37-2.457c0.13,5.686,1.12,2.457-2.45,6.142,2.69,1.547,3.75,2.678,7.37,3.685v1.229c-6.04,1.16-5.32,3.944-9.83,6.142v1.228c4.4,0.512,3.09-.579,4.91,2.457a3.457,3.457,0,0,1,1.23,1.229h-2.46c-1.41,1.009-1.52.577-4.91,1.228-3.29,6.647-4.95,19.641-8.6,24.569-1.32-.924-1.16-0.739-3.69-1.229,0.87,3.035.9,3.1,0,6.142-3.33-2-.17-1.016-3.68-1.228v-1.229c0.03-1.037-.6-1.067-1.23-4.913a10.907,10.907,0,0,0,3.69-3.686c-4.98.1-2.94,2.01-4.92-1.228,0.84-1.546-.55-7.04-3.68-11.056v2.457c-6.6,5.3-12.69,15.134-11.06,22.112-3.89-.01-1.65-2.082-3.69,1.228-0.1,1.417.37,1.535,1.23,4.914h-2.46c-1.83-2.045-.89-1.25-2.45-1.229-1.8,3.788.04,5.292,1.23,9.828-3.88.828-2.58,0.818-4.92,2.457,1.25,2.838,2.1,2.656,3.69,4.913-7.7.789-1.43,1.977-8.6,1.229,1.22,9.12-3.75,11.651-17.2,11.056-3.99-2-8.96,3.792-14.75,2.456-3.82-4.283-14.45-2.38-20.88,1.229v-1.229h1.23c1.21-1.24-1.21-1.214-1.23-1.228-1.45-.986-2.07-0.95-4.92-1.228-0.71,1.493-15.62,1.472-23.34,2.456-1.08,2.945-.93,4.554-3.68,6.143v-6.143c-4.03.283-6.71,0.144-8.6,1.229-3.27,2.575-9.69,8.771-13.52,9.827-0.54,4.443-2.76,10.459-6.14,12.285,0,0-15.85,2.773-17.2,3.685-1.87,1.263-2.64,6.222-4.92,7.37-8.92,4.5-40.42,1.912-45.45,1.229a15.641,15.641,0,0,1-1.23,4.914c-8.01-2.394-21.17,1.4-27.03,3.685-1.14.445-6.21-4.549-7.37-4.914l-3.69,1.229c-0.28,6.583-2.23,9.493-6.14,12.284v1.228h-1.23c-0.46-2.55-.3-2.364-1.23-3.685-7.3,8.182-24.35,14.473-28.25,22.112-3.05-1.28-3.58-2.445-6.15-1.229-8.3,7.923,1.5,25.138-11.05,25.8a14.309,14.309,0,0,1-3.69,2.457c0.64,4.592-4.73,22.064-11.06,24.569-4.84-3.608-6.32.407-12.28-1.229-2.39-.656-6.78-4.134-9.83-4.914l-24.57,2.457c-3.17,4.611-6.56,4.926-7.37,12.285,3.81,2.64-1.3,25.279-3.69,30.71-3.89-2-4.76-3.917-9.83-4.914-3.41,3.665-10.22,3.546-13.513,7.371-1.748,2.353-8.529,34.756-8.6,43-5.26,1.278-10,4.008-11.057,9.827-3.212,4.88-1.315,14.936-1.229,20.884,6.223,1.6,12.016,4.063,12.286,12.284-7.685,8.451-1.5,25.854,0,33.167q0.615,5.527,1.229,11.056c2.32,3.062,3.365-.368,4.914,4.914-2.334,4.392-1.3,17.844-3.686,24.568-3.491-.393-2.542-1.3-4.914,0-7.784,10.215-13.854,19.7-29.486,20.884-6.482-6.069-39.129-17.31-44.228-13.513-2.906,3.615-1.871,6.145-4.914,7.371-2.1,1.122-9.548,1.92-12.286,1.228-0.405,5.114.227,4.516-3.686,6.142-9.208,5.664-17.559-6.274-28.257-3.685-29.108,7.044-49.279-2.1-71.257,3.685-1.5-3.808-.461-2.778-4.914-3.685-1.944,1.37-9.829,3.685-9.829,3.685-4.944-3.467-8.574-1.6-15.971,1.229-5.605-6.537-11.055,1.343-18.429,1.228-5.125-.08-18.071.929-19.657,0L720,728.447c-1.07.528-2.476-2.566-4.914-1.229l-1.229,3.686c-2.765,3.07-6.056,2.577-9.828,4.913-1.317.815-1.383,4.112-2.458,4.914-1.99,1.486-12.112-1.868-19.657,0-11.978,2.965-25.206,4.582-39.314,7.37l1.229,2.457H642.6C637.32,747.8,1,790,1,790L0,881s1271.24,1,1924,1V168.284a7.579,7.579,0,0,1-2.46-2.457c-3.57.072-1.7,1.185-3.68,0h-1.23V164.6c2.25-1.926,1.71-1.083,2.46-4.914h-1.23v-1.228a15.605,15.605,0,0,1-4.92-1.229c-0.8,5.39-2.91,6.829-4.91,11.056,1.23,0.41,2.46.819,3.68,1.229-2.08,4.7-2.64,17.352-3.68,18.426v1.229c-4.2-1.383-2.05-2.009-6.14-1.229v-1.228c0.37-1.67-2.31-2.219-1.23-6.142,0.68-2.5,6.52-5.631,3.68-8.6-5.29-4.843-17.17-2.491-22.11-2.457-1.02,3.986.6,1.877-2.46,3.685v-3.685c2.77-2.921,1.34-.431,1.23-4.914h-3.69c-0.65,3.929-.07,3.241-1.22,6.142-3.95,1.943-10.21,3.075-12.29,4.914,1.99,1.658,1.38.786,2.46,3.685-2.9,1.355-2.19,1.178-3.69,3.685-3.32-1.959-11.45-7.245-12.28-6.142-4.2,4.222.12,7.487-6.15,9.828,1.8,2.359,3.75,2.669,2.46,4.913a23.966,23.966,0,0,1-4.91,2.457c2.12,5.78,1.57,5.664,2.45,12.284-3.73-.091-3.37-0.928-4.91,0H1838l1.23,2.457H1838c-0.95.838-2.74,1.611-3.69,2.457,2.44,1.679.62,8.085-3.68,8.6q-4.92-5.527-9.83-11.056h-1.23v1.229c-2.28,1.854-2.11,3.409-4.91,4.913v1.229c-1.24,1.216-1.22-1.211-1.23-1.229-8.01-3.416-6.25-10.541-12.29-12.284v-1.228c-0.34-.781.38-0.567-1.23-1.229v1.229c-3.8,3.846-5.55,7.161-12.28,11.056-0.27-6.62-.3-7.813-2.46-12.285h-1.23v9.828c2.63,2.905.82,6.286,0,11.056-6.51,3.012-10.39,7.666-18.43,8.6-2.31-1.055-.9-0.583-3.68,0v-2.457c1.99-1.659,1.38-.786,2.46-3.686-3.96-.614-6.36.428-8.6-3.685,2.03-3.013.75-6.45,0-9.827-2.95-1.082-4.56-.935-6.15-3.686,0.31-1.189.97-.465,0-1.228-3.47-3.532-10.32-1.882-13.51-7.371-0.19-1.153.79-.592-1.23-2.456-3.38-2.942-9.16-4.215-13.51-6.142,1.39-1.9,1.33-1.036,2.45-3.686-3.62.444-2.54,2.463-4.91-1.228,4.49-1.215,4.86-1.711,6.14-6.142h-1.23v1.228c-0.95,2.363-1.23-2.457-1.23-2.457,3.8-2.245.57-1.595,2.46-3.685,3.56,2.017,7.38-1,9.83-3.685-4.68.631-5.17,1.719-9.83,2.457v-2.457a19.567,19.567,0,0,0,6.14-6.142c-2.55-.457-2.36-0.3-3.68-1.229-0.44-2.273.71-1.957-3.69-2.457a3.392,3.392,0,0,0-1.23-1.228c-1.14,4.134-1.66,4.286-4.91,6.142,1.26-3.841.65-3.814,2.46-7.371h-8.6a3.556,3.556,0,0,1-1.23,1.229c2.9,4.965,3.4,4.45,1.23,9.827h4.91l1.23,7.371c-3.53-1.485-6.48-2.282-8.6,1.228,4.4,0.512,3.09-.579,4.91,2.457-5.84.268-7.96,2.051-11.05,4.914,2.83,1.652,2.24,1.5,2.45,2.457-1.39,1.9-1.33,1.035-2.45,3.685h1.23v-1.228c0.95-2.363,1.22,2.456,1.22,2.456h-1.22a20.257,20.257,0,0,1-7.38,3.686c0.6-9.645-.8-6.874-4.91-11.056-0.45-.457,2.39-2.869,1.23-4.914-0.48-.838-2.98-6.248-4.92-8.6v1.229c-2.15,3.549-.78,8.067-1.22,11.055l-3.69,2.457c-1.46-5.208-3.02-2.621-6.14-7.37,5.11-3.725,2.26-8.761,3.68-14.741-3.46-1.99-3.85-2.927-4.91-7.371h-1.23v1.228c-3.74,4.092-8.64,16.858-2.46,22.112-1.74,1.268-2.29,1.076-3.68,2.457,0.93,3.232,1.47,2.93,2.45,6.142-5.86-.226-8.31-1.232-9.82,1.229A15.509,15.509,0,0,1,1666,190.4v1.228c-8.34.843-13.54,1.365-20.89,2.457v-2.457c3.01-2.733,4.41-4.31,4.92-9.827-2.61-.555-4.48-1.1-6.14-2.457,4.07-2.816,4.35-7.3,2.45-8.6v-1.228c-2.15.774-1.19,0.237-2.45,1.228-4.1,3.757-2.14,8.608-6.15,11.056-1.7-1.358-3.53-1.835-6.14-2.457,1.12,9.194-1.9,7.439-1.23,15.97,3.99,1.017,1.88-.6,3.69,2.456-3.34-.008-5.65.048-7.37,1.229,3.61,1.591,3.58.751,2.45,3.685-1.79,3.1-1.54,2.246-6.14,2.457-0.62-.653-3.02.73-7.37,1.228v-1.228a62.888,62.888,0,0,0,4.91-4.914c-4.98.1-2.93,2.01-4.91-1.228,1.99-1.54,2.46-2.582,3.68-4.914-2.55-.457-2.36-0.3-3.68-1.228,3.03-1.591.84,0.527,2.46-2.457-2.71.636-2.44,1.386-4.92,0,2-1.658,1.38-.786,2.46-3.685a13.377,13.377,0,0,1-3.69-2.457c2.94-1.034,2.02-.493,3.69-2.457a7.493,7.493,0,0,1-2.46-2.457,7.493,7.493,0,0,0,2.46-2.457C1609.4,174.081,1613.79,167.6,1607.03,165.827Zm299.77,14.742h-2.46V181.8C1906.5,181.022,1905.54,181.56,1906.8,180.569Zm-223.6,13.512c0.46-2.55.3-2.364,1.23-3.685,1.25,0.988.34,0.436,2.46,1.228v2.457h-3.69ZM1576.31,190.4h-2.45C1575.32,192.372,1574.37,191.9,1576.31,190.4Zm131.46,7.37c-4.28.558-4.91,1.483-8.6,2.457v-3.685h2.46c1.31-.955,4.54-1.83,6.14-2.457v3.685Zm-176.91,4.914c-3.13,1.788-1.39-.266-2.46,3.685C1532.42,204.51,1530.82,206.116,1530.86,202.68Zm210.08,9.828-7.37,1.228v-2.457c0.87-1.9.16-.166,0-3.685a7.493,7.493,0,0,0,2.46-2.457h1.23v1.228C1740.61,208.313,1740.35,207.469,1740.94,212.508Zm-117.94,0c1.37,3.931,3.37,2.8-1.23,4.913l-2.46-3.685h1.23C1621.8,212.748,1620.88,213.3,1623,212.508Zm-104.43,2.456h-2.46v2.457C1519.47,216.517,1518.36,218.307,1518.57,214.964Zm22.12,2.457-4.92,2.457v1.229h2.46C1539.62,219.208,1539.56,220.072,1540.69,217.421Zm-44.23,7.371c-2.55.457-2.37,0.3-3.69,1.228C1495.32,225.563,1495.14,225.723,1496.46,224.792Zm4.91,1.228h-4.91v1.229h2.45C1501.18,227.173,1500.01,228.408,1501.37,226.02Zm-1.23,4.914h-7.37v1.228h2.46C1499.43,235,1499.82,233.512,1500.14,230.934Zm-76.17,3.685h3.69v-2.457l-3.69-1.228v3.685Zm28.26,4.914c3.84,3.9,4.86-1.309,6.14,6.142-3.14,1.68-3.21,2.727-7.37,3.685-1.06-.8-3.86-1.643-4.91-2.456-0.99-1.255-.44-0.337-1.23-2.457C1448.26,242.929,1449.56,241.41,1452.23,239.533Zm36.86,2.457-1.23,4.914c-3.56-1.567-2.53,1.4-3.69-3.686h2.46C1487.88,242.23,1486.97,242.782,1489.09,241.99Zm-1.23,8.6c1.64,2.337,1.57,1.074,2.45,4.914h-1.22v1.228h-2.46v-2.457c-0.92-1.318-.74-1.162-1.23-3.685h2.46Zm-18.43,4.914c-0.49,3.883-1.21,4.662-2.46,7.37-2.15-.775-1.19-0.237-2.46-1.228-0.98-1.255-.43-0.337-1.22-2.457h1.22C1466.06,255.981,1465.82,256.6,1469.43,255.5Zm-20.89,28.253c1.39,1.9,1.34,1.035,2.46,3.686,0.31,1.189.96,0.465,0,1.228a14.14,14.14,0,0,1-3.69,2.457V288.67C1445.64,285.708,1445.58,285.622,1448.54,283.756Zm-183.05,94.589h-2.46v1.229C1265.18,378.8,1264.22,379.337,1265.49,378.345Z"/>
</svg>
