<svg xmlns="http://www.w3.org/2000/svg" width="300" height="300" viewBox="0 0 500 500">
  <metadata><?xpacket begin="﻿" id="W5M0MpCehiHzreSzNTczkc9d"?>
<x:xmpmeta xmlns:x="adobe:ns:meta/" x:xmptk="Adobe XMP Core 5.6-c138 79.159824, 2016/09/14-01:09:01        ">
   <rdf:RDF xmlns:rdf="http://www.w3.org/1999/02/22-rdf-syntax-ns#">
      <rdf:Description rdf:about=""/>
   </rdf:RDF>
</x:xmpmeta>
                                                                                                    
                                                                                                    
                                                                                                    
                                                                                                    
                                                                                                    
                                                                                                    
                                                                                                    
                                                                                                    
                                                                                                    
                                                                                                    
                                                                                                    
                                                                                                    
                                                                                                    
                                                                                                    
                                                                                                    
                                                                                                    
                                                                                                    
                                                                                                    
                                                                                                    
                                                                                                    
                           
<?xpacket end="w"?></metadata>
<defs>
    <style>
      .cls-1 {
        fill: none;
        stroke: #281753;
        stroke-width: 5px;
      }

      .cls-1, .cls-2 {
        fill-rule: evenodd;
      }

      .cls-2, .cls-3 {
        fill: #281753;
      }
    </style>
  </defs>
  <path class="cls-1" d="M306.986,227.247c85.867,85.989,130.379,162.14,99.522,193.94-30.959,31.906-124.636-28.168-204.634-108.414C122.183,232.835,58.008,143.615,90.249,109.166,111.475,86.487,220.8,140.938,306.986,227.247Z"/>
  <path class="cls-2" d="M355.8,194a9.579,9.579,0,0,0,4.027-.345,24.731,24.731,0,0,0,4.994-2.414L346.406,337.189a5.866,5.866,0,0,1-3.76.53,14.856,14.856,0,0,1-4.621-2.29ZM340.158,190.5l4,1.656a9.511,9.511,0,0,0,4,.584L280.071,360.3a5.248,5.248,0,0,1-3.973-.232c-1.9-1.06-3.506-3.939-3.506-3.939Zm-11.453-15.154a16.852,16.852,0,0,0,1.155,3.415,30.95,30.95,0,0,0,2.122,3.674l-84.591,53.916a6.548,6.548,0,0,1-2.722-2.154,11.83,11.83,0,0,1-1.489-3.964Zm0.726-14.3a21.276,21.276,0,0,0-1.036,3.864,18.189,18.189,0,0,0-.069,4.122L146.253,201.516s-2.035-1.091-2.045-2.9c-0.01-1.873,2-4.465,2-4.465Z"/>
  <circle class="cls-3" cx="353.625" cy="168.531" r="21.969"/>
  <path class="cls-2" d="M132.3,228.32l3.088,3.933-27.483,19.772-1.652-3.768Zm91.929,101.242,3.346,2.968-31.335,24.01-2.036-2.684Zm-53.023-50.093,3.786,1.336-12.92,41.349-3.952-.908Zm-40.1-46,3.987,1.14-8.522,46.008-3.044-3.364Zm1,2.284,4.057-.432,24.865,84.206-3.824,1.329Zm91.751,94.332-0.916,4.306-63.663-13.078-0.133-3.226Zm15.562,54.151-4.7.685-12.183-50.757,3.506-1.83Zm-2.05,3.733-1.55-2.95L275.678,372.8l2.015,2.925Zm65.589,28.944,2.082-2.548,38.2,3.235,1.862,1.944Zm-36.555-12.9,2-3.6,36.636,13.958-2.082,2.548Zm-30.214-16.359-0.548-2.673L268.4,400.408l-2,3.6ZM195.406,356l2.708-2.38,42.154,32-2.4,2.822ZM157.892,322.14l2-3.6,38.221,35.088-2.619,2.3Zm-34.667-44.489,2-3.605,34.667,44.489-2,3.6Zm-16.522-27.2,1.742-2.639,16.781,26.237-2,3.605ZM91.544,214.293l3.061-.766,14.546,35.507-2.449,1.414Zm-2.066-50.247L95.325,177,94.7,214.1l-3.157.19Zm5.467,6.641,7.519,14.439,9.446,72.929-7.071-12.247Zm182.785,237.4-6.5-2.778,40.711-5.766,1.793,3.034Zm-39.186-19.8,1.723-2.663,69.626,12.622,1.46,3.855Zm65.714,28.978-3.472-1.084,11.021-16.272,2.906,1.522Z"/>
  <path id="Ellipse_2_copy" data-name="Ellipse 2 copy" class="cls-2" d="M305.574,223.079c84.409,84.332,138.215,167.133,101.687,190.231S287.827,378.981,211.505,300.423,72.444,139.826,101.59,107.917C120.747,86.944,221.165,138.747,305.574,223.079Z"/>
</svg>
