<svg xmlns="http://www.w3.org/2000/svg" width="300" height="300" viewBox="0 0 500 500">
  <metadata><?xpacket begin="﻿" id="W5M0MpCehiHzreSzNTczkc9d"?>
<x:xmpmeta xmlns:x="adobe:ns:meta/" x:xmptk="Adobe XMP Core 5.6-c138 79.159824, 2016/09/14-01:09:01        ">
   <rdf:RDF xmlns:rdf="http://www.w3.org/1999/02/22-rdf-syntax-ns#">
      <rdf:Description rdf:about=""/>
   </rdf:RDF>
</x:xmpmeta>
                                                                                                    
                                                                                                    
                                                                                                    
                                                                                                    
                                                                                                    
                                                                                                    
                                                                                                    
                                                                                                    
                                                                                                    
                                                                                                    
                                                                                                    
                                                                                                    
                                                                                                    
                                                                                                    
                                                                                                    
                                                                                                    
                                                                                                    
                                                                                                    
                                                                                                    
                                                                                                    
                           
<?xpacket end="w"?></metadata>
<defs>
    <style>
      .cls-1 {
        fill: #fff;
        fill-rule: evenodd;
      }
    </style>
  </defs>
  <path class="cls-1" d="M421.013,376.187L342.1,294.324l-56.443,51.614,79.447,75.053ZM243.674,192.214L134.556,79.012,79.007,150.719,187.241,252.965Z"/>
  <path class="cls-1" d="M278.112,307.768a98.547,98.547,0,0,1-16.262.3c-4.72,4.726-9.191,9.8-9.191,9.8s12.117,29.681,7.623,40.153l-38.3,38.343-18.6,18.623s-40.224-4.17-63.635-24.426c-23.818-20.609-32.74-58.8-32.74-58.8L128,310.748s39.911-39.946,41.977-42.027c12.024-3.817,41.492,8.493,41.492,8.493s5.23-5.382,9.91-10.067a99.377,99.377,0,0,1,.239-16.581l42.647-42.7c-20.031-48.917,35.56-75.8,81.042-23.111,43.029,49.849,15.507,101.144-26.228,82Z"/>
</svg>
