<svg xmlns="http://www.w3.org/2000/svg" width="800" height="800" viewBox="0 0 800 800">
  <metadata><?xpacket begin="﻿" id="W5M0MpCehiHzreSzNTczkc9d"?>
<x:xmpmeta xmlns:x="adobe:ns:meta/" x:xmptk="Adobe XMP Core 5.6-c138 79.159824, 2016/09/14-01:09:01        ">
   <rdf:RDF xmlns:rdf="http://www.w3.org/1999/02/22-rdf-syntax-ns#">
      <rdf:Description rdf:about=""/>
   </rdf:RDF>
</x:xmpmeta>
                                                                                                    
                                                                                                    
                                                                                                    
                                                                                                    
                                                                                                    
                                                                                                    
                                                                                                    
                                                                                                    
                                                                                                    
                                                                                                    
                                                                                                    
                                                                                                    
                                                                                                    
                                                                                                    
                                                                                                    
                                                                                                    
                                                                                                    
                                                                                                    
                                                                                                    
                                                                                                    
                           
<?xpacket end="w"?></metadata>
<defs>
    <style>
      .cls-1 {
        fill: #534741;
      }

      .cls-2 {
        fill: #745b4e;
        fill-rule: evenodd;
      }
    </style>
  </defs>
  <circle class="cls-1" cx="400" cy="400" r="400"/>
  <path class="cls-2" d="M307,431a18,18,0,1,1-18,18A18,18,0,0,1,307,431ZM203.5,497A16.5,16.5,0,1,1,187,513.5,16.5,16.5,0,0,1,203.5,497ZM171,325a12,12,0,1,1-12,12A12,12,0,0,1,171,325Zm28.5-187A46.5,46.5,0,1,1,153,184.5,46.5,46.5,0,0,1,199.5,138ZM468,319a26,26,0,1,1-26,26A26,26,0,0,1,468,319ZM381,574a18,18,0,1,1-18,18A18,18,0,0,1,381,574Zm78.5,21a7.5,7.5,0,1,1-7.5,7.5A7.5,7.5,0,0,1,459.5,595ZM640,409a12,12,0,1,1-12,12A12,12,0,0,1,640,409Zm-21,67a11,11,0,1,1-11,11A11,11,0,0,1,619,476ZM517,697a17,17,0,1,1-17,17A17,17,0,0,1,517,697ZM191.5,620A16.5,16.5,0,1,1,175,636.5,16.5,16.5,0,0,1,191.5,620ZM87,364a11,11,0,1,1-11,11A11,11,0,0,1,87,364Zm26.5-87a4.5,4.5,0,1,1-4.5,4.5A4.5,4.5,0,0,1,113.5,277ZM514,135a6,6,0,1,1-6,6A6,6,0,0,1,514,135Zm-60.5,69A19.5,19.5,0,1,1,434,223.5,19.5,19.5,0,0,1,453.5,204ZM607,148a24,24,0,1,1-24,24A24,24,0,0,1,607,148Zm-6,271a8,8,0,1,1-8,8A8,8,0,0,1,601,419ZM705,214a23,23,0,1,1-23,23A23,23,0,0,1,705,214ZM517,523a12,12,0,1,1-12,12A12,12,0,0,1,517,523Zm82.5,112A15.5,15.5,0,1,1,584,650.5,15.5,15.5,0,0,1,599.5,635Zm107-91a3.5,3.5,0,1,1-3.5,3.5A3.5,3.5,0,0,1,706.5,544Zm34-119A18.5,18.5,0,1,1,722,443.5,18.5,18.5,0,0,1,740.5,425Z"/>
</svg>
