<svg id="fingers" xmlns="http://www.w3.org/2000/svg" width="24" height="85" viewBox="0 0 24 85">
  <metadata><?xpacket begin="﻿" id="W5M0MpCehiHzreSzNTczkc9d"?>
<x:xmpmeta xmlns:x="adobe:ns:meta/" x:xmptk="Adobe XMP Core 5.6-c138 79.159824, 2016/09/14-01:09:01        ">
   <rdf:RDF xmlns:rdf="http://www.w3.org/1999/02/22-rdf-syntax-ns#">
      <rdf:Description rdf:about=""/>
   </rdf:RDF>
</x:xmpmeta>
                                                                                                    
                                                                                                    
                                                                                                    
                                                                                                    
                                                                                                    
                                                                                                    
                                                                                                    
                                                                                                    
                                                                                                    
                                                                                                    
                                                                                                    
                                                                                                    
                                                                                                    
                                                                                                    
                                                                                                    
                                                                                                    
                                                                                                    
                                                                                                    
                                                                                                    
                                                                                                    
                           
<?xpacket end="w"?></metadata>
<defs>
    <style>
      .cls-1 {
        fill: #fff;
      }

      .cls-1, .cls-2 {
        fill-rule: evenodd;
      }

      .cls-2 {
        fill: #858585;
      }
    </style>
  </defs>
  <path class="cls-1" d="M1.649,14.061C1.788,19.91.05,19.381,0.224,24.6,0.3,26.976.013,29.917,0.008,33.225A43.5,43.5,0,0,0,.224,37.8c0.14,1.346.3,2.714,0.485,4.076C1.9,50.894,3.763,59.711,3.557,61.032c-0.358,2.287.827,5.1,1.137,5.8,1.252,2.815-.3,14.955.894,16.714s6.768,3.4,10.729-4.4A23.712,23.712,0,0,0,19,65.949a50.119,50.119,0,0,0,.894-10.556A39.884,39.884,0,0,0,18.1,45.716a81.287,81.287,0,0,0,4.47-14.075,56.656,56.656,0,0,0,.894-12.316S26.037,7,19.893,1.732C15.2-2.292,1.321.24,1.649,14.061Z"/>
  <path class="cls-2" d="M14.7,67.438a5.578,5.578,0,0,0-2.107-.136c0.16-.048,1.378-0.415,2.826-0.968a13.483,13.483,0,0,0,2.422-1.2c0.734-.1-0.426.679-0.433,1.436a2.751,2.751,0,0,0,1.245,1.919C19.049,68.867,16.585,67.772,14.7,67.438ZM12.591,67.3l-0.032.01Zm1.021-22.959a8.943,8.943,0,0,0-3.069-.771c0.236-.023,2.013-0.206,4.1-0.586a15.635,15.635,0,0,0,3.428-1c1.025,0.065-.6.827-0.606,1.88-0.01,1.333,1.181,2.36,1.741,2.99S16.308,45.317,13.612,44.343Zm-3.069-.771-0.047,0Z"/>
</svg>
