<svg id="fingers" xmlns="http://www.w3.org/2000/svg" width="38" height="83" viewBox="0 0 38 83">
  <metadata><?xpacket begin="﻿" id="W5M0MpCehiHzreSzNTczkc9d"?>
<x:xmpmeta xmlns:x="adobe:ns:meta/" x:xmptk="Adobe XMP Core 5.6-c138 79.159824, 2016/09/14-01:09:01        ">
   <rdf:RDF xmlns:rdf="http://www.w3.org/1999/02/22-rdf-syntax-ns#">
      <rdf:Description rdf:about=""/>
   </rdf:RDF>
</x:xmpmeta>
                                                                                                    
                                                                                                    
                                                                                                    
                                                                                                    
                                                                                                    
                                                                                                    
                                                                                                    
                                                                                                    
                                                                                                    
                                                                                                    
                                                                                                    
                                                                                                    
                                                                                                    
                                                                                                    
                                                                                                    
                                                                                                    
                                                                                                    
                                                                                                    
                                                                                                    
                                                                                                    
                           
<?xpacket end="w"?></metadata>
<defs>
    <style>
      .cls-1 {
        fill: #fff;
      }

      .cls-1, .cls-2 {
        fill-rule: evenodd;
      }

      .cls-2 {
        fill: #858585;
      }
    </style>
  </defs>
  <path id="Shape_8_copy" data-name="Shape 8 copy" class="cls-1" d="M14.314,11.807c-1.387,5.734-2.937,4.765-4.127,9.9C9.646,24.036,8.6,26.825,7.735,30.046a43.993,43.993,0,0,0-.981,4.513c-0.214,1.348-.41,2.723-0.59,4.1-1.189,9.1-1.674,18.172-2.218,19.4C3,60.2,3.422,63.245,3.542,64,4.025,67.074-.638,78.5.061,80.52S5.749,85.6,11.623,79.036a23.951,23.951,0,0,0,6.037-12.154,50.648,50.648,0,0,0,3.614-10.05,40.347,40.347,0,0,0,.781-9.893,82,82,0,0,0,8-12.544,57.266,57.266,0,0,0,4.072-11.764s5.7-11.334,1.1-18.072C31.729-.586,17.591-1.743,14.314,11.807Z"/>
  <path id="Shape_9_copy" data-name="Shape 9 copy" class="cls-2" d="M13.1,67.209a5.6,5.6,0,0,0-2.011-.682c0.168,0,1.446-.044,3-0.206a13.518,13.518,0,0,0,2.663-.535c0.739,0.094-.591.55-0.794,1.286a2.78,2.78,0,0,0,.709,2.194C16.95,69.737,14.842,68.027,13.1,67.209Zm-2.011-.682h0Zm6.964-22.1a8.98,8.98,0,0,0-2.779-1.552c0.235,0.039,2.008.325,4.134,0.5A15.658,15.658,0,0,0,23,43.294c0.978,0.331-.8.65-1.077,1.673-0.357,1.3.532,2.608,0.913,3.367S20.416,46.081,18.051,44.428Zm-2.779-1.552-0.047-.008Z"/>
</svg>
