<svg id="fingers" xmlns="http://www.w3.org/2000/svg" width="37" height="82" viewBox="0 0 37 82">
  <metadata><?xpacket begin="﻿" id="W5M0MpCehiHzreSzNTczkc9d"?>
<x:xmpmeta xmlns:x="adobe:ns:meta/" x:xmptk="Adobe XMP Core 5.6-c138 79.159824, 2016/09/14-01:09:01        ">
   <rdf:RDF xmlns:rdf="http://www.w3.org/1999/02/22-rdf-syntax-ns#">
      <rdf:Description rdf:about=""/>
   </rdf:RDF>
</x:xmpmeta>
                                                                                                    
                                                                                                    
                                                                                                    
                                                                                                    
                                                                                                    
                                                                                                    
                                                                                                    
                                                                                                    
                                                                                                    
                                                                                                    
                                                                                                    
                                                                                                    
                                                                                                    
                                                                                                    
                                                                                                    
                                                                                                    
                                                                                                    
                                                                                                    
                                                                                                    
                                                                                                    
                           
<?xpacket end="w"?></metadata>
<defs>
    <style>
      .cls-1 {
        fill: #fff;
      }

      .cls-1, .cls-2 {
        fill-rule: evenodd;
      }

      .cls-2 {
        fill: #858585;
      }
    </style>
  </defs>
  <path id="Shape_8_copy" data-name="Shape 8 copy" class="cls-1" d="M22.7,10.83c1.386,5.73,2.935,4.762,4.124,9.891,0.54,2.33,1.585,5.117,2.45,8.335a43.968,43.968,0,0,1,.98,4.509c0.214,1.347.41,2.721,0.589,4.094,1.188,9.089,1.673,18.159,2.216,19.39,0.941,2.133.523,5.18,0.4,5.939-0.483,3.067,4.177,14.479,3.477,16.5s-5.683,5.071-11.552-1.483a23.934,23.934,0,0,1-6.032-12.145,50.607,50.607,0,0,1-3.611-10.042,40.321,40.321,0,0,1-.781-9.886,81.938,81.938,0,0,1-8-12.535A57.227,57.227,0,0,1,2.9,21.645S-2.8,10.32,1.794,3.587C5.3-1.554,19.424-2.709,22.7,10.83Z"/>
  <path id="Shape_9_copy" data-name="Shape 9 copy" class="cls-2" d="M23.914,66.19a5.588,5.588,0,0,1,2.009-.682c-0.168,0-1.445-.044-2.994-0.205a13.508,13.508,0,0,1-2.661-.535c-0.738.094,0.59,0.55,0.793,1.285a2.777,2.777,0,0,1-.709,2.192C20.064,68.716,22.17,67.007,23.914,66.19Zm2.009-.682h0ZM18.964,43.426a8.972,8.972,0,0,1,2.777-1.551c-0.235.039-2.007,0.325-4.13,0.5a15.645,15.645,0,0,1-3.587-.082c-0.977.331,0.8,0.649,1.076,1.672,0.356,1.3-.532,2.606-0.912,3.365S16.6,45.078,18.964,43.426Zm2.777-1.551,0.047-.008Z"/>
</svg>
