<svg id="fingers" xmlns="http://www.w3.org/2000/svg" width="24" height="85" viewBox="0 0 24 85">
  <metadata><?xpacket begin="﻿" id="W5M0MpCehiHzreSzNTczkc9d"?>
<x:xmpmeta xmlns:x="adobe:ns:meta/" x:xmptk="Adobe XMP Core 5.6-c138 79.159824, 2016/09/14-01:09:01        ">
   <rdf:RDF xmlns:rdf="http://www.w3.org/1999/02/22-rdf-syntax-ns#">
      <rdf:Description rdf:about=""/>
   </rdf:RDF>
</x:xmpmeta>
                                                                                                    
                                                                                                    
                                                                                                    
                                                                                                    
                                                                                                    
                                                                                                    
                                                                                                    
                                                                                                    
                                                                                                    
                                                                                                    
                                                                                                    
                                                                                                    
                                                                                                    
                                                                                                    
                                                                                                    
                                                                                                    
                                                                                                    
                                                                                                    
                                                                                                    
                                                                                                    
                           
<?xpacket end="w"?></metadata>
<defs>
    <style>
      .cls-1 {
        fill: #fff;
      }

      .cls-1, .cls-2 {
        fill-rule: evenodd;
      }

      .cls-2 {
        fill: #858585;
      }
    </style>
  </defs>
  <path class="cls-1" d="M22.351,14.061c-0.139,5.849,1.6,5.32,1.426,10.543-0.079,2.372.211,5.313,0.216,8.621a43.516,43.516,0,0,1-.216,4.575c-0.14,1.346-.3,2.714-0.485,4.076-1.192,9.018-3.055,17.836-2.849,19.157,0.358,2.287-.827,5.1-1.137,5.8-1.252,2.815.3,14.955-.894,16.714s-6.768,3.4-10.729-4.4A23.712,23.712,0,0,1,5,65.949a50.118,50.118,0,0,1-.894-10.556A39.882,39.882,0,0,1,5.9,45.716a81.283,81.283,0,0,1-4.47-14.075A56.653,56.653,0,0,1,.531,19.326S-2.037,7,4.107,1.732C8.8-2.292,22.679.24,22.351,14.061Z"/>
  <path class="cls-2" d="M9.3,67.438a5.579,5.579,0,0,1,2.107-.136c-0.16-.048-1.378-0.415-2.826-0.968a13.49,13.49,0,0,1-2.422-1.2c-0.734-.1.427,0.679,0.433,1.436a2.75,2.75,0,0,1-1.245,1.919C4.951,68.867,7.415,67.772,9.3,67.438Zm2.107-.136,0.032,0.01ZM10.388,44.343a8.943,8.943,0,0,1,3.069-.771c-0.236-.023-2.013-0.206-4.1-0.586a15.636,15.636,0,0,1-3.428-1c-1.025.065,0.6,0.827,0.606,1.88,0.01,1.333-1.181,2.36-1.741,2.99S7.692,45.317,10.388,44.343Zm3.069-.771,0.047,0Z"/>
</svg>
