<svg id="foot" xmlns="http://www.w3.org/2000/svg" width="105" height="216" viewBox="0 0 105 216">
  <metadata><?xpacket begin="﻿" id="W5M0MpCehiHzreSzNTczkc9d"?>
<x:xmpmeta xmlns:x="adobe:ns:meta/" x:xmptk="Adobe XMP Core 5.6-c138 79.159824, 2016/09/14-01:09:01        ">
   <rdf:RDF xmlns:rdf="http://www.w3.org/1999/02/22-rdf-syntax-ns#">
      <rdf:Description rdf:about=""/>
   </rdf:RDF>
</x:xmpmeta>
                                                                                                    
                                                                                                    
                                                                                                    
                                                                                                    
                                                                                                    
                                                                                                    
                                                                                                    
                                                                                                    
                                                                                                    
                                                                                                    
                                                                                                    
                                                                                                    
                                                                                                    
                                                                                                    
                                                                                                    
                                                                                                    
                                                                                                    
                                                                                                    
                                                                                                    
                                                                                                    
                           
<?xpacket end="w"?></metadata>
<defs>
    <style>
      .cls-1 {
        fill: #fff;
      }

      .cls-1, .cls-2, .cls-3 {
        fill-rule: evenodd;
      }

      .cls-2 {
        fill: silver;
      }

      .cls-3 {
        fill: #363636;
      }
    </style>
  </defs>
  <path id="foot-2" data-name="foot" class="cls-1" d="M36.809,38.011S53.055,0,65.24,0,94.687,26.758,94.687,26.758s11.821,43.475,10.154,77.272c-1.327,26.909-.6,70.782-5.077,91.026-4.5,20.354-14.216,17-14.216,17s-45.519,7.359-67.017,2c-20.623-5.14-17.262-23.007-17.262-23.007-0.153.013-3.615-9.909,1.584-24.942,2.877-8.318,7.8-17.921,10.6-28.073,2.537-9.209,2.908-18.9,6.093-28.008C21.7,103.863,25.5,98.51,27.67,93.027c6.733-16.981,8.123-28.008,8.123-28.008Z"/>
  <path class="cls-2" d="M52,146c19.25-1.5,43.75,8.75,47,12-30.6-8.982-53.141-13.388-89-1C13.25,153,32.75,147.5,52,146ZM0,186s9,9,48,9c48.375,0,54-12,54-12v16s-2.82,9.33-15,13c-12.658,3.814-36.966,4.956-52,4C5.5,214.125,0,205,0,205V186Z"/>
  <path class="cls-3" d="M98,204.656v-17.58L102,183v17.625Zm-7-14.437,5-2.063V207.75l-5,3.094V190.219Zm-7,1.08,5-1.08v21.656l-5,1.031V191.3Zm-7,2.063,5-1.081v20.656l-5,1.032V193.362Zm-7,.982,5-1.031v20.656l-5,1V194.344Zm-7,1.031,5-1.031V216H63V195.375Zm-7,0h5V216H56V195.375Zm-7,0h5V216H49V195.375Zm-7,0h5V216H42V195.375Zm-7,0h5V216H35V195.375Zm-7-1.031,5,1.031V216H28V194.344Zm-7-1.031,5,1.031v20.625H21V193.313Zm-7-1.032,5,1.032v20.624l-5-1.031V192.281Zm-7-2.093,5,1.062v20.625l-5-1.031V190.188Zm-7-5.125,5,4.062v19.656l-5-3V185.063Z"/>
</svg>
