<svg id="Leg" xmlns="http://www.w3.org/2000/svg" width="105" height="216" viewBox="0 0 105 216">
  <metadata><?xpacket begin="﻿" id="W5M0MpCehiHzreSzNTczkc9d"?>
<x:xmpmeta xmlns:x="adobe:ns:meta/" x:xmptk="Adobe XMP Core 5.6-c138 79.159824, 2016/09/14-01:09:01        ">
   <rdf:RDF xmlns:rdf="http://www.w3.org/1999/02/22-rdf-syntax-ns#">
      <rdf:Description rdf:about=""/>
   </rdf:RDF>
</x:xmpmeta>
                                                                                                    
                                                                                                    
                                                                                                    
                                                                                                    
                                                                                                    
                                                                                                    
                                                                                                    
                                                                                                    
                                                                                                    
                                                                                                    
                                                                                                    
                                                                                                    
                                                                                                    
                                                                                                    
                                                                                                    
                                                                                                    
                                                                                                    
                                                                                                    
                                                                                                    
                                                                                                    
                           
<?xpacket end="w"?></metadata>
<defs>
    <style>
      .cls-1 {
        fill: #fff;
      }

      .cls-1, .cls-2, .cls-3 {
        fill-rule: evenodd;
      }

      .cls-2 {
        fill: silver;
      }

      .cls-3 {
        fill: #858585;
      }
    </style>
  </defs>
  <path id="foot" class="cls-1" d="M36.809,38.011S53.055,0,65.24,0,94.687,26.758,94.687,26.758s11.821,43.475,10.154,77.272c-1.327,26.909-.6,70.782-5.077,91.026-4.5,20.354-14.216,17-14.216,17s-45.519,7.359-67.017,2c-20.623-5.14-17.262-23.007-17.262-23.007-0.153.013-3.615-9.909,1.584-24.942,2.877-8.318,7.8-17.921,10.6-28.073,2.537-9.209,2.908-18.9,6.093-28.008C21.7,103.863,25.5,98.51,27.67,93.027c6.733-16.981,8.123-28.008,8.123-28.008Z"/>
  <path class="cls-2" d="M7.069,157s23.708-11.506,47.465-11c23.2,0.494,46.455,13,46.455,13s-23.934-8.5-47.465-9C30.1,149.5,7.069,157,7.069,157ZM102,188l-4.04,17s-1.19,5.017-10.1,8c-7.368,2.467-20.339,3-39.386,3-23.392,0-36.047-2.432-42.416-6C0.971,207.149,0,203,0,203V188s23.844,8,48.475,8C74.788,196,102,188,102,188Z"/>
  <path class="cls-3" d="M96,209l-5,3V191l5-2v20Zm-7,3-5,2V193l5-1v20Zm-7,2-5,1V194l5-1v21Zm-7,1H70V195l5-1v21Zm-12,1V196l4.886-.927L68,215Zm-3,0H55V196h5v20Zm-7,0c-1.973.152-5,0-5,0V196h5v20Zm-7,0H41V196h5v20Zm-7,0H34V196l4.966,0.106Zm-7,0-5-1L26.963,194.3,32,195v21Zm-7-1-5-1V193l5,1v21Zm-12-3V192l5,1v21Zm-2,0-5-2s0.336-20.161.389-20.489c2.086,0.8,3.13,1.611,5.143,2.426C11.632,191.4,11,212,11,212Zm-6.267-2.968C3,208.514,0,206,0,206s0.276-18.591.142-19.678A30,30,0,0,1,5,189S3.846,209.517,4.733,209.032ZM102,201.652L98,205V188.565L102,185v16.652Z"/>
</svg>
