<svg id="Leg" xmlns="http://www.w3.org/2000/svg" width="105" height="216" viewBox="0 0 105 216">
  <metadata><?xpacket begin="﻿" id="W5M0MpCehiHzreSzNTczkc9d"?>
<x:xmpmeta xmlns:x="adobe:ns:meta/" x:xmptk="Adobe XMP Core 5.6-c138 79.159824, 2016/09/14-01:09:01        ">
   <rdf:RDF xmlns:rdf="http://www.w3.org/1999/02/22-rdf-syntax-ns#">
      <rdf:Description rdf:about=""/>
   </rdf:RDF>
</x:xmpmeta>
                                                                                                    
                                                                                                    
                                                                                                    
                                                                                                    
                                                                                                    
                                                                                                    
                                                                                                    
                                                                                                    
                                                                                                    
                                                                                                    
                                                                                                    
                                                                                                    
                                                                                                    
                                                                                                    
                                                                                                    
                                                                                                    
                                                                                                    
                                                                                                    
                                                                                                    
                                                                                                    
                           
<?xpacket end="w"?></metadata>
<defs>
    <style>
      .cls-1 {
        fill: #fff;
      }

      .cls-1, .cls-2, .cls-3 {
        fill-rule: evenodd;
      }

      .cls-2 {
        fill: silver;
      }

      .cls-3 {
        fill: #858585;
      }
    </style>
  </defs>
  <path id="foot" class="cls-1" d="M68.191,38S51.945,0,39.76,0,10.313,26.75,10.313,26.75-1.508,70.212.159,104c1.327,26.9.6,70.762,5.077,91,4.5,20.348,14.216,17,14.216,17s45.519,7.357,67.017,2c20.623-5.139,17.262-23,17.262-23,0.153,0.013,3.615-9.907-1.584-24.935-2.877-8.316-7.8-17.916-10.6-28.065-2.537-9.207-2.908-18.891-6.093-28C83.3,103.833,79.5,98.481,77.33,93,70.6,76.024,69.207,65,69.207,65Z"/>
  <path class="cls-2" d="M97.931,156.955s-23.708-11.5-47.465-11c-23.2.494-46.455,13-46.455,13s23.934-8.5,47.465-9C74.9,149.458,97.931,156.955,97.931,156.955ZM3,187.946l4.04,17s1.19,5.015,10.1,8c7.368,2.467,20.339,3,39.386,3,23.392,0,36.047-2.432,42.416-6,5.088-2.85,6.059-7,6.059-7v-15s-23.844,8-48.475,8C30.212,195.943,3,187.946,3,187.946Z"/>
  <path class="cls-3" d="M9,208.94l5,3V190.945l-5-2v20Zm7,3,5,2V192.944l-5-1v20Zm7,2,5,1V193.944l-5-1v20.994Zm7,1h5V194.944l-5-1v20.994Zm12,1V195.943l-4.886-.926L37,214.938Zm3,0h5V195.943H45v19.995Zm7,0c1.973,0.151,5,0,5,0V195.943H52v19.995Zm7,0h5V195.943H59v19.995Zm7,0h5V195.943l-4.966.107Zm7,0,5-1,0.037-20.7-5.037.7v20.994Zm7-1,5-1V192.944l-5,1v20.994Zm12-3v-20l-5,1v20.994Zm2,0,5-2s-0.336-20.155-.389-20.483c-2.086.8-3.13,1.611-5.143,2.425C93.368,191.347,94,211.939,94,211.939Zm6.267-2.968C102,208.454,105,205.94,105,205.94s-0.276-18.585-.142-19.671A29.984,29.984,0,0,0,100,188.945S101.154,209.456,100.267,208.971ZM3,201.594l4,3.347v-16.43l-4-3.565v16.648Z"/>
</svg>
