<svg id="foot" xmlns="http://www.w3.org/2000/svg" width="105" height="216" viewBox="0 0 105 216">
  <metadata><?xpacket begin="﻿" id="W5M0MpCehiHzreSzNTczkc9d"?>
<x:xmpmeta xmlns:x="adobe:ns:meta/" x:xmptk="Adobe XMP Core 5.6-c138 79.159824, 2016/09/14-01:09:01        ">
   <rdf:RDF xmlns:rdf="http://www.w3.org/1999/02/22-rdf-syntax-ns#">
      <rdf:Description rdf:about=""/>
   </rdf:RDF>
</x:xmpmeta>
                                                                                                    
                                                                                                    
                                                                                                    
                                                                                                    
                                                                                                    
                                                                                                    
                                                                                                    
                                                                                                    
                                                                                                    
                                                                                                    
                                                                                                    
                                                                                                    
                                                                                                    
                                                                                                    
                                                                                                    
                                                                                                    
                                                                                                    
                                                                                                    
                                                                                                    
                                                                                                    
                           
<?xpacket end="w"?></metadata>
<defs>
    <style>
      .cls-1 {
        fill: #fff;
      }

      .cls-1, .cls-2, .cls-3 {
        fill-rule: evenodd;
      }

      .cls-2 {
        fill: silver;
      }

      .cls-3 {
        fill: #363636;
      }
    </style>
  </defs>
  <path id="foot-2" data-name="foot" class="cls-1" d="M68.191,37.956S51.945,0,39.76,0,10.313,26.719,10.313,26.719-1.508,70.131.159,103.88c1.327,26.869.6,70.68,5.077,90.9,4.5,20.324,14.216,16.98,14.216,16.98s45.519,7.348,67.017,2c20.623-5.133,17.262-22.974,17.262-22.974,0.153,0.013,3.615-9.9-1.584-24.906-2.877-8.306-7.8-17.895-10.6-28.033-2.537-9.195-2.908-18.869-6.093-27.967C83.3,103.713,79.5,98.368,77.33,92.893,70.6,75.936,69.207,64.925,69.207,64.925Z"/>
  <path class="cls-2" d="M53,145.789c-19.25-1.5-43.75,8.737-47,11.983,30.6-8.969,53.141-13.369,89-1C91.75,152.779,72.25,147.287,53,145.789Zm52,39.942s-9,8.987-48,8.987c-48.375,0-54-11.982-54-11.982v15.977s2.82,9.316,15,12.981c12.658,3.808,36.966,4.948,52,3.994,29.5-1.872,35-10.984,35-10.984V185.731Z"/>
  <path class="cls-3" d="M7,204.361V186.806l-4-4.07v17.6Zm7-14.417-5-2.06V207.45l5,3.089V189.944Zm7,1.079-5-1.079v21.625l5,1.03V191.023Zm7,2.059L23,192V212.63l5,1.03V193.082Zm7,0.981-5-1.03V213.66l5,1V194.063Zm7,1.03-5-1.03v21.625h5V195.093Zm7,0H44v20.6h5V195.093Zm7,0H51v20.6h5V195.093Zm7,0H58v20.6h5V195.093Zm7,0H65v20.6h5V195.093Zm7-1.03-5,1.03v20.6h5V194.063Zm7-1.03-5,1.03v20.6h5V193.033ZM91,192l-5,1.03v20.6l5-1.029V192Zm7-2.09-5,1.061v20.6l5-1.03V189.913Zm7-5.118-5,4.057V208.48l5-3V184.8Z"/>
</svg>
