<svg xmlns="http://www.w3.org/2000/svg" width="562" height="300" viewBox="0 0 562 300">
  <metadata><?xpacket begin="﻿" id="W5M0MpCehiHzreSzNTczkc9d"?>
<x:xmpmeta xmlns:x="adobe:ns:meta/" x:xmptk="Adobe XMP Core 5.6-c138 79.159824, 2016/09/14-01:09:01        ">
   <rdf:RDF xmlns:rdf="http://www.w3.org/1999/02/22-rdf-syntax-ns#">
      <rdf:Description rdf:about=""/>
   </rdf:RDF>
</x:xmpmeta>
                                                                                                    
                                                                                                    
                                                                                                    
                                                                                                    
                                                                                                    
                                                                                                    
                                                                                                    
                                                                                                    
                                                                                                    
                                                                                                    
                                                                                                    
                                                                                                    
                                                                                                    
                                                                                                    
                                                                                                    
                                                                                                    
                                                                                                    
                                                                                                    
                                                                                                    
                                                                                                    
                           
<?xpacket end="w"?></metadata>
<defs>
    <style>
      .cls-1 {
        fill-rule: evenodd;
      }
    </style>
  </defs>
  <path class="cls-1" d="M296.927,0a329.958,329.958,0,0,1,52.332,26.136c7.307,4.531,17.765,8.227,21.615,15.909,4.14,8.259-.782,15.927,1.138,25,1.013,4.787,3.445,9.21,4.551,13.636,7.54,3.585,16.586,6.73,25.028,10.227-3.335,4.4-8.78,3.832-10.239,10.227,6.647,6,16.979,7.675,27.3,10.228,10.738,16.51,25.88,61,15.927,86.363-2-.716-1.105-0.219-2.275-1.136-13.377-4-16.382-18.259-21.616-30.682-9.038-21.451-19.117-45.349-46.643-47.727-2.3,3.2-10.863,13.9-14.79,14.773-2.486-1.877-6.2-1.669-9.1-3.41-12.32-7.38-17.321-20.646-17.065-40.909l2.275-1.136c4.9-4.013,12.543-1.392,18.2,0V85.227c-5.044-7.786-7.678-31.232-10.239-40.909C315.266,35.728,296.715,27.043,296.927,0Zm157,94.318c10.707,2.956,11.993,11.464,19.34,17.046,10.114,7.682,22.054,14.893,29.579,25,6.148,8.256,5.771,17.943,20.478,18.181C528.677,149,554.644,125.724,562,125v1.136c-10.053,6.906-14.82,20.449-25.028,27.273l1.137,3.409c4.036,0.823,8.559,2.264,10.239,5.682h-1.137c-4.669,4.117-13.859,3.481-19.341,6.818-8.829,5.375-17.039,18.98-28.441,20.455-3.479-3.131-7.245-2.911-9.1-7.955h1.138c2.089-5.739,5.919-5.142,6.825-12.5-9.969-12.425-15.552-27.855-25.028-40.909C465.329,117.479,454.594,113.309,453.923,94.318ZM0,150c17.975-.127,36.431,3.721,48.919,10.227,9.065,4.723,11.06,11.967,25.028,12.5A29.923,29.923,0,0,1,87.6,167.045c5.533,8.493,40.766,10.473,52.332,15.91-0.717,1.993-.219,1.1-1.138,2.272-11.1,6.817-35.022-5.288-50.056-1.136-13.14,3.629-17.8,17.5-34.129,18.182-6.234-3.782-11.614-.636-12.514-10.228h2.275c2.309-1.58,6.83-1.768,9.1-3.409,0.855-1.219.684-1.074,1.138-3.409-3.357-2.405-5.715-6.71-9.1-9.091-8.3-5.837-20.325-10.764-29.579-14.772C8.621,158.2.69,160.127,0,150Zm298.065,2.273c2.881,0.084,4.228.137,5.688,1.136,5.074,1.792,4.359,5.5,7.964,7.955l15.927,4.545c10.24,4.59,26.794,24.028,29.579,36.364H353.81c-2.914-2.29-6.98-2.417-10.239-4.546-5.375-3.511-9.417-10.122-14.79-13.636-5.562-3.639-11.762-3.984-18.2-6.818-4.438-1.954-5.017-4.872-11.377-5.682-6.541,5.157-15.955,7.955-27.3,7.954-3.038-6.732-11.56-16.37-3.413-20.454C275.967,154.081,290.436,157.345,298.065,152.273ZM155.858,229.545c10.859,5.336,22.92,15.8,27.3,27.273,4.07,10.65.279,22.482,12.514,25,1.221-.854,1.076-0.683,3.413-1.136,1.561,2.889,2.181,3.981,2.275,9.091C196.181,295.386,195.614,300,184.3,300c-1.546-1.434-2.012-1.551-4.551-2.273-3.519-11.374-1.5-25.1-5.688-35.227C169.132,250.584,159.5,242.882,155.858,229.545Z"/>
</svg>
