<svg xmlns="http://www.w3.org/2000/svg" width="399.97" height="213.498" viewBox="0 0 740 395">
  <metadata><?xpacket begin="﻿" id="W5M0MpCehiHzreSzNTczkc9d"?>
<x:xmpmeta xmlns:x="adobe:ns:meta/" x:xmptk="Adobe XMP Core 5.6-c138 79.159824, 2016/09/14-01:09:01        ">
   <rdf:RDF xmlns:rdf="http://www.w3.org/1999/02/22-rdf-syntax-ns#">
      <rdf:Description rdf:about=""/>
   </rdf:RDF>
</x:xmpmeta>
                                                                                                    
                                                                                                    
                                                                                                    
                                                                                                    
                                                                                                    
                                                                                                    
                                                                                                    
                                                                                                    
                                                                                                    
                                                                                                    
                                                                                                    
                                                                                                    
                                                                                                    
                                                                                                    
                                                                                                    
                                                                                                    
                                                                                                    
                                                                                                    
                                                                                                    
                                                                                                    
                           
<?xpacket end="w"?></metadata>
<defs>
    <style>
      .cls-1 {
        fill: #fff;
        fill-rule: evenodd;
      }
    </style>
  </defs>
  <path class="cls-1" d="M391.443,0a433.658,433.658,0,0,1,68.814,34.413c9.609,5.965,23.361,10.832,28.423,20.947,5.443,10.874-1.029,20.971,1.5,32.917,1.332,6.3,4.53,12.126,5.984,17.954,9.915,4.721,21.809,8.862,32.911,13.466-4.386,5.787-11.545,5.046-13.464,13.466,8.741,7.9,22.327,10.1,35.9,13.466,14.121,21.738,34.032,80.31,20.943,113.712-2.624-.944-1.453-0.289-2.992-1.5-17.59-5.273-21.54-24.041-28.423-40.4C529.154,190.2,515.9,158.738,479.7,155.606c-3.028,4.215-14.284,18.3-19.447,19.451-3.269-2.471-8.148-2.2-11.968-4.489-16.2-9.717-22.776-27.185-22.439-53.863l2.992-1.5c6.447-5.284,16.493-1.833,23.935,0v-2.992c-6.633-10.252-10.095-41.122-13.463-53.864C415.558,47.042,391.164,35.607,391.443,0ZM597.885,124.186c14.079,3.892,15.769,15.094,25.431,22.443,13.3,10.115,29,19.609,38.894,32.916,8.085,10.872,7.589,23.626,26.928,23.94,7.044-7.3,41.189-37.948,50.862-38.9v1.5c-13.22,9.092-19.487,26.923-32.911,35.909q0.748,2.244,1.5,4.488c5.306,1.083,11.255,2.981,13.464,7.481h-1.5c-6.139,5.421-18.224,4.584-25.432,8.978-11.61,7.077-22.4,24.989-37.4,26.931-4.575-4.121-9.528-3.833-11.968-10.473h1.5c2.747-7.557,7.784-6.771,8.976-16.458-13.109-16.36-20.451-36.676-32.911-53.864C612.883,154.681,598.767,149.19,597.885,124.186ZM1,197.5c23.636-.168,47.9,4.9,64.326,13.466,11.92,6.218,14.543,15.756,32.911,16.458,4.39-3.586,11.348-6.5,17.951-7.481,7.276,11.183,53.605,13.789,68.814,20.947-0.943,2.625-.289,1.454-1.5,2.993-14.6,8.975-46.053-6.963-65.822-1.5-17.278,4.778-23.4,23.036-44.878,23.94-8.2-4.979-15.272-.838-16.455-13.466h2.992c3.035-2.081,8.982-2.329,11.968-4.489,1.124-1.605.9-1.415,1.5-4.488-4.414-3.167-7.514-8.836-11.968-11.97-10.919-7.686-26.726-14.173-38.895-19.451C12.336,208.3,1.908,210.834,1,197.5Zm391.939,2.992c3.789,0.111,5.56.181,7.48,1.5,6.671,2.359,5.732,7.234,10.472,10.473l20.943,5.985c13.466,6.043,35.233,31.637,38.895,47.879h-4.488c-3.831-3.015-9.179-3.182-13.464-5.985-7.067-4.623-12.382-13.327-19.447-17.955-7.315-4.791-15.466-5.245-23.935-8.977-5.836-2.572-6.6-6.415-14.96-7.481-8.6,6.79-20.98,10.475-35.9,10.474-4-8.865-15.2-21.555-4.488-26.932C363.882,202.873,382.908,207.171,392.939,200.492ZM205.945,302.235c14.279,7.026,30.139,20.808,35.9,35.909,5.353,14.022.367,29.6,16.456,32.917,1.605-1.125,1.414-.9,4.487-1.5,2.053,3.8,2.868,5.243,2.992,11.97-6.816,7.391-7.561,13.47-22.439,13.466-2.032-1.888-2.645-2.043-5.984-2.992-4.627-14.976-1.97-33.045-7.479-46.383C223.4,329.936,210.734,319.8,205.945,302.235Z"/>
</svg>
