<svg xmlns="http://www.w3.org/2000/svg" width="81" height="166" viewBox="0 0 81 166">
  <metadata><?xpacket begin="﻿" id="W5M0MpCehiHzreSzNTczkc9d"?>
<x:xmpmeta xmlns:x="adobe:ns:meta/" x:xmptk="Adobe XMP Core 5.6-c138 79.159824, 2016/09/14-01:09:01        ">
   <rdf:RDF xmlns:rdf="http://www.w3.org/1999/02/22-rdf-syntax-ns#">
      <rdf:Description rdf:about=""/>
   </rdf:RDF>
</x:xmpmeta>
                                                                                                    
                                                                                                    
                                                                                                    
                                                                                                    
                                                                                                    
                                                                                                    
                                                                                                    
                                                                                                    
                                                                                                    
                                                                                                    
                                                                                                    
                                                                                                    
                                                                                                    
                                                                                                    
                                                                                                    
                                                                                                    
                                                                                                    
                                                                                                    
                                                                                                    
                                                                                                    
                           
<?xpacket end="w"?></metadata>
<defs>
    <style>
      .cls-1 {
        fill: #fff;
        fill-rule: evenodd;
      }
    </style>
  </defs>
  <path id="hand" class="cls-1" d="M55,9.24S29.7-3.917,16,1.167c-11.628,4.314-12,27-12,27L0,30.434v12.11l3,4.037v7.064H5L6,60.71l6,12.11L11,96.032l4,3.028V114.2l1,3.028s4.692,6.229,8,7.064c4.5,1.137,8-3.028,8-3.028s5.927,12.572,10,13.12c3.357,0.452,5-11.1,5-11.1s6,26.491,5,27.248,6,8.074,6,8.074,7.359,6.805,13,9.083c4.115,1.661,6-4.037,6-4.037s4.02-7.556,4-20.184c-0.021-13.109-4.114-31.606-6-48.442-1.534-13.7-1.343-29.13-4-38.349a15.647,15.647,0,0,0-7-9.083l-4-9.083a122.085,122.085,0,0,1-5-18.166A39.169,39.169,0,0,1,55,9.24Z"/>
</svg>
