<svg id="head" xmlns="http://www.w3.org/2000/svg" width="226" height="37" viewBox="0 0 226 37">
  <metadata><?xpacket begin="﻿" id="W5M0MpCehiHzreSzNTczkc9d"?>
<x:xmpmeta xmlns:x="adobe:ns:meta/" x:xmptk="Adobe XMP Core 5.6-c138 79.159824, 2016/09/14-01:09:01        ">
   <rdf:RDF xmlns:rdf="http://www.w3.org/1999/02/22-rdf-syntax-ns#">
      <rdf:Description rdf:about=""/>
   </rdf:RDF>
</x:xmpmeta>
                                                                                                    
                                                                                                    
                                                                                                    
                                                                                                    
                                                                                                    
                                                                                                    
                                                                                                    
                                                                                                    
                                                                                                    
                                                                                                    
                                                                                                    
                                                                                                    
                                                                                                    
                                                                                                    
                                                                                                    
                                                                                                    
                                                                                                    
                                                                                                    
                                                                                                    
                                                                                                    
                           
<?xpacket end="w"?></metadata>
<defs>
    <style>
      .cls-1 {
        fill: #101e28;
        fill-rule: evenodd;
      }
    </style>
  </defs>
  <path id="Rounded_Rectangle_2" data-name="Rounded Rectangle 2" class="cls-1" d="M108,0a2,2,0,0,1,2,2V35a2,2,0,0,1-4,0V2A2,2,0,0,1,108,0Zm8,0a2,2,0,0,1,2,2V35a2,2,0,1,1-4,0V2A2,2,0,0,1,116,0Zm8,3a1.86,1.86,0,0,1,2,1.676V32.324a2.031,2.031,0,0,1-4,0V4.676A1.859,1.859,0,0,1,124,3Zm7,3a1.783,1.783,0,0,1,2,1.405V30.595a2.126,2.126,0,0,1-4,0V7.405A1.783,1.783,0,0,1,131,6ZM100,3a1.86,1.86,0,0,0-2,1.676V32.324a2.031,2.031,0,0,0,4,0V4.676A1.86,1.86,0,0,0,100,3ZM93,6a1.784,1.784,0,0,0-2,1.405V30.595a2.126,2.126,0,0,0,4,0V7.405A1.784,1.784,0,0,0,93,6Z"/>
</svg>
