<svg xmlns="http://www.w3.org/2000/svg" width="500" height="500" viewBox="0 0 500 500">
  <metadata><?xpacket begin="﻿" id="W5M0MpCehiHzreSzNTczkc9d"?>
<x:xmpmeta xmlns:x="adobe:ns:meta/" x:xmptk="Adobe XMP Core 5.6-c138 79.159824, 2016/09/14-01:09:01        ">
   <rdf:RDF xmlns:rdf="http://www.w3.org/1999/02/22-rdf-syntax-ns#">
      <rdf:Description rdf:about=""/>
   </rdf:RDF>
</x:xmpmeta>
                                                                                                    
                                                                                                    
                                                                                                    
                                                                                                    
                                                                                                    
                                                                                                    
                                                                                                    
                                                                                                    
                                                                                                    
                                                                                                    
                                                                                                    
                                                                                                    
                                                                                                    
                                                                                                    
                                                                                                    
                                                                                                    
                                                                                                    
                                                                                                    
                                                                                                    
                                                                                                    
                           
<?xpacket end="w"?></metadata>
<defs>
    <style>
      .cls-1 {
        fill: #ed1c24;
        fill-rule: evenodd;
      }
    </style>
  </defs>
  <path class="cls-1" d="M497.694,275.872c-3.136,6.622-12.621,11.044-17.7,11.779-5.859.848-13.019-5.411-17.7-11.779a45.332,45.332,0,0,1-5.311-9.817l-1.77-11.78s0.394-8.892,1.275-14.695c1-6.571-1.086-7.236-1.275-6.9,0,0-4.369.543-7.081-1.963-2.6-2.4-3.54-7.854-3.54-7.854h-5.31l-1.771,7.854-3.54-1.964s-1.47,10.149,3.54,15.707c4.717,5.23,15.932,5.89,15.932,5.89s-2.721,2.413-5.145,4.565l-3.706,3.288s-13.655-5.082-15.931-9.817c-4.186-8.7,1.77-19.633,1.77-19.633a5.777,5.777,0,0,0,1.77-3.926c0-2.559-1.77-5.89-1.77-5.89l-12.391-1.964v13.744a3.567,3.567,0,0,1-3.541,0c-1.6-.887-3.54-3.927-3.54-3.927s-8.851,9.436-8.851,19.633c0,10.415,8.851,21.6,8.851,21.6-0.695-.041-15.6-12.918-12.357-24.843a39.981,39.981,0,0,1,10.587-18.349l-1.77-7.854a4.7,4.7,0,0,1-3.541,1.964c-2.213,0-5.31-1.964-5.31-1.964a13.806,13.806,0,0,0-3.541,5.89c-1,4.45,0,11.78,0,11.78l-5.31-5.89c-3.744-.6-12.763,9.471-12.391,19.633a63.4,63.4,0,0,0,3.54,17.67s-12.08-6.344-10.621-17.67c1.162-9.025,15.932-23.559,15.932-23.559v-7.854a19,19,0,0,1-7.081,1.964,15.451,15.451,0,0,1-7.081-1.964l-3.54,13.744a7.106,7.106,0,0,0-3.525-3.406c-3.381-1.5-7.1-.705-7.1-0.521a83.642,83.642,0,0,0-7.081,13.743,67.059,67.059,0,0,0-3.54,15.707,4.212,4.212,0,0,1-3.541-1.964c-0.639-.945.29-2.639,0-3.926a3.792,3.792,0,0,0-1.77-1.964,164.081,164.081,0,0,1-12.391,19.633c-6.962,9.234-15.332,17.151-21.242,27.487-11.25,19.676-12.391,33.376-12.391,33.376s-1.785,19.021-5.311,29.449C286.232,371.2,279.963,376,279.963,376a67.785,67.785,0,0,0,8.851-19.633c3.916-14.658,5.311-33.376,5.311-33.376s4.158-14.138,10.621-25.523c5.814-10.242,13.824-20.018,19.472-27.486,5.241-6.932,8.315-11.9,8.994-12.82a70.577,70.577,0,0,0,8.707-16.63s-3.359-5.212-10.621,0c-4.206,3.019-8.36,12.727-12.391,17.67-3.325,4.076-6.116,4.431-28.323,5.89-7.744.508-16.675-.078-23.012,1.963-3.153,1.015-3.751,4.081-5.31,5.89a37.707,37.707,0,0,0-5.311,7.853s0.75,19.448,3.541,33.376c1.183,5.906,4.785,16.085,5.31,19.633,0.987,6.669-1.77,3.927-1.77,3.927a105.692,105.692,0,0,1-7.081-21.6,229.3,229.3,0,0,1-3.54-31.413,83.592,83.592,0,0,0-10.621,11.78c-2.607,3.469-5.463,7.121-8.851,11.779-2.563,3.524-5.875,7.861-7.081,11.78-0.9,2.936.046,7.08,0,9.817-0.1,6.129,0,9.816,0,9.816s-3.278-.016-3.54-5.89c-0.632-14.137-.226-14.225,7.884-27.309,5.286-8.528,20.257-27.5,20.439-27.663v-8.344a30.959,30.959,0,0,0-1.771-9.326s-20.241,22.453-31.863,39.266c-8.074,11.682-8.85,19.633-8.85,19.633s-2.241,1.93-1.771-5.89c0.172-2.856,2.847-7.414,3.541-11.78a40.887,40.887,0,0,0,0-11.779,8.536,8.536,0,0,0-3.541-1.964,15.583,15.583,0,0,0-5.31,0s-4.825,5.93-10.621,17.67c-4.815,9.752-10.739,35.867-15.932,47.119-7.809,16.925-14.161,17.67-14.161,17.67a137.128,137.128,0,0,1,1.77-33.376c2.593-13.633,7.428-26.869,10.522-37.131,2.308-7.656,3.64-13.915,3.64-13.915A93.592,93.592,0,0,0,164.9,299.431c-5.9,7.792-12.759,19.52-17.7,25.523-3.887,4.721-7.081,5.89-7.081,5.89s-5.107-7.952,0-19.633c8.265-18.906,28.323-45.156,28.323-45.156s3.183-8.34,7.08-13.743c3.089-4.282,5.311-3.927,5.311-3.927a43.075,43.075,0,0,0,7.081-9.816c3.1-5.923,5.311-13.894,12.391-17.67,9.068-4.837,20.551-3.723,29.049-3.582a96.63,96.63,0,0,0,9.894-.345l8.851-7.853c0.1-.048-0.139-4.164-4.325-7.01a30.1,30.1,0,0,0-13.376-4.77c-6.373-.5-23.226,1.452-35.4,7.854-5.231,2.75-8.466,8.591-12.391,11.779a103.305,103.305,0,0,1-14.161,9.817l21.242-21.6-3.541-1.964a21.307,21.307,0,0,1-7.08,7.854c-5.7,3.687-14.162,5.889-14.162,5.889s8.2-4.367,12.392-7.853a4.213,4.213,0,0,0,1.77-3.926S98.483,237.375,71.083,248.385C42.915,259.705-16.4,289.421,7.357,326.917,19.25,345.688,37.45,346.55,37.45,346.55s-6.823,1.118-14.161-3.926c-6.449-4.433-50.655-30.062,2.793-72.239,16.731-13.2,46.235-25.233,69.784-35.743,16.775-7.486,37.43-14.21,51.335-19.633,25.441-9.923,38.815-15.746,38.943-15.706,0,0,14.378-5.1,24.783-9.817a88.1,88.1,0,0,0,14.161-7.853A256.349,256.349,0,0,0,195,185.56c-13.372,2.664-31.91,7.412-37.173,7.853-28.962,2.428-61.956,0-61.956,0s35.206,0.24,61.508-2.537c14.105-1.49,28.363-6.147,42.932-9.243,12.549-2.667,38.943-5.89,38.943-5.89a213.66,213.66,0,0,1-24.782-3.927,68.27,68.27,0,0,1-15.931-5.889,225.754,225.754,0,0,0,24.782,1.963,30.314,30.314,0,0,0,10.621-1.963V162s1.245,1.457,5.31,1.963c6.547,0.816,18.505.954,30.093,1.964,10.1,0.88,20.217.2,30.093,1.963,26.585,4.756,44.254,13.743,44.254,13.743a101,101,0,0,1,19.472,1.963,70.056,70.056,0,0,1,15.932,5.89s41.11-6.826,69.036,9.817c16.4,9.771,26.9,27.949,35.4,41.229C495.813,259.706,504.3,261.933,497.694,275.872Z"/>
</svg>
