<svg id="Lower_arm_left" data-name="Lower arm left" xmlns="http://www.w3.org/2000/svg" width="146" height="300" viewBox="0 0 146 300">
  <metadata><?xpacket begin="﻿" id="W5M0MpCehiHzreSzNTczkc9d"?>
<x:xmpmeta xmlns:x="adobe:ns:meta/" x:xmptk="Adobe XMP Core 5.6-c138 79.159824, 2016/09/14-01:09:01        ">
   <rdf:RDF xmlns:rdf="http://www.w3.org/1999/02/22-rdf-syntax-ns#">
      <rdf:Description rdf:about=""/>
   </rdf:RDF>
</x:xmpmeta>
                                                                                                    
                                                                                                    
                                                                                                    
                                                                                                    
                                                                                                    
                                                                                                    
                                                                                                    
                                                                                                    
                                                                                                    
                                                                                                    
                                                                                                    
                                                                                                    
                                                                                                    
                                                                                                    
                                                                                                    
                                                                                                    
                                                                                                    
                                                                                                    
                                                                                                    
                                                                                                    
                           
<?xpacket end="w"?></metadata>
<defs>
    <style>
      .cls-1 {
        fill: #e3e3e3;
      }

      .cls-1, .cls-2, .cls-3 {
        fill-rule: evenodd;
      }

      .cls-2 {
        fill: #363636;
      }

      .cls-3 {
        fill: #858585;
      }
    </style>
  </defs>
  <path id="lower-arm" class="cls-1" d="M-121-560.409l-7,11.591,1,5.04s-7.374,3.675-12,8.063a19.361,19.361,0,0,0-5,8.064l-22,27.215a56.226,56.226,0,0,0-8,13.1c-1.461,3.488.311,7.594-2,11.088-4.4,6.658-11.557,9.691-16,14.111a26.315,26.315,0,0,0-6,10.079s1.056,9.218-1,13.1c-1.941,3.667-7,2.016-7,2.016l-14,13.1v14.111s2-.252,2,1.008-2,4.032-2,4.032v8.064l4,1.007L-220-382s17.915-4.238,28,2c11.782,7.287,16,21,16,21l5-6.371V-369.4h6l6-8.063v-5.04l6-3.024h3l3-4.032,1-5.039,2-1.009-2-3.023,4-5.04s2.1,3.485,4,4.032c1.57,0.452,3-2.016,3-2.016l6-1.008,6-4.032v-5.04c0.073,0.171,4.592-2.439,7.143-6.3A40.29,40.29,0,0,1-113-421.816h4l9-10.08,1-4.032,3-1.007,1-5.04,20-19.151,2-6.048,8-8.064v-4.031s5.391-3.55,8-7.056a6.578,6.578,0,0,0,1-5.04,34.507,34.507,0,0,0,8-6.047,28.884,28.884,0,0,0,5-8.064s2.494-5.975,2-10.08a10,10,0,0,0-4-6.551,21.329,21.329,0,0,0,6-6.552c1.542-3,1-7.056,1-7.056a2.853,2.853,0,0,0,3-2.015c0.573-1.539,0-6.048,0-6.048,0.413,0.671,5.825,4.769,5.346.076A14.394,14.394,0,0,1-29-547.81s-9.3-12.392-29-15.119c-25.133-3.48-62,2.52-62,2.52"/>
  <path class="cls-2" d="M-213.341-392.913a28.577,28.577,0,0,1-2.823,9.969c-1.2.474-2.4,0.949-3.583,1.437a39.607,39.607,0,0,0,3.243-9.909q1.644-.744,3.163-1.5h0Zm2.434,9.566q-1.823.088-3.694,0.189a25.38,25.38,0,0,0,2.743-11.171q1.778-.332,3.457-0.672a22.014,22.014,0,0,1-2.506,11.654h0Zm4.526-.288q-1.608-.187-3.284-0.356c1.837-3.674,3.15-6.832,2.609-11.159,1.151,0.181,2.289.352,3.415,0.521,0.54,4.238-.816,7.322-2.74,10.994h0Zm4.521,0.283q-1.51-.218-3.1-0.412c1.932-3.7,3.255-6.79,2.608-11.025q1.674,0.253,3.309.513c0.6,4.2-.8,7.213-2.821,10.924h0Zm3.922,0.926q-1.394-.262-2.865-0.5c2.1-3.711,3.586-6.7,3.1-10.9q1.65,0.57,3.217,1.163c0.181,3.965-1.353,6.693-3.448,10.234h0Zm3.617,0.989q-1.284-.293-2.644-0.564c2.263-3.712,3.934-6.6,3.686-10.776q1.549,0.607,2.992,1.241c-0.086,3.928-1.788,6.571-4.034,10.1h0Zm2.959,2.6q-1-.582-2.08-1.147c2.3-3.517,4.075-7.135,4.289-11.037q1.393,0.643,2.669,1.309c-0.518,3.832-2.452,7.39-4.878,10.875h0Zm2.672,1.665q-0.912-.606-1.882-1.2c2.468-3.471,4.46-7.006,5.09-10.809,0.82,0.448,1.6.9,2.347,1.364-0.88,3.73-3,7.208-5.555,10.641h0Zm2.46,1.728q-0.849-.627-1.739-1.24c2.588-3.417,4.748-6.871,5.714-10.573,0.721,0.466,1.409.939,2.073,1.419a34.067,34.067,0,0,1-6.048,10.394h0Zm2.323,1.785q-0.813-.646-1.648-1.28a35.185,35.185,0,0,0,6.158-10.32c0.646,0.486,1.269.979,1.876,1.48a37.886,37.886,0,0,1-6.386,10.12h0Zm1.843,2.314q-0.593-.9-1.195-1.8a38.981,38.981,0,0,0,6.46-10.034c0.6,0.508,1.178,1.022,1.752,1.544-1.539,3.581-4.169,6.892-7.017,10.285h0Zm1.822,2.332q-0.6-.9-1.186-1.805a47.611,47.611,0,0,0,6.833-9.678q0.844,0.782,1.671,1.577c-1.743,3.4-4.5,6.566-7.318,9.906h0Zm1.85,2.361q-0.615-.92-1.213-1.826c2.661-3.168,5.308-6.162,7.08-9.326q0.684,1.028,1.342,2.036c-1.906,3.025-4.615,5.943-7.209,9.116h0Zm1.188,3.413c-0.324-.815-0.63-1.606-0.922-2.386,2.544-3.2,5.292-6.108,7.288-9.072q0.646,0.993,1.276,1.961c-2.195,2.989-5.137,6.016-7.642,9.5h0Zm1.114,4.251c-0.4-.925-0.769-1.8-1.122-2.65,2.345-3.607,5.31-6.693,7.63-9.65,0.2,0.9.388,1.793,0.573,2.683-2.34,2.819-5.11,5.908-7.081,9.617h0Z"/>
  <path class="cls-3" d="M-136.177-463.736a56.562,56.562,0,0,0-15.871-12.257s10.848,1.879,17.972,10.148c7.385,8.572,11.067,23.312,11.067,23.312S-128.465-454.813-136.177-463.736Zm-16.263,1.326a29.2,29.2,0,0,1,11.888,8.029c6.441,7.555,11.275,19.033,11.275,19.033a142.927,142.927,0,0,0-11.383-15.958A77.447,77.447,0,0,0-152.44-462.41Zm-35.472,59.372c-8.7-4.255-21.088-5.32-21.088-5.32s10.181-3.473,20.129,1.41c9.993,4.906,19.585,17.932,19.585,17.932A67.941,67.941,0,0,0-187.912-403.038Zm8.49-41.55a37.256,37.256,0,0,0-3.881-4.83,6.5,6.5,0,0,0-4.072-1.981l9.428-13.686s-3.449,7.786-3.282,13.564A16.517,16.517,0,0,0-179.422-444.588Zm0,0c1.245,1.793,2.114,3.244,2.114,3.244A15.9,15.9,0,0,1-179.422-444.588ZM-186.564-433c-1.84,4.286-11.229,6.337-11.229,6.337a36.437,36.437,0,0,0,6.174-9.266,31.5,31.5,0,0,0,2.141-10.274S-184.275-438.333-186.564-433Z"/>
  <path id="lower-leg_copy" data-name="lower-leg copy" class="cls-1" d="M15.339,36.95l7.07-11.235S47.849,0,73.915,0c34.376,0,71.706,25.715,71.706,25.715s0.82,22.754,0,41.194a194.517,194.517,0,0,1-3.029,26.963s-0.451,13.772-2.02,23.967a150.649,150.649,0,0,1-5.05,21.971s0.546,19.1,0,33.954a162.773,162.773,0,0,1-2.02,20.971c0.391,0.156,10.021,28.11,1.5,48.245-4.293,10.138-14.84,16.608-20.684,22.659-5.253,5.44-4.313,6.991-4.313,6.991v16.977S98.667,297.1,80,298.6s-28.229-3.2-29-4.994c-1.5-3.495-2.333-16.977-2.333-16.977s-4.589-8.79-11.109-13.981c-6.313-5.025-14.466-6.327-20.2-13.981-7.7-10.279-9.09-25.965-9.09-25.965S-1.5,189.163.189,144.8c0.561-14.731,4.07-28.137,6.06-42.942,2.157-16.053,2.367-32.141,4.04-43.94A98.306,98.306,0,0,1,15.339,36.95Z"/>
  <path class="cls-3" d="M68,269.635s4.9-5.463,5-26.964c0.109-23.883-10-55.924-10-55.924s15.111,31.614,15,55.924C77.9,263.619,68,269.635,68,269.635ZM31.713,220.59c5.165,12.372,14.357,27.076,14.357,27.076s-15.745-16.477-21.784-30.945C20.6,207.9,28.4,200.861,28.4,200.861S26.549,208.217,31.713,220.59Zm57.074,8.9C92.8,198.5,93,153.792,93,153.792s3.324,47.437-.675,78.3C88.718,259.93,76.01,269.26,76.01,269.26S85.2,257.171,88.788,229.489Zm22.17-4.308c3-19.957,1.042-42.428,1.042-42.428s4.4,22.6,1.3,43.222a85.874,85.874,0,0,1-12.96,33.985S107.846,245.906,110.958,225.181Z"/>
  <path class="cls-2" d="M49.554,291.852c-0.2-5.617-.47-11.058-0.9-16.095-1-1.043-2.03-2.083-3.089-3.135,0.575,4.991.92,10.317,1.158,15.818Q48.151,290.117,49.554,291.852Zm4-14.071q-1.718-.642-3.467-1.285c0.431,5.625.694,11.8,0.908,18.162,1.144,0.853,2.945,1.672,4.078,2.583-0.232-6.963-1.146-13.509-1.519-19.46h0Zm4.669,0.236q-1.663-.219-3.343-0.434c0.374,6.209,1.292,12.176,1.544,19.55q1.659,0.33,3.313.681c-0.278-7.485-1.185-13.6-1.514-19.8h0Zm4.638,1.1q-1.638-.233-3.288-0.453c0.314,6.28,1.219,12.52,1.509,20.081q1.648,0.363,3.29.745c-0.316-7.659-1.22-14.056-1.511-20.373h0Zm4.531,0.208q-1.617-.229-3.244-0.442c0.284,6.3,1.189,12.757,1.517,20.472l3.214-.334c-0.337-7.435-1.225-13.621-1.487-19.7h0Zm4.483,0.31q-1.6-.255-3.209-0.488c0.269,6.363,1.179,13.023,1.543,20.866l3.184-.319c-0.369-7.537-1.26-13.906-1.518-20.059h0Zm4.4-.538q-1.567.178-3.14,0.377c0.255,6.141,1.145,12.534,1.523,20.094l3.15-.315C77.41,291.653,76.524,285.213,76.275,279.1Zm4.363-.457q-1.554.149-3.112,0.318c0.247,6.1,1.132,12.555,1.536,20.17l3.116-.311c-0.421-7.632-1.3-14.105-1.54-20.177h0Zm4.327-.364q-1.541.112-3.087,0.25c0.24,6.061,1.114,12.535,1.54,20.167l3.083-.308c-0.438-7.616-1.3-14.076-1.536-20.109h0Zm4.3-.262q-1.531.073-3.065,0.176c0.234,6.023,1.091,12.47,1.533,20.072l3.051-.3c-0.448-7.55-1.289-13.946-1.519-19.944h0Zm4.235-1.029q-1.507.466-3.013,0.975c0.229,5.988,1.062,11.357,1.511,18.878l3.019-.3c-0.472-7.8-1.306-13.433-1.517-19.551h0Zm4.215-.879q-1.5.41-3,.861c0.2,5.821.988,11.96,1.436,19.337,1-.094,1.995-1.185,2.989-1.276-0.464-7.6-1.246-12.951-1.425-18.922h0Zm4.2-.735q-1.5.358-2.99,0.753c0.169,5.692.9,11.552,1.34,18.714q1.45-.66,2.9-1.287c-0.42-6.96-1.106-12.573-1.248-18.18h0Zm4.156-2.264c-0.993.49-1.984,0.98-2.972,1.484,0.117,5.527.773,10.991,1.182,17.847q1.441-.6,2.882-1.143c-0.4-6.933-1.017-12.449-1.092-18.188h0ZM110.221,271c-0.991.54-1.984,1.047-2.975,1.543,0.027,5.667.591,11.982,0.971,18.773q1.388-1.421,2.789-2.7c-0.314-6.188-.784-11.969-0.785-17.619h0Z"/>
</svg>
