<svg xmlns="http://www.w3.org/2000/svg" width="191" height="205" viewBox="0 0 191 205">
  <metadata><?xpacket begin="﻿" id="W5M0MpCehiHzreSzNTczkc9d"?>
<x:xmpmeta xmlns:x="adobe:ns:meta/" x:xmptk="Adobe XMP Core 5.6-c138 79.159824, 2016/09/14-01:09:01        ">
   <rdf:RDF xmlns:rdf="http://www.w3.org/1999/02/22-rdf-syntax-ns#">
      <rdf:Description rdf:about=""/>
   </rdf:RDF>
</x:xmpmeta>
                                                                                                    
                                                                                                    
                                                                                                    
                                                                                                    
                                                                                                    
                                                                                                    
                                                                                                    
                                                                                                    
                                                                                                    
                                                                                                    
                                                                                                    
                                                                                                    
                                                                                                    
                                                                                                    
                                                                                                    
                                                                                                    
                                                                                                    
                                                                                                    
                                                                                                    
                                                                                                    
                           
<?xpacket end="w"?></metadata>
<defs>
    <style>
      .cls-1 {
        fill: #e3e3e3;
      }

      .cls-1, .cls-2, .cls-3 {
        fill-rule: evenodd;
      }

      .cls-2 {
        fill: #858585;
      }

      .cls-3 {
        fill: #959595;
      }
    </style>
  </defs>
  <path id="lower-arm" class="cls-1" d="M92,3.622l7,11.59L98,20.25s7.374,3.674,12,8.062a19.352,19.352,0,0,1,5,8.062l22,27.211a56.208,56.208,0,0,1,8,13.1c1.461,3.487-.311,7.592,2,11.086,4.4,6.657,11.557,9.69,16,14.11a26.308,26.308,0,0,1,6,10.078s-1.056,9.216,1,13.1c1.941,3.667,7,2.015,7,2.015l14,13.1v14.109s-2-.252-2,1.008,2,4.031,2,4.031v8.062l-4,1.008L191,182s-18.915-3.238-29,3c-11.782,7.286-16,20-16,20l-4-6.37V194.6h-6l-6-8.063V181.5l-6-3.023h-3l-3-4.031-1-5.039-2-1.008,2-3.023-4-5.039s-2.1,3.484-4,4.031c-1.57.452-3-2.016-3-2.016l-6-1.007-6-4.032v-5.039c-0.073.171-4.592-2.439-7.142-6.3A40.512,40.512,0,0,0,84,142.193H80l-9-10.078-1-4.031-3-1.008-1-5.038L46,102.889l-2-6.046L36,88.78V84.749s-5.391-3.549-8-7.055a6.576,6.576,0,0,1-1-5.039,34.519,34.519,0,0,1-8-6.047,28.875,28.875,0,0,1-5-8.062s-2.493-5.974-2-10.078a10,10,0,0,1,4-6.551,21.329,21.329,0,0,1-6-6.551c-1.542-3-1-7.055-1-7.055A2.855,2.855,0,0,1,6,26.3C5.428,24.759,6,20.25,6,20.25c-0.413.671-5.825,4.768-5.346,0.076A14.388,14.388,0,0,0,0,16.219S9.3,3.829,29,1.1c25.133-3.479,62,2.52,62,2.52"/>
  <path class="cls-2" d="M142.968,205.939m-0.229-6.72a57.961,57.961,0,0,0,2.891,5.283,21.063,21.063,0,0,0,1.967-2.277c-0.046.015-1.691-3.207-2.99-5.774a25.812,25.812,0,0,0-2.965-4.334c-0.542.934-1.093,1.844-1.66,2.717a37.615,37.615,0,0,1,2.757,4.385h0Zm2.253-3.487c1.228,2.682,2.747,6.08,2.794,6.062,0.665-.841,1.3-1.746,1.931-2.7-0.046.006-1.552-3.67-2.842-6.364a18.444,18.444,0,0,0-3.09-4.405c-0.569.961-1.133,1.919-1.7,2.855a23.8,23.8,0,0,1,2.906,4.55h0Zm2.382-3.789c1.163,2.82,2.465,6.671,2.509,6.661,0.677-.938,1.341-1.919,2-2.924-0.045,0-1.31-4-2.5-6.767a14.26,14.26,0,0,0-3.052-4.419c-0.645.92-1.269,1.857-1.88,2.794a17.549,17.549,0,0,1,2.922,4.655h0Zm4.889,3.41c0.691-.853,1.381-1.721,2.079-2.59-0.044-.007-1.027-4.381-1.939-7.393a13.6,13.6,0,0,0-2.576-4.862c-0.739.714-1.447,1.456-2.13,2.216a16.381,16.381,0,0,1,2.575,5.179c0.929,3.123,1.948,7.454,1.991,7.45h0Zm2.391-3c0.735-.791,1.477-1.581,2.231-2.355-0.044-.015-0.808-4.5-1.486-7.44a11.668,11.668,0,0,0-2.156-4.747q-1.28.863-2.457,1.82a14.019,14.019,0,0,1,2.269,5.1c0.75,3.129,1.558,7.621,1.6,7.624h0Zm2.578-2.609c0.771-.694,1.554-1.372,2.353-2.022-0.042-.022-0.572-4.512-0.963-7.382a11.3,11.3,0,0,0-1.517-4.615q-1.414.655-2.732,1.409a12.889,12.889,0,0,1,1.731,4.957c0.494,3.073,1.089,7.642,1.128,7.653h0Zm2.47-2.189c0.824-.6,1.664-1.171,2.523-1.7-0.039-.028-0.349-4.381-0.5-7.118a11.628,11.628,0,0,0-.975-4.4q-1.539.494-2.991,1.088A12.187,12.187,0,0,1,159,180.118C159.272,183.049,159.664,187.538,159.7,187.557Zm2.919-1.924c0.847-.5,1.713-0.956,2.6-1.367-0.036-.033-0.2-4.166-0.171-6.751a13.964,13.964,0,0,0-.509-4.183q-1.59.35-3.11,0.8a12.951,12.951,0,0,1,.795,4.4c0.089,2.756.36,7.072,0.4,7.1h0Zm2.981-1.513a25.2,25.2,0,0,1,2.757-1.031c-0.031-.035-0.009-3.9.2-6.4a21.2,21.2,0,0,0-.078-4.064c-1.108.149-2.2,0.332-3.275,0.549a15.563,15.563,0,0,1,.355,4.189c-0.1,2.591.009,6.722,0.045,6.756h0Zm4.007-1.448a21.058,21.058,0,0,1,3.052-.738c-0.027-.031.035-3.485,0.113-5.843a15.774,15.774,0,0,0-.375-3.91c-1.2.109-2.4,0.252-3.574,0.434a11.8,11.8,0,0,1,.63,3.892c0.017,2.385.12,6.129,0.154,6.165h0Zm4.544-.8a20.231,20.231,0,0,1,3.125-.272c-0.016-.016-0.119-3.259-0.274-5.7a18.878,18.878,0,0,0-.733-4.077c-1.185.083-2.374,0.188-3.551,0.322a12.6,12.6,0,0,1,.945,3.885c0.212,2.355.462,5.812,0.488,5.838h0Zm4.667-.483a24.049,24.049,0,0,1,3.256.168c0,0.009-.3-3.174-0.749-5.782a21.1,21.1,0,0,0-1.208-4.321c-1.165.106-2.354,0.214-3.544,0.339a12.824,12.824,0,0,1,1.4,3.957c0.461,2.4.835,5.633,0.848,5.639h0Zm3.29-5.68c0.649,2.642,1.193,5.955,1.191,5.941,1.095,0.124,2.2.313,3.308,0.552,0.018,0.03-.589-3.441-1.284-6.415a38.863,38.863,0,0,0-1.448-4.849c-1.082.168-2.221,0.311-3.385,0.449a17.428,17.428,0,0,1,1.618,4.322h0Zm3.945-.048c0.881,3.019,1.785,6.733,1.767,6.7,1.068,0.206,2.121.447,3.128,0.7,0.037,0.05-1.122-4.058-2.1-7.516-1.03-3.509-1.582-5.526-1.6-5.484a24.6,24.6,0,0,1-2.994.761,28.946,28.946,0,0,1,1.8,4.843h0Z"/>
  <path class="cls-3" d="M107.165,102.016a60.207,60.207,0,0,1,16.188-12s-10.808,1.951-18.212,10c-7.764,8.44-12.141,23-12.141,23S99.063,110.823,107.165,102.016Zm16.188,1a31.346,31.346,0,0,0-12.141,8c-6.77,7.526-12.141,19-12.141,19a154.1,154.1,0,0,1,12.141-16A82.612,82.612,0,0,1,123.353,103.016Zm34.4,57.991c8.812-4.572,21.247-6,21.247-6a28.939,28.939,0,0,0-20.235,2c-10.187,5.285-20.236,19-20.236,19A74.43,74.43,0,0,1,157.753,161.007ZM149.79,119.8a38.275,38.275,0,0,1,3.916-4.781,6.7,6.7,0,0,1,4.047-2l-9.106-13s3.281,7.412,3.035,13A16.271,16.271,0,0,1,149.79,119.8Zm0,0c-1.266,1.779-2.155,3.217-2.155,3.217A16.32,16.32,0,0,0,149.79,119.8Zm6.951,11.216c1.788,4.195,11.13,6,11.13,6a34.436,34.436,0,0,1-6.071-9,29.9,29.9,0,0,1-2.024-10S154.527,125.816,156.741,131.011Z"/>
</svg>
