<svg id="Lower_arm_left" data-name="Lower arm left" xmlns="http://www.w3.org/2000/svg" width="191" height="205" viewBox="0 0 191 205">
  <metadata><?xpacket begin="﻿" id="W5M0MpCehiHzreSzNTczkc9d"?>
<x:xmpmeta xmlns:x="adobe:ns:meta/" x:xmptk="Adobe XMP Core 5.6-c138 79.159824, 2016/09/14-01:09:01        ">
   <rdf:RDF xmlns:rdf="http://www.w3.org/1999/02/22-rdf-syntax-ns#">
      <rdf:Description rdf:about=""/>
   </rdf:RDF>
</x:xmpmeta>
                                                                                                    
                                                                                                    
                                                                                                    
                                                                                                    
                                                                                                    
                                                                                                    
                                                                                                    
                                                                                                    
                                                                                                    
                                                                                                    
                                                                                                    
                                                                                                    
                                                                                                    
                                                                                                    
                                                                                                    
                                                                                                    
                                                                                                    
                                                                                                    
                                                                                                    
                                                                                                    
                           
<?xpacket end="w"?></metadata>
<defs>
    <style>
      .cls-1 {
        fill: #e3e3e3;
      }

      .cls-1, .cls-2, .cls-3 {
        fill-rule: evenodd;
      }

      .cls-2 {
        fill: #363636;
      }

      .cls-3 {
        fill: #858585;
      }
    </style>
  </defs>
  <path id="lower-arm" class="cls-1" d="M92,3.622l7,11.59L98,20.25s7.374,3.674,12,8.062a19.352,19.352,0,0,1,5,8.062l22,27.211a56.208,56.208,0,0,1,8,13.1c1.461,3.487-.311,7.592,2,11.086,4.4,6.657,11.557,9.69,16,14.11a26.308,26.308,0,0,1,6,10.078s-1.056,9.216,1,13.1c1.941,3.667,7,2.015,7,2.015l14,13.1v14.109s-2-.252-2,1.008,2,4.031,2,4.031v8.062l-4,1.008L191,182s-17.915-4.238-28,2c-11.782,7.286-16,21-16,21l-5-6.37V194.6h-6l-6-8.063V181.5l-6-3.023h-3l-3-4.031-1-5.039-2-1.008,2-3.023-4-5.039s-2.1,3.484-4,4.031c-1.57.452-3-2.016-3-2.016l-6-1.007-6-4.032v-5.039c-0.073.171-4.592-2.439-7.142-6.3A40.512,40.512,0,0,0,84,142.193H80l-9-10.078-1-4.031-3-1.008-1-5.038L46,102.889l-2-6.046L36,88.78V84.749s-5.391-3.549-8-7.055a6.576,6.576,0,0,1-1-5.039,34.519,34.519,0,0,1-8-6.047,28.875,28.875,0,0,1-5-8.062s-2.493-5.974-2-10.078a10,10,0,0,1,4-6.551,21.329,21.329,0,0,1-6-6.551c-1.542-3-1-7.055-1-7.055A2.855,2.855,0,0,1,6,26.3C5.428,24.759,6,20.25,6,20.25c-0.413.671-5.825,4.768-5.346,0.076A14.388,14.388,0,0,0,0,16.219S9.3,3.829,29,1.1c25.133-3.479,62,2.52,62,2.52"/>
  <path class="cls-2" d="M184.341,171.092a28.572,28.572,0,0,0,2.823,9.968c1.2,0.473,2.4.949,3.583,1.437a39.607,39.607,0,0,1-3.243-9.909q-1.644-.743-3.163-1.5h0Zm-2.434,9.565q1.823,0.088,3.694.188a25.368,25.368,0,0,1-2.743-11.169q-1.778-.33-3.457-0.671a22.009,22.009,0,0,0,2.506,11.652h0Zm-4.526-.288q1.608-.187,3.284-0.357c-1.837-3.673-3.15-6.83-2.609-11.157q-1.727.272-3.415,0.522c-0.54,4.236.816,7.32,2.74,10.992h0Zm-4.521.283q1.51-.217,3.1-0.412c-1.932-3.7-3.255-6.79-2.608-11.023-1.116.169-2.22,0.337-3.309,0.512-0.6,4.2.8,7.213,2.821,10.923h0Zm-3.922.925q1.394-.261,2.865-0.5c-2.1-3.71-3.586-6.694-3.1-10.894q-1.65.571-3.217,1.164c-0.181,3.963,1.353,6.691,3.448,10.231h0Zm-3.617.99q1.284-.294,2.644-0.565c-2.263-3.711-3.934-6.6-3.686-10.774q-1.549.608-2.992,1.241c0.086,3.927,1.788,6.57,4.034,10.1h0Zm-2.959,2.595q1-.582,2.08-1.147c-2.3-3.516-4.075-7.133-4.289-11.035q-1.393.643-2.669,1.309c0.518,3.831,2.452,7.389,4.878,10.873h0Zm-2.672,1.665q0.912-.606,1.882-1.2c-2.468-3.47-4.46-7-5.09-10.807-0.82.448-1.6,0.9-2.347,1.363,0.88,3.73,3,7.207,5.555,10.64h0Zm-2.46,1.728q0.849-.629,1.739-1.241c-2.588-3.416-4.748-6.87-5.714-10.57-0.721.466-1.409,0.938-2.073,1.418a34.062,34.062,0,0,0,6.048,10.393h0Zm-2.323,1.784q0.813-.645,1.648-1.28a35.189,35.189,0,0,1-6.158-10.318c-0.646.486-1.269,0.979-1.876,1.48a37.877,37.877,0,0,0,6.386,10.118h0Zm-1.843,2.314q0.593-.9,1.195-1.795a38.971,38.971,0,0,1-6.46-10.032c-0.6.507-1.178,1.022-1.752,1.543,1.539,3.58,4.169,6.892,7.017,10.284h0Zm-1.822,2.331,1.186-1.8A47.578,47.578,0,0,1,145.6,183.5q-0.844.782-1.671,1.577c1.743,3.395,4.5,6.566,7.318,9.9h0Zm-1.85,2.362q0.615-.921,1.213-1.827c-2.661-3.167-5.308-6.16-7.08-9.324q-0.684,1.026-1.342,2.036c1.906,3.024,4.615,5.942,7.209,9.115h0Zm-1.188,3.411c0.324-.814.63-1.605,0.922-2.385-2.544-3.2-5.292-6.107-7.288-9.071q-0.646.993-1.276,1.961c2.195,2.989,5.137,6.015,7.642,9.5h0Zm-1.114,4.251c0.4-.925.769-1.8,1.122-2.649-2.345-3.607-5.31-6.692-7.63-9.649-0.2.9-.388,1.792-0.573,2.682,2.34,2.819,5.11,5.908,7.081,9.616h0Z"/>
  <path class="cls-3" d="M107.177,100.28a56.562,56.562,0,0,1,15.871-12.255S112.2,89.9,105.076,98.172c-7.385,8.57-11.067,23.307-11.067,23.307S99.465,109.2,107.177,100.28Zm16.263,1.325a29.218,29.218,0,0,0-11.888,8.028c-6.441,7.555-11.275,19.031-11.275,19.031a142.9,142.9,0,0,1,11.383-15.956A77.469,77.469,0,0,1,123.44,101.605Zm35.472,59.364c8.7-4.255,21.088-5.319,21.088-5.319s-10.181-3.473-20.129,1.41c-9.993,4.905-19.585,17.929-19.585,17.929A67.934,67.934,0,0,1,158.912,160.969Zm-8.49-41.544A37.179,37.179,0,0,1,154.3,114.6a6.5,6.5,0,0,1,4.072-1.981l-9.428-13.683s3.449,7.784,3.282,13.561A16.512,16.512,0,0,1,150.422,119.425Zm0,0c-1.245,1.793-2.114,3.243-2.114,3.243A15.872,15.872,0,0,0,150.422,119.425Zm7.142,11.585c1.84,4.286,11.229,6.336,11.229,6.336a36.421,36.421,0,0,1-6.174-9.265,31.488,31.488,0,0,1-2.141-10.272S155.275,125.68,157.564,131.01Z"/>
</svg>
