<svg xmlns="http://www.w3.org/2000/svg" width="191" height="205" viewBox="0 0 191 205">
  <metadata><?xpacket begin="﻿" id="W5M0MpCehiHzreSzNTczkc9d"?>
<x:xmpmeta xmlns:x="adobe:ns:meta/" x:xmptk="Adobe XMP Core 5.6-c138 79.159824, 2016/09/14-01:09:01        ">
   <rdf:RDF xmlns:rdf="http://www.w3.org/1999/02/22-rdf-syntax-ns#">
      <rdf:Description rdf:about=""/>
   </rdf:RDF>
</x:xmpmeta>
                                                                                                    
                                                                                                    
                                                                                                    
                                                                                                    
                                                                                                    
                                                                                                    
                                                                                                    
                                                                                                    
                                                                                                    
                                                                                                    
                                                                                                    
                                                                                                    
                                                                                                    
                                                                                                    
                                                                                                    
                                                                                                    
                                                                                                    
                                                                                                    
                                                                                                    
                                                                                                    
                           
<?xpacket end="w"?></metadata>
<defs>
    <style>
      .cls-1 {
        fill: #e3e3e3;
      }

      .cls-1, .cls-2, .cls-3 {
        fill-rule: evenodd;
      }

      .cls-2 {
        fill: #858585;
      }

      .cls-3 {
        fill: #959595;
      }
    </style>
  </defs>
  <path id="lower-arm" class="cls-1" d="M99,3.591L92,15.182l1,5.04S85.626,23.9,81,28.286a19.36,19.36,0,0,0-5,8.064L54,63.564a56.233,56.233,0,0,0-8,13.1c-1.461,3.488.311,7.594-2,11.087-4.4,6.658-11.557,9.692-16,14.111a26.317,26.317,0,0,0-6,10.079s1.056,9.218-1,13.1c-1.941,3.667-7,2.016-7,2.016l-14,13.1v14.111s2-.252,2,1.008-2,4.032-2,4.032v8.064l4,1.007L0,182s18.915-3.238,29,3c11.782,7.287,16,20,16,20l4-6.371V194.6h6l6-8.063v-5.04l6-3.024h3l3-4.032,1-5.039,2-1.009-2-3.023,4-5.04s2.1,3.485,4,4.032c1.57,0.452,3-2.016,3-2.016l6-1.008,6-4.032v-5.04c0.073,0.171,4.592-2.439,7.143-6.3A40.29,40.29,0,0,1,107,142.184h4l9-10.08,1-4.032,3-1.007,1-5.04,20-19.151,2-6.048,8-8.064V84.731s5.391-3.549,8-7.056a6.581,6.581,0,0,0,1-5.04,34.522,34.522,0,0,0,8-6.048,28.883,28.883,0,0,0,5-8.064s2.493-5.975,2-10.08a10,10,0,0,0-4-6.552,21.331,21.331,0,0,0,6-6.552c1.542-3,1-7.056,1-7.056a2.855,2.855,0,0,0,3-2.016c0.572-1.539,0-6.048,0-6.048,0.413,0.671,5.825,4.769,5.346.077A14.387,14.387,0,0,1,191,16.19S181.7,3.8,162,1.071c-25.133-3.48-62,2.52-62,2.52"/>
  <path class="cls-2" d="M48.032,205.939m0.228-6.721A57.839,57.839,0,0,1,45.37,204.5a21.146,21.146,0,0,1-1.967-2.277c0.046,0.015,1.691-3.208,2.99-5.776a25.809,25.809,0,0,1,2.965-4.334c0.542,0.934,1.093,1.844,1.66,2.717a37.544,37.544,0,0,0-2.758,4.386h0Zm-2.253-3.487c-1.227,2.682-2.747,6.08-2.793,6.062-0.665-.841-1.3-1.746-1.931-2.7,0.046,0,1.551-3.672,2.842-6.365a18.466,18.466,0,0,1,3.09-4.407c0.57,0.962,1.133,1.919,1.7,2.856a23.739,23.739,0,0,0-2.907,4.551h0Zm-2.382-3.79c-1.163,2.821-2.465,6.672-2.509,6.662-0.676-.938-1.34-1.92-2-2.925,0.044,0,1.31-4,2.5-6.767a14.259,14.259,0,0,1,3.052-4.42c0.645,0.92,1.269,1.857,1.88,2.794a17.552,17.552,0,0,0-2.923,4.656h0Zm-4.889,3.411c-0.691-.853-1.382-1.722-2.079-2.591,0.044-.007,1.027-4.382,1.939-7.394a13.587,13.587,0,0,1,2.576-4.863c0.739,0.714,1.448,1.456,2.13,2.217a16.365,16.365,0,0,0-2.575,5.179c-0.929,3.124-1.948,7.456-1.991,7.452h0Zm-2.391-3c-0.735-.792-1.477-1.582-2.232-2.356,0.044-.015.808-4.5,1.486-7.441a11.682,11.682,0,0,1,2.156-4.748q1.28,0.862,2.457,1.82a14.025,14.025,0,0,0-2.269,5.1c-0.75,3.13-1.558,7.622-1.6,7.626h0Zm-2.579-2.61c-0.771-.694-1.554-1.372-2.352-2.023,0.042-.021.571-4.512,0.962-7.383a11.285,11.285,0,0,1,1.517-4.615q1.414,0.655,2.732,1.409a12.914,12.914,0,0,0-1.731,4.957c-0.494,3.074-1.089,7.643-1.128,7.655h0Zm-2.47-2.19c-0.824-.6-1.664-1.17-2.523-1.7,0.039-.028.349-4.382,0.5-7.119a11.607,11.607,0,0,1,.975-4.4q1.538,0.494,2.99,1.088A12.2,12.2,0,0,0,32,180.114C31.728,183.046,31.336,187.535,31.3,187.554Zm-2.919-1.924c-0.848-.5-1.713-0.956-2.6-1.367,0.037-.034.2-4.167,0.171-6.752a13.951,13.951,0,0,1,.509-4.183q1.589,0.348,3.109.8a12.962,12.962,0,0,0-.794,4.4c-0.089,2.756-.36,7.073-0.4,7.1h0ZM25.4,184.117a25.227,25.227,0,0,0-2.757-1.031c0.031-.035.009-3.9-0.2-6.4a21.218,21.218,0,0,1,.078-4.065q1.662,0.224,3.275.549a15.575,15.575,0,0,0-.355,4.189c0.1,2.592-.009,6.724-0.045,6.758h0Zm-4.007-1.448a20.913,20.913,0,0,0-3.052-.738c0.027-.032-0.035-3.486-0.113-5.844a15.823,15.823,0,0,1,.375-3.911c1.2,0.109,2.4.252,3.574,0.434a11.816,11.816,0,0,0-.63,3.893c-0.017,2.385-.12,6.13-0.154,6.166h0Zm-4.544-.8a20.218,20.218,0,0,0-3.125-.273c0.016-.015.119-3.259,0.274-5.7a18.856,18.856,0,0,1,.734-4.078c1.185,0.083,2.373.188,3.551,0.322a12.6,12.6,0,0,0-.945,3.886c-0.213,2.355-.463,5.812-0.489,5.839h0Zm-4.667-.483a23.9,23.9,0,0,0-3.256.168c0,0.008.3-3.175,0.75-5.784a21.06,21.06,0,0,1,1.208-4.322c1.165,0.107,2.353.215,3.543,0.34a12.836,12.836,0,0,0-1.4,3.958c-0.461,2.4-.835,5.633-0.848,5.64h0ZM8.89,175.706c-0.65,2.643-1.193,5.956-1.192,5.942-1.095.124-2.2,0.314-3.308,0.552-0.018.031,0.589-3.441,1.284-6.416a39,39,0,0,1,1.447-4.849c1.082,0.168,2.222.311,3.386,0.449a17.392,17.392,0,0,0-1.618,4.322h0Zm-3.946-.048c-0.88,3.02-1.785,6.734-1.767,6.7-1.068.206-2.12,0.447-3.128,0.7-0.037.05,1.122-4.059,2.1-7.518,1.03-3.509,1.582-5.526,1.6-5.484a24.572,24.572,0,0,0,2.994.761,29.059,29.059,0,0,0-1.8,4.843h0Z"/>
  <path class="cls-3" d="M83.835,102A60.211,60.211,0,0,0,67.647,90s10.808,1.951,18.212,10C93.623,108.442,98,123,98,123S91.938,110.809,83.835,102Zm-16.188,1a31.353,31.353,0,0,1,12.141,8c6.77,7.527,12.141,19,12.141,19a154.059,154.059,0,0,0-12.141-16A82.64,82.64,0,0,0,67.647,103Zm-34.4,58C24.435,156.427,12,155,12,155a28.936,28.936,0,0,1,20.235,2c10.187,5.286,20.235,19,20.235,19A74.419,74.419,0,0,0,33.247,161Zm7.963-41.218A38.277,38.277,0,0,0,37.294,115a6.7,6.7,0,0,0-4.047-2l9.106-13s-3.281,7.413-3.035,13A16.273,16.273,0,0,0,41.21,119.782Zm0,0c1.266,1.779,2.154,3.218,2.154,3.218A16.36,16.36,0,0,1,41.21,119.782ZM34.259,131c-1.787,4.2-11.129,6-11.129,6a34.449,34.449,0,0,0,6.071-9,29.9,29.9,0,0,0,2.024-10S36.473,125.8,34.259,131Z"/>
</svg>
