<svg id="Leg" xmlns="http://www.w3.org/2000/svg" width="146" height="300" viewBox="0 0 146 300">
  <metadata><?xpacket begin="﻿" id="W5M0MpCehiHzreSzNTczkc9d"?>
<x:xmpmeta xmlns:x="adobe:ns:meta/" x:xmptk="Adobe XMP Core 5.6-c138 79.159824, 2016/09/14-01:09:01        ">
   <rdf:RDF xmlns:rdf="http://www.w3.org/1999/02/22-rdf-syntax-ns#">
      <rdf:Description rdf:about=""/>
   </rdf:RDF>
</x:xmpmeta>
                                                                                                    
                                                                                                    
                                                                                                    
                                                                                                    
                                                                                                    
                                                                                                    
                                                                                                    
                                                                                                    
                                                                                                    
                                                                                                    
                                                                                                    
                                                                                                    
                                                                                                    
                                                                                                    
                                                                                                    
                                                                                                    
                                                                                                    
                                                                                                    
                                                                                                    
                                                                                                    
                           
<?xpacket end="w"?></metadata>
<defs>
    <style>
      .cls-1 {
        fill: #e3e3e3;
      }

      .cls-1, .cls-2 {
        fill-rule: evenodd;
      }

      .cls-2 {
        fill: #858585;
      }
    </style>
  </defs>
  <path id="lower-leg" class="cls-1" d="M15.339,37l7.07-11.25S47.849,0,73.915,0c34.376,0,71.706,25.75,71.706,25.75s0.82,22.785,0,41.25a194.931,194.931,0,0,1-3.03,27s-0.45,13.79-2.019,24a151,151,0,0,1-5.05,22s0.546,19.122,0,34a163.191,163.191,0,0,1-2.02,21c0.39,0.156,10.021,28.148,1.5,48.31-4.293,10.151-14.84,16.631-20.684,22.69a22.119,22.119,0,0,0-6.06,11L108,290s-10.667,6.333-29,9-27-4-27-4l-3.334-18s-4.589-8.8-11.109-14c-6.312-5.033-14.466-6.336-20.2-14-7.7-10.293-9.089-26-9.089-26S-1.5,189.419.189,145c0.561-14.751,4.07-28.175,6.06-43,2.157-16.074,2.367-32.184,4.04-44A98.548,98.548,0,0,1,15.339,37Z"/>
  <path id="Shape_11_copy" data-name="Shape 11 copy" class="cls-2" d="M110.861,280.612m-0.967.462a53.44,53.44,0,0,1-.3,9.557,17.807,17.807,0,0,1-2.874,1.879,79.288,79.288,0,0,0-.376-10.158,54.394,54.394,0,0,0-.989-8.832q1.841-.691,3.763-1.523A45.6,45.6,0,0,1,109.894,281.074Zm-4.389,1.4a89.045,89.045,0,0,1,.817,10.1,21.726,21.726,0,0,1-3.334,1.45c0.063,0.209-.42-4.941-1.233-10.567-0.622-5.674-1.1-8.5-1.132-8.33q1.751-.568,3.575-1.3a49.953,49.953,0,0,1,1.307,8.643h0Zm-4.738,1.212c1.031,5.481,1.848,10.5,1.783,10.3a27.835,27.835,0,0,1-3.708,1.133c0.07,0.206-.953-5.054-1.935-10.622-0.843-5.669-.969-8.169-0.972-7.956q1.686-.4,3.409-0.972C99.362,275.383,99.9,278.059,100.767,283.685Zm-2.5,11.758a35.691,35.691,0,0,1-3.709,1.052c0.076,0.2-1.433-4.91-2.746-10.572a41.8,41.8,0,0,1-1.208-8.285q1.566-.234,3.1-0.593c-0.026-.246.384,2.266,1.734,8.015,1.44,5.549,2.9,10.588,2.829,10.383h0Zm-4.282,1.162q-1.886.552-3.83,0.923c0.078,0.184-1.644-4.8-2.987-10.424-1.32-5.8-1.117-9.065-1.057-8.844q1.615-.178,3.17-0.432a41,41,0,0,0,1.51,8.41C92.293,291.851,94.054,296.8,93.98,296.605Zm-4.368,1.112c-1.272.306-2.561,0.557-3.862,0.761,0.076,0.168-1.748-4.571-3.157-10.17-1.4-5.714-1.206-9.626-1.135-9.446q1.664-.183,3.265-0.4c-0.069-.216-0.078,3.316,1.462,9.036C87.751,293.126,89.685,297.892,89.611,297.717Zm-4.091.73c-1.3.26-2.623,0.471-3.948,0.642a93.319,93.319,0,0,1-3.136-9.887,33.8,33.8,0,0,1-1.152-9.805q1.729-.219,3.406-0.464a32.372,32.372,0,0,0,1.381,9.5A89.257,89.257,0,0,0,85.52,298.447Zm-4.548.736c-1.294.169-2.594,0.3-3.891,0.41,0.071,0.14-1.572-4.286-2.873-9.685a38.373,38.373,0,0,1-1.114-9.975q1.729-.2,3.426-0.428a35.717,35.717,0,0,0,1.271,9.846,93.521,93.521,0,0,0,3.181,9.832h0Zm-4.435.481c-1.3.107-2.6,0.191-3.878,0.264,0.068,0.128-1.428-4.237-2.672-9.572a43.93,43.93,0,0,1-1.115-10.015c1.17-.114,2.338-0.238,3.5-0.373a39.356,39.356,0,0,0,1.208,10.015c1.347,5.41,3.027,9.821,2.957,9.681h0Zm-5.571.278c-1.32-.017-2.615-0.042-3.868-0.069,0.069,0.1-1.049-4.485-1.9-9.613a43.876,43.876,0,0,1-.41-9.744c1.238,0,2.481-.011,3.723-0.036a39.919,39.919,0,0,0,.42,9.867c0.91,5.23,2.11,9.718,2.037,9.6h0Zm-5.574.06c-1.163-.12-2.282-0.245-3.346-0.372,0.069,0.062-.727-4.917-1.275-9.9a46.958,46.958,0,0,1,.079-9.555q1.791,0.181,3.606.343a43.294,43.294,0,0,0-.219,9.7C64.76,295.3,65.47,300.1,65.392,300h0Zm-4.881-.946c-1-.27-1.946-0.549-2.833-0.837,0.05,0-.794-5.176-1.135-9.838a43.082,43.082,0,0,1,.431-9.051q1.771,0.387,3.569.768a39.986,39.986,0,0,0-.774,9.141c0.214,4.758.806,9.852,0.742,9.817h0ZM55.79,288.005c0.169,4.53.956,9.744,0.913,9.758-0.843-.378-1.63-0.766-2.355-1.159,0.026-.042-1.117-5.127-1.516-9.587a43.426,43.426,0,0,1,.225-8.867q1.761,0.5,3.538,1.011a38.45,38.45,0,0,0-.806,8.844h0Zm-3.68-1.441a75.243,75.243,0,0,0,1.408,9.4c-0.691-.474-1.325-0.947-1.9-1.41,0,0-.4-1.21-0.871-2.912-0.237-.853-0.491-1.832-0.724-2.872-0.117-.52-0.229-1.055-0.331-1.6s-0.2-1.094-.277-1.646a46.016,46.016,0,0,1-.341-8.885q1.788,0.62,3.562,1.244A37.778,37.778,0,0,0,52.11,286.564Zm-23.09-86.809s-10.672,13.221-.077,28.265c11.572,16.431,19.489,22.422,19.617,21.048,0,0-13.174-15.642-17.861-27.471C25.63,208.807,29.019,199.755,29.019,199.755Zm39.822,69.007s5.688-7.181,4.337-25.313c-1.555-20.876-11.285-56.837-11.285-56.837S76.475,220.426,78,242C79.248,259.658,68.841,268.762,68.841,268.762Zm20.553-46.278c2.9-28.582,1.737-70.188,1.737-70.188s5.483,43.762,2.3,73.1c-2.657,24.489-12.8,39.124-12.8,39.124A196.283,196.283,0,0,0,89.394,222.484Zm21.531,5.126c3.093-18.935,1.067-41.432,1.067-41.432s4.885,22.944,1.6,42.5c-3.006,17.887-13.218,32.712-13.218,32.712A134.982,134.982,0,0,0,110.925,227.61Z"/>
</svg>
