<svg id="Leg" xmlns="http://www.w3.org/2000/svg" width="146" height="300" viewBox="0 0 146 300">
  <metadata><?xpacket begin="﻿" id="W5M0MpCehiHzreSzNTczkc9d"?>
<x:xmpmeta xmlns:x="adobe:ns:meta/" x:xmptk="Adobe XMP Core 5.6-c138 79.159824, 2016/09/14-01:09:01        ">
   <rdf:RDF xmlns:rdf="http://www.w3.org/1999/02/22-rdf-syntax-ns#">
      <rdf:Description rdf:about=""/>
   </rdf:RDF>
</x:xmpmeta>
                                                                                                    
                                                                                                    
                                                                                                    
                                                                                                    
                                                                                                    
                                                                                                    
                                                                                                    
                                                                                                    
                                                                                                    
                                                                                                    
                                                                                                    
                                                                                                    
                                                                                                    
                                                                                                    
                                                                                                    
                                                                                                    
                                                                                                    
                                                                                                    
                                                                                                    
                                                                                                    
                           
<?xpacket end="w"?></metadata>
<defs>
    <style>
      .cls-1 {
        fill: #e3e3e3;
      }

      .cls-1, .cls-2 {
        fill-rule: evenodd;
      }

      .cls-2 {
        fill: #858585;
      }
    </style>
  </defs>
  <path id="lower-leg" class="cls-1" d="M130.662,37l-7.07-11.25S98.151,0,72.085,0C37.709,0,.379,25.75.379,25.75S-0.441,48.535.379,67a195.048,195.048,0,0,0,3.03,27s0.451,13.79,2.02,24a150.942,150.942,0,0,0,5.05,22s-0.546,19.122,0,34a163.248,163.248,0,0,0,2.02,21c-0.391.156-10.021,28.148-1.5,48.31C15.3,253.461,25.844,259.941,31.687,266a22.117,22.117,0,0,1,6.06,11L38,290s10.667,6.333,29,9,27-4,27-4l3.334-18s4.59-8.8,11.109-14c6.312-5.033,14.465-6.336,20.2-14,7.7-10.293,9.089-26,9.089-26s9.768-33.581,8.08-78c-0.561-14.751-4.071-28.175-6.06-43-2.157-16.074-2.367-32.184-4.04-44A98.571,98.571,0,0,0,130.662,37Z"/>
  <path id="Shape_11_copy" data-name="Shape 11 copy" class="cls-2" d="M35.139,280.612m0.967,0.462a53.544,53.544,0,0,0,.3,9.557,17.824,17.824,0,0,0,2.874,1.879,79.237,79.237,0,0,1,.376-10.158,54.209,54.209,0,0,1,.989-8.832q-1.841-.691-3.763-1.523A45.513,45.513,0,0,0,36.106,281.074Zm4.389,1.4a89.222,89.222,0,0,0-.817,10.1,21.7,21.7,0,0,0,3.334,1.45c-0.063.209,0.42-4.941,1.233-10.567,0.622-5.674,1.1-8.5,1.132-8.33q-1.75-.568-3.575-1.3a49.9,49.9,0,0,0-1.307,8.643h0Zm4.737,1.212c-1.031,5.481-1.848,10.5-1.782,10.3a27.8,27.8,0,0,0,3.707,1.133c-0.07.206,0.953-5.054,1.935-10.622,0.843-5.669.969-8.169,0.972-7.956q-1.686-.4-3.409-0.972C46.639,275.383,46.1,278.059,45.233,283.685Zm2.505,11.758a35.691,35.691,0,0,0,3.709,1.052c-0.076.2,1.433-4.91,2.746-10.572a41.8,41.8,0,0,0,1.208-8.285q-1.566-.234-3.1-0.593c0.026-.246-0.384,2.266-1.734,8.015-1.44,5.549-2.9,10.588-2.829,10.383h0Zm4.283,1.162q1.886,0.552,3.83.923c-0.078.184,1.644-4.8,2.987-10.424,1.321-5.8,1.117-9.065,1.057-8.844q-1.615-.178-3.17-0.432a41,41,0,0,1-1.51,8.41C53.707,291.851,51.946,296.8,52.02,296.605Zm4.368,1.112c1.272,0.306,2.561.557,3.862,0.761-0.076.168,1.748-4.571,3.157-10.17,1.4-5.714,1.206-9.626,1.136-9.446q-1.664-.183-3.265-0.4c0.07-.216.079,3.316-1.462,9.036C58.25,293.126,56.315,297.892,56.389,297.717Zm4.091,0.73c1.3,0.26,2.623.471,3.948,0.642a93.319,93.319,0,0,0,3.136-9.887,33.8,33.8,0,0,0,1.152-9.805q-1.729-.219-3.406-0.464a32.372,32.372,0,0,1-1.381,9.5A89.257,89.257,0,0,1,60.48,298.447Zm4.548,0.736c1.294,0.169,2.594.3,3.891,0.41-0.071.14,1.572-4.286,2.873-9.685a38.373,38.373,0,0,0,1.114-9.975q-1.729-.2-3.426-0.428a35.717,35.717,0,0,1-1.271,9.846,93.521,93.521,0,0,1-3.181,9.832h0Zm4.435,0.481c1.3,0.107,2.6.191,3.878,0.264-0.068.128,1.428-4.237,2.672-9.572a43.93,43.93,0,0,0,1.115-10.015c-1.17-.114-2.338-0.238-3.5-0.373a39.356,39.356,0,0,1-1.208,10.015c-1.347,5.41-3.027,9.821-2.957,9.681h0Zm5.571,0.278c1.32-.017,2.615-0.042,3.868-0.069-0.069.1,1.049-4.485,1.9-9.613a43.876,43.876,0,0,0,.41-9.744c-1.238,0-2.481-.011-3.723-0.036a39.919,39.919,0,0,1-.42,9.867c-0.91,5.23-2.11,9.718-2.037,9.6h0ZM80.608,300c1.163-.12,2.282-0.245,3.346-0.372-0.069.062,0.727-4.917,1.275-9.9a46.958,46.958,0,0,0-.079-9.555q-1.791.181-3.606,0.343a43.294,43.294,0,0,1,.219,9.7C81.24,295.3,80.53,300.1,80.608,300h0Zm4.88-.946c1-.27,1.946-0.549,2.833-0.837-0.05,0,.794-5.176,1.135-9.838a43.082,43.082,0,0,0-.431-9.051q-1.771.387-3.569,0.768a39.986,39.986,0,0,1,.774,9.141c-0.214,4.758-.806,9.852-0.743,9.817h0Zm4.722-11.051c-0.169,4.53-.956,9.744-0.913,9.758,0.843-.378,1.63-0.766,2.355-1.159-0.026-.042,1.117-5.127,1.516-9.587a43.426,43.426,0,0,0-.225-8.867q-1.761.5-3.538,1.011a38.45,38.45,0,0,1,.806,8.844h0Zm3.68-1.441a75.243,75.243,0,0,1-1.408,9.4c0.691-.474,1.325-0.947,1.9-1.41,0,0,.4-1.21.871-2.912,0.237-.853.491-1.832,0.724-2.872,0.117-.52.229-1.055,0.332-1.6s0.2-1.094.276-1.646a46.016,46.016,0,0,0,.341-8.885q-1.788.62-3.562,1.244A37.778,37.778,0,0,1,93.891,286.564Zm23.09-86.809s10.672,13.221.077,28.265c-11.572,16.431-19.489,22.422-19.616,21.048,0,0,13.174-15.642,17.861-27.471C120.37,208.807,116.981,199.755,116.981,199.755ZM77.159,268.762s-5.688-7.181-4.337-25.313c1.555-20.876,11.285-56.837,11.285-56.837S69.525,220.426,68,242C66.752,259.658,77.159,268.762,77.159,268.762ZM56.606,222.484c-2.9-28.582-1.737-70.188-1.737-70.188s-5.483,43.762-2.3,73.1c2.657,24.489,12.8,39.124,12.8,39.124A196.283,196.283,0,0,1,56.606,222.484ZM35.075,227.61c-3.093-18.935-1.067-41.432-1.067-41.432s-4.886,22.944-1.6,42.5c3.006,17.887,13.218,32.712,13.218,32.712A135,135,0,0,1,35.075,227.61Z"/>
</svg>
