<svg id="Lower_arm_left" data-name="Lower arm left" xmlns="http://www.w3.org/2000/svg" width="191" height="205" viewBox="0 0 191 205">
  <metadata><?xpacket begin="﻿" id="W5M0MpCehiHzreSzNTczkc9d"?>
<x:xmpmeta xmlns:x="adobe:ns:meta/" x:xmptk="Adobe XMP Core 5.6-c138 79.159824, 2016/09/14-01:09:01        ">
   <rdf:RDF xmlns:rdf="http://www.w3.org/1999/02/22-rdf-syntax-ns#">
      <rdf:Description rdf:about=""/>
   </rdf:RDF>
</x:xmpmeta>
                                                                                                    
                                                                                                    
                                                                                                    
                                                                                                    
                                                                                                    
                                                                                                    
                                                                                                    
                                                                                                    
                                                                                                    
                                                                                                    
                                                                                                    
                                                                                                    
                                                                                                    
                                                                                                    
                                                                                                    
                                                                                                    
                                                                                                    
                                                                                                    
                                                                                                    
                                                                                                    
                           
<?xpacket end="w"?></metadata>
<defs>
    <style>
      .cls-1 {
        fill: #e3e3e3;
      }

      .cls-1, .cls-2, .cls-3 {
        fill-rule: evenodd;
      }

      .cls-2 {
        fill: #363636;
      }

      .cls-3 {
        fill: #858585;
      }
    </style>
  </defs>
  <path id="lower-arm" class="cls-1" d="M99,3.591L92,15.182l1,5.04S85.626,23.9,81,28.286a19.36,19.36,0,0,0-5,8.064L54,63.564a56.233,56.233,0,0,0-8,13.1c-1.461,3.488.311,7.594-2,11.087-4.4,6.658-11.557,9.692-16,14.111a26.317,26.317,0,0,0-6,10.079s1.056,9.218-1,13.1c-1.941,3.667-7,2.016-7,2.016l-14,13.1v14.111s2-.252,2,1.008-2,4.032-2,4.032v8.064l4,1.007L0,182s17.915-4.238,28,2c11.782,7.287,16,21,16,21l5-6.371V194.6h6l6-8.063v-5.04l6-3.024h3l3-4.032,1-5.039,2-1.009-2-3.023,4-5.04s2.1,3.485,4,4.032c1.57,0.452,3-2.016,3-2.016l6-1.008,6-4.032v-5.04c0.073,0.171,4.592-2.439,7.143-6.3A40.29,40.29,0,0,1,107,142.184h4l9-10.08,1-4.032,3-1.007,1-5.04,20-19.151,2-6.048,8-8.064V84.731s5.391-3.549,8-7.056a6.581,6.581,0,0,0,1-5.04,34.522,34.522,0,0,0,8-6.048,28.883,28.883,0,0,0,5-8.064s2.493-5.975,2-10.08a10,10,0,0,0-4-6.552,21.331,21.331,0,0,0,6-6.552c1.542-3,1-7.056,1-7.056a2.855,2.855,0,0,0,3-2.016c0.572-1.539,0-6.048,0-6.048,0.413,0.671,5.825,4.769,5.346.077A14.387,14.387,0,0,1,191,16.19S181.7,3.8,162,1.071c-25.133-3.48-62,2.52-62,2.52"/>
  <path class="cls-2" d="M6.659,171.087a28.585,28.585,0,0,1-2.823,9.969c-1.2.474-2.4,0.949-3.583,1.437A39.632,39.632,0,0,0,3.5,172.584q1.643-.744,3.162-1.5h0Zm2.434,9.566q-1.823.088-3.694,0.189a25.369,25.369,0,0,0,2.743-11.171Q9.919,169.34,11.6,169a22.017,22.017,0,0,1-2.506,11.654h0Zm4.526-.288q-1.608-.187-3.284-0.356c1.837-3.674,3.15-6.832,2.609-11.159,1.15,0.181,2.288.352,3.414,0.521,0.54,4.238-.816,7.322-2.74,10.994h0Zm4.521,0.283q-1.511-.218-3.1-0.412c1.933-3.7,3.255-6.79,2.608-11.025q1.674,0.253,3.31.513c0.6,4.2-.8,7.213-2.821,10.924h0Zm3.922,0.926q-1.394-.263-2.864-0.5c2.1-3.711,3.585-6.7,3.1-10.9q1.65,0.57,3.218,1.163c0.18,3.965-1.353,6.693-3.448,10.234h0Zm3.618,0.989q-1.285-.292-2.645-0.564c2.263-3.712,3.935-6.6,3.686-10.776q1.549,0.607,2.992,1.241c-0.085,3.928-1.788,6.571-4.033,10.1h0Zm2.959,2.6q-1-.582-2.08-1.147c2.3-3.517,4.075-7.135,4.289-11.037q1.394,0.643,2.67,1.309c-0.518,3.832-2.453,7.39-4.878,10.875h0Zm2.672,1.665q-0.912-.606-1.882-1.2c2.468-3.471,4.46-7.006,5.09-10.809q1.229,0.672,2.347,1.364c-0.88,3.73-3,7.208-5.555,10.641h0Zm2.46,1.728q-0.85-.627-1.739-1.24c2.588-3.417,4.748-6.871,5.714-10.573,0.721,0.466,1.409.939,2.073,1.419a34.077,34.077,0,0,1-6.048,10.394h0Zm2.323,1.785q-0.813-.646-1.648-1.28a35.2,35.2,0,0,0,6.159-10.32c0.645,0.486,1.268.979,1.876,1.48a37.884,37.884,0,0,1-6.386,10.12h0Zm1.843,2.314q-0.593-.9-1.2-1.8a38.95,38.95,0,0,0,6.46-10.034q0.894,0.762,1.752,1.544c-1.539,3.581-4.169,6.892-7.017,10.285h0Zm1.822,2.332q-0.6-.9-1.186-1.805A47.6,47.6,0,0,0,45.4,183.5q0.845,0.781,1.672,1.577c-1.743,3.4-4.5,6.566-7.319,9.906h0Zm1.85,2.361q-0.615-.919-1.212-1.826c2.661-3.168,5.308-6.162,7.08-9.326q0.684,1.028,1.342,2.036c-1.906,3.025-4.615,5.943-7.209,9.116h0Zm1.189,3.413c-0.324-.815-0.63-1.606-0.922-2.386,2.544-3.2,5.291-6.108,7.288-9.072q0.646,0.993,1.276,1.961c-2.2,2.989-5.137,6.016-7.642,9.5h0Zm1.114,4.251c-0.395-.925-0.769-1.8-1.122-2.65,2.345-3.607,5.31-6.693,7.63-9.65,0.2,0.9.388,1.793,0.573,2.683-2.34,2.819-5.11,5.908-7.081,9.617h0Z"/>
  <path class="cls-3" d="M83.823,100.264A56.564,56.564,0,0,0,67.952,88.007S78.8,89.886,85.924,98.155c7.385,8.572,11.067,23.312,11.067,23.312S91.535,109.187,83.823,100.264ZM67.56,101.59a29.2,29.2,0,0,1,11.888,8.029c6.441,7.555,11.275,19.033,11.275,19.033A142.844,142.844,0,0,0,79.34,112.694,77.438,77.438,0,0,0,67.56,101.59ZM32.088,160.962c-8.7-4.255-21.088-5.32-21.088-5.32s10.181-3.473,20.129,1.41c9.992,4.906,19.585,17.932,19.585,17.932A67.941,67.941,0,0,0,32.088,160.962Zm8.49-41.55a37.24,37.24,0,0,0-3.881-4.83,6.5,6.5,0,0,0-4.072-1.981l9.427-13.686S38.6,106.7,38.771,112.479A16.519,16.519,0,0,0,40.578,119.412Zm0,0c1.245,1.793,2.114,3.244,2.114,3.244A15.9,15.9,0,0,1,40.578,119.412ZM33.436,131c-1.84,4.286-11.23,6.337-11.23,6.337a36.453,36.453,0,0,0,6.175-9.266,31.5,31.5,0,0,0,2.14-10.274S35.725,125.667,33.436,131Z"/>
</svg>
