<svg id="head" xmlns="http://www.w3.org/2000/svg" width="211" height="160" viewBox="0 0 211 160">
  <metadata><?xpacket begin="﻿" id="W5M0MpCehiHzreSzNTczkc9d"?>
<x:xmpmeta xmlns:x="adobe:ns:meta/" x:xmptk="Adobe XMP Core 5.6-c138 79.159824, 2016/09/14-01:09:01        ">
   <rdf:RDF xmlns:rdf="http://www.w3.org/1999/02/22-rdf-syntax-ns#">
      <rdf:Description rdf:about=""/>
   </rdf:RDF>
</x:xmpmeta>
                                                                                                    
                                                                                                    
                                                                                                    
                                                                                                    
                                                                                                    
                                                                                                    
                                                                                                    
                                                                                                    
                                                                                                    
                                                                                                    
                                                                                                    
                                                                                                    
                                                                                                    
                                                                                                    
                                                                                                    
                                                                                                    
                                                                                                    
                                                                                                    
                                                                                                    
                                                                                                    
                           
<?xpacket end="w"?></metadata>
<defs>
    <style>
      .cls-1 {
        fill: #ff9e40;
      }

      .cls-1, .cls-2, .cls-3, .cls-4, .cls-5, .cls-6, .cls-7, .cls-8 {
        fill-rule: evenodd;
      }

      .cls-2, .cls-4 {
        fill: #fff;
      }

      .cls-2 {
        opacity: 0.5;
      }

      .cls-3 {
        opacity: 0.68;
      }

      .cls-4 {
        opacity: 0.85;
      }

      .cls-5 {
        fill: #e3e3e3;
      }

      .cls-6 {
        fill: #363636;
      }

      .cls-7 {
        fill: silver;
      }

      .cls-8 {
        fill: #858585;
      }
    </style>
  </defs>
  <path id="shield" class="cls-1" d="M104.708,0C233.923,0,209.074,144.4,209.074,144.4S156.054,160,103.714,160C52.7,160,2.329,144.4,2.329,144.4S-24.507,0,104.708,0Z"/>
  <path class="cls-2" d="M26,37s5.324,10.859,13,19A54.139,54.139,0,0,0,59,69l1,84s-19.664-2.454-34-6.454S5.034,141.19,5,141c0,0-3.548-29.8,2-55A168.508,168.508,0,0,1,26,37Z"/>
  <path class="cls-3" d="M104.55,8C198.772,8,200,78,200,78s-4.8-61-95.45-61S9,79,9,79,10.852,8,104.55,8Z"/>
  <path class="cls-4" d="M120,43.737a61.119,61.119,0,0,1,11.7-4.985,77.288,77.288,0,0,1,14.879-2.74c2.229,0,3.123,3.778,5.185,9.387a114.361,114.361,0,0,1,4.222,16.2,31.6,31.6,0,0,1-9.238,3.739A86.31,86.31,0,0,1,132.54,67a33.354,33.354,0,0,0-4.814-12.757A125.241,125.241,0,0,0,120,43.737Z"/>
  <path id="upper-leg_copy" data-name="upper-leg copy" class="cls-5" d="M236.946,670.38s-34.526-44.248-65.977-40.1c-34.852,4.6-66.978,57.641-66.978,57.641S78,728.4,78,772.63c0,45.23,25.991,94.231,25.991,94.231s11.767,13.757,13,40.1c0.3,6.53-4.247,8.759-5,16.039-1.08,10.465,1.38,26.255,1,37.091-1.411,40.231-1,78.191-1,78.191s1.413,0.49,2,9.02c0.346,5.03,1,11.03,1,11.03s40.311,22.69,70.976,18.04c28.753-4.36,46.985-27.06,46.985-27.06s5.716-4.73,10-9.02c4.7-4.71,10-14.04,10-14.04l4-19.05s-1-9.314-1-16.035a27.3,27.3,0,0,1,1-8.02s3-9.954,3-19.046a49.406,49.406,0,0,0-3-16.04s3-11.659,3-22.054a44.853,44.853,0,0,0-3-15.036l1-14.035,2-2V868.866s4.272-20.506,4-38.094a81.971,81.971,0,0,0-5-26.063,130.012,130.012,0,0,0,2-23.057,71.088,71.088,0,0,0-3-18.044A40.08,40.08,0,0,1,252.5,750.4c-2.086-8.855-3.2-22.767-5.559-34.911-1.054-5.422-3.925-10.049-5-15.036-0.865-4.02-.374-9.522-1-13.032-0.54-3.027-3.488-3.256-3-7.018A20.437,20.437,0,0,0,236.946,670.38Z"/>
  <path class="cls-6" d="M254.666,992.281c0.036-11.144.88-23.281,0.46-31.634,1.532-1.7,3.049-3.3,4.583-4.838,0.562,7.2.051,18.284-.269,29.475-1.6,2.3-3.193,4.64-4.774,7h0ZM246.8,963.92c2-.714,3.99-1.4,5.969-2.086,0.453,9.605-.784,23.992-0.406,35.983-1.953,1.725-3.91,3.463-5.867,5.183-0.88-12.153.691-28.3,0.3-39.08h0Zm-8.6.149q3.1-.307,6.146-0.593c0.483,11.217-1.327,28.668-.23,41.234-2.063.51-4.151,1.04-6.264,1.56-1.146-12.607.781-30.609,0.348-42.2h0Zm-8.793,1.891q3.2-.389,6.325-0.726c0.28,12.133-1.666,30.417-.327,42.746q-3.2.81-6.472,1.6c-1.384-12.256.618-30.969,0.474-43.62h0Zm-9.109.236q3.3-.417,6.528-0.766c0.185,12.633-1.887,31.6-.595,44.07q-3.388-.105-6.837-0.23c-1.008-12.31.929-30.488,0.9-43.074h0Zm-9.409.521q3.42-.51,6.752-0.937c0.03,13.23-2.119,32.736-.869,45.22q-3.486-.12-7.029-0.26C208.764,998.481,210.745,979.9,210.89,966.717Zm-9.7-1.257q3.52,0.417,6.962.881c-0.138,13.2-2.151,31.887-1.249,44.279q-3.566-.165-7.189-0.34c-0.722-12.686,1.351-31.59,1.476-44.82h0Zm-10.017-1.073q3.636,0.347,7.188.746c-0.122,13.242-2.211,32.207-1.555,45.007q-3.646-.18-7.351-0.39c-0.5-13.039,1.6-32.09,1.718-45.363h0Zm-10.342-.852q3.753,0.261,7.421.585c-0.117,13.285-2.221,32.344-1.77,45.47q-3.729-.2-7.516-0.42c-0.331-13.312,1.747-32.319,1.865-45.635h0Zm-10.682-.593q3.878,0.162,7.665.4c-0.119,13.327-2.177,32.284-1.888,45.662-2.542-.14-5.1-0.29-7.685-0.43-0.2-13.517,1.785-32.272,1.908-45.628h0Zm-11.032-2.267q4.011,1.017,7.915,2.15c-0.123,13.368-2.066,32.009-1.9,45.565q-3.9-.21-7.856-0.42C157.166,993.633,159.172,974.2,159.114,960.675Zm-11.423-1.886q4.155,0.874,8.2,1.858c0.049,12.912-1.705,30.971-1.8,45.063q-3.983-.21-8.028-0.4c0.118-14.8,1.83-33.369,1.621-46.521h0Zm-11.821-1.515q4.3,0.745,8.492,1.583c0.183,12.594-1.269,29.777-1.512,44.163-2.7-.84-5.426-1.68-8.172-2.5,0.306-14.48,1.467-30.841,1.192-43.246h0Zm-12.311-4.918c2.967,1.084,5.915,2.143,8.826,3.229,0.374,12.172-.634,28.1-0.985,42.646q-4.149-1.209-8.383-2.343c0.3-15.032.991-30.766,0.542-43.532h0Zm-12.511-7.349c2.932,1.425,5.9,2.668,8.865,3.831,0.513,12.693.041,27.829-.239,42.756-2.835-2.05-5.722-4.009-8.678-5.841,0.057-13.681.117-27.213,0.052-40.746h0Z"/>
  <path id="pocket" class="cls-7" d="M154.974,745c2.079-3.189,45.751-7.491,71.976-6,21.068,1.2,25.991,8,25.991,8s7.228,14.758,8,24c2.69,32.284,4.249,93.25,2,96s-14.79,13.579-29.99,15c-31.676,2.961-73.226-.25-76.974-5S151.225,750.75,154.974,745Z"/>
  <path class="cls-8" d="M158.263,798.759c0.626,14,4.708,54.241,4.708,54.241s0.8-34.3,2-52c1-14.742,9-21,9-21s-3.169.214-7-7a36.425,36.425,0,0,1-4-18C162.945,754.955,157.626,784.52,158.263,798.759ZM229.949,788c10.664,0.276,26.991-3,26.991-3s-14.864,5.969-26.991,6c-16.274.041-30.643-5.964-35.927-8.023C198.669,784.162,218.639,787.707,229.949,788Zm-49.983,26s1.566-5.094,3.195-10.964a22.1,22.1,0,0,1,5.8-10.036s-5.687,3.663-7.363,10.032A51.25,51.25,0,0,0,179.966,814Zm11.269-3.48a27.77,27.77,0,0,1-1.992-7.1c-0.55-4.046,1.719-9.424,1.719-9.424s-3.983,5.224-3.363,9.417C188.154,807.175,191.235,810.52,191.235,810.52Z"/>
</svg>
