<svg xmlns="http://www.w3.org/2000/svg" width="300" height="300" viewBox="0 0 500 500">
  <metadata><?xpacket begin="﻿" id="W5M0MpCehiHzreSzNTczkc9d"?>
<x:xmpmeta xmlns:x="adobe:ns:meta/" x:xmptk="Adobe XMP Core 5.6-c138 79.159824, 2016/09/14-01:09:01        ">
   <rdf:RDF xmlns:rdf="http://www.w3.org/1999/02/22-rdf-syntax-ns#">
      <rdf:Description rdf:about=""/>
   </rdf:RDF>
</x:xmpmeta>
                                                                                                    
                                                                                                    
                                                                                                    
                                                                                                    
                                                                                                    
                                                                                                    
                                                                                                    
                                                                                                    
                                                                                                    
                                                                                                    
                                                                                                    
                                                                                                    
                                                                                                    
                                                                                                    
                                                                                                    
                                                                                                    
                                                                                                    
                                                                                                    
                                                                                                    
                                                                                                    
                           
<?xpacket end="w"?></metadata>
<defs>
    <style>
      .cls-1 {
        fill: #fff;
        fill-rule: evenodd;
      }
    </style>
  </defs>
  <path class="cls-1" d="M333.389,286.167s-20.722-20.834-41.445,0,0,41.666,0,41.666L250.5,432,209.056,327.833s20.722-20.833,0-41.666-41.445,0-41.445,0L64,244.5l103.611-41.667s20.722,20.834,41.445,0,0-41.666,0-41.666L250.5,57l41.444,104.167s-20.722,20.833,0,41.666,41.445,0,41.445,0L437,244.5Zm10.361-55.73v-9.375L437,244.5ZM264.488,338.25h9.325L250.5,432Zm-37.3-187.5L250.5,57l-13.988,93.75h-9.325ZM157.25,258.563v9.375L64,244.5Zm93.25-34.9A20.833,20.833,0,1,1,229.778,244.5,20.777,20.777,0,0,1,250.5,223.667Z"/>
</svg>
