<svg xmlns="http://www.w3.org/2000/svg" width="300" height="300" viewBox="0 0 500 500">
  <metadata><?xpacket begin="﻿" id="W5M0MpCehiHzreSzNTczkc9d"?>
<x:xmpmeta xmlns:x="adobe:ns:meta/" x:xmptk="Adobe XMP Core 5.6-c138 79.159824, 2016/09/14-01:09:01        ">
   <rdf:RDF xmlns:rdf="http://www.w3.org/1999/02/22-rdf-syntax-ns#">
      <rdf:Description rdf:about=""/>
   </rdf:RDF>
</x:xmpmeta>
                                                                                                    
                                                                                                    
                                                                                                    
                                                                                                    
                                                                                                    
                                                                                                    
                                                                                                    
                                                                                                    
                                                                                                    
                                                                                                    
                                                                                                    
                                                                                                    
                                                                                                    
                                                                                                    
                                                                                                    
                                                                                                    
                                                                                                    
                                                                                                    
                                                                                                    
                                                                                                    
                           
<?xpacket end="w"?></metadata>
<defs>
    <style>
      .cls-1 {
        fill: #fff;
        fill-rule: evenodd;
      }
    </style>
  </defs>
  <path id="star" class="cls-1" d="M327.333,288.667s-19.333-19.334-38.666,0,0,38.666,0,38.666L250,424l-38.667-96.667s19.334-19.333,0-38.666-38.666,0-38.666,0L76,250l96.667-38.667s19.333,19.334,38.666,0,0-38.666,0-38.666L250,76l38.667,96.667s-19.334,19.333,0,38.666,38.666,0,38.666,0L424,250ZM337,236.95v-8.7L424,250ZM263.05,337h8.7L250,424Zm-34.8-174L250,76l-13.05,87h-8.7ZM163,263.05v8.7L76,250Zm87-32.386A19.336,19.336,0,1,1,230.664,250,19.336,19.336,0,0,1,250,230.664Z"/>
</svg>
