<svg xmlns="http://www.w3.org/2000/svg" width="800" height="800" viewBox="0 0 800 800">
  <metadata><?xpacket begin="﻿" id="W5M0MpCehiHzreSzNTczkc9d"?>
<x:xmpmeta xmlns:x="adobe:ns:meta/" x:xmptk="Adobe XMP Core 5.6-c138 79.159824, 2016/09/14-01:09:01        ">
   <rdf:RDF xmlns:rdf="http://www.w3.org/1999/02/22-rdf-syntax-ns#">
      <rdf:Description rdf:about=""/>
   </rdf:RDF>
</x:xmpmeta>
                                                                                                    
                                                                                                    
                                                                                                    
                                                                                                    
                                                                                                    
                                                                                                    
                                                                                                    
                                                                                                    
                                                                                                    
                                                                                                    
                                                                                                    
                                                                                                    
                                                                                                    
                                                                                                    
                                                                                                    
                                                                                                    
                                                                                                    
                                                                                                    
                                                                                                    
                                                                                                    
                           
<?xpacket end="w"?></metadata>
<defs>
    <style>
      .cls-1 {
        fill: #00ba00;
        fill-rule: evenodd;
      }
    </style>
  </defs>
  <path class="cls-1" d="M448,247.746s-37.593-56.847-3.1-93.019c51.96-54.49,204.875-53.391,164.349,6.2-13.5,19.858-57.949,41.43-86.826,62.013-62.833,44.786-60.17,50.3-52.715,86.818,5.675,27.8,21.706,67.975,21.706,114.724,0,44.764-14.413,93.418-18.606,136.429-6.241,64.032-3.1,114.724-3.1,114.724s-4.128,8.562-9.3,9.3c-5.657.808-12.4-6.2-12.4-6.2s-6.534-62.057-3.1-130.227c2.5-49.641,16.257-100.6,12.4-142.63-7.8-85.12-43.413-99.22-43.413-99.22s-61.1,45.232-117.835,62.013c-101.122,29.906-145.507-2.712-80.624-58.913,75.916-65.757,186.055-21.7,186.055-21.7s-46.514-18.6-99.229-52.711,21.706-56.845,68.22-52.711S448,247.746,448,247.746Z"/>
</svg>
