<svg xmlns="http://www.w3.org/2000/svg" width="800" height="800" viewBox="0 0 800 800">
  <metadata><?xpacket begin="﻿" id="W5M0MpCehiHzreSzNTczkc9d"?>
<x:xmpmeta xmlns:x="adobe:ns:meta/" x:xmptk="Adobe XMP Core 5.6-c138 79.159824, 2016/09/14-01:09:01        ">
   <rdf:RDF xmlns:rdf="http://www.w3.org/1999/02/22-rdf-syntax-ns#">
      <rdf:Description rdf:about=""/>
   </rdf:RDF>
</x:xmpmeta>
                                                                                                    
                                                                                                    
                                                                                                    
                                                                                                    
                                                                                                    
                                                                                                    
                                                                                                    
                                                                                                    
                                                                                                    
                                                                                                    
                                                                                                    
                                                                                                    
                                                                                                    
                                                                                                    
                                                                                                    
                                                                                                    
                                                                                                    
                                                                                                    
                                                                                                    
                                                                                                    
                           
<?xpacket end="w"?></metadata>
<defs>
    <style>
      .cls-1 {
        fill: #00ba00;
        fill-rule: evenodd;
      }
    </style>
  </defs>
  <path class="cls-1" d="M430.216,213.333S413.027,106.524,456.643,55.757c65.7-76.477,259.065-74.935,207.819,8.7-17.076,27.87-73.276,58.147-109.791,87.035-79.452,62.858-76.086,70.6-66.659,121.85,7.176,39.018,27.448,95.4,27.448,161.016,0,62.827-18.225,131.113-23.527,191.479-7.893,89.87-3.921,161.016-3.921,161.016s-5.22,12.018-11.764,13.055c-7.153,1.134-15.684-8.7-15.684-8.7s-8.263-87.1-3.921-182.775c3.161-69.671,20.557-141.19,15.684-200.182C462.46,288.784,417.432,269,417.432,269s-77.258,63.484-149,87.035c-127.869,41.975-183.994-3.8-101.949-82.684C318.342,127.345,430.216,213.333,430.216,213.333Z"/>
</svg>
