<svg xmlns="http://www.w3.org/2000/svg" width="800" height="800" viewBox="0 0 800 800">
  <metadata><?xpacket begin="﻿" id="W5M0MpCehiHzreSzNTczkc9d"?>
<x:xmpmeta xmlns:x="adobe:ns:meta/" x:xmptk="Adobe XMP Core 5.6-c138 79.159824, 2016/09/14-01:09:01        ">
   <rdf:RDF xmlns:rdf="http://www.w3.org/1999/02/22-rdf-syntax-ns#">
      <rdf:Description rdf:about=""/>
   </rdf:RDF>
</x:xmpmeta>
                                                                                                    
                                                                                                    
                                                                                                    
                                                                                                    
                                                                                                    
                                                                                                    
                                                                                                    
                                                                                                    
                                                                                                    
                                                                                                    
                                                                                                    
                                                                                                    
                                                                                                    
                                                                                                    
                                                                                                    
                                                                                                    
                                                                                                    
                                                                                                    
                                                                                                    
                                                                                                    
                           
<?xpacket end="w"?></metadata>
<defs>
    <style>
      .cls-1 {
        fill: #cc1717;
      }

      .cls-1, .cls-2, .cls-3 {
        fill-rule: evenodd;
      }

      .cls-2 {
        fill: #fff;
      }

      .cls-3 {
        fill: #703e0e;
      }
    </style>
  </defs>
  <path class="cls-1" d="M391.484,206.548s-118.51-123.94-247.276,5.309C-70.683,427.551,202.622,617.772,306.855,640.569c111.558,24.4,338.088-12.782,398.022-91.583,81.857-107.623-23.8-272.093-23.8-272.093s-38.281-31.242-91.241-34.509c-33.8-2.085-70.291-8.445-99.175-2.654-12.742,2.554-28.859,24.246-43.637,25.218C426.413,266.3,391.484,206.548,391.484,206.548Z"/>
  <path class="cls-2" d="M554.126,297.227c-24.125-13.39-56.282-15.983-56.282-15.983a139.61,139.61,0,0,1,55.147,5.1c29.7,8.926,36.833,45.952,36.833,45.952S575.867,309.293,554.126,297.227Zm-82.488,60.94c-6.756-34.486-28.53-57.115-28.53-57.115s28.355,11.214,34.844,44.33c7.79,39.762-6.046,102.647-6.046,102.647S479.231,396.92,471.638,358.167Zm-128.3-64.93c-28.541,13.987-62.006,34.691-62.006,34.691s33.4-25.513,56.067-41.965c18.77-13.627,51.908-1.527,51.908-1.527A90.568,90.568,0,0,0,343.34,293.237Z"/>
  <path class="cls-3" d="M442.932,267.1c33.751,2.056,36.819,3.82,36.819,12.335s-22.095,15.419-39.887,15.419-35.286-14.613-35.286-23.128S409.181,265.045,442.932,267.1Z"/>
</svg>
