<svg id="Torso" xmlns="http://www.w3.org/2000/svg" width="375" height="490" viewBox="0 0 375 490">
  <metadata><?xpacket begin="﻿" id="W5M0MpCehiHzreSzNTczkc9d"?>
<x:xmpmeta xmlns:x="adobe:ns:meta/" x:xmptk="Adobe XMP Core 5.6-c138 79.159824, 2016/09/14-01:09:01        ">
   <rdf:RDF xmlns:rdf="http://www.w3.org/1999/02/22-rdf-syntax-ns#">
      <rdf:Description rdf:about=""/>
   </rdf:RDF>
</x:xmpmeta>
                                                                                                    
                                                                                                    
                                                                                                    
                                                                                                    
                                                                                                    
                                                                                                    
                                                                                                    
                                                                                                    
                                                                                                    
                                                                                                    
                                                                                                    
                                                                                                    
                                                                                                    
                                                                                                    
                                                                                                    
                                                                                                    
                                                                                                    
                                                                                                    
                                                                                                    
                                                                                                    
                           
<?xpacket end="w"?></metadata>
<defs>
    <style>
      .cls-1 {
        fill: #e3e3e3;
        fill-rule: evenodd;
      }
    </style>
  </defs>
  <path id="torso-2" data-name="torso" class="cls-1" d="M188.959,0.5h89.38s24.23,8.077,43.184,17.529a137.751,137.751,0,0,1,26.111,17.028s40.259,55.846,23.1,102.61c-10.336,28.164-34.112,73.045-34.145,73.677-0.365,7,2.388,12.042,2.008,19.031-0.6,10.975,1.721,22.379,1,33.053-0.469,6.986-3.519,12.273-4.018,19.031-0.6,8.2,5.759,15.309,5.022,23.038-1.328,13.92-6.558,22.943-9.039,34.055-8.773,39.295-19.081,64.1-19.081,64.1l6.026,32.052s-15.65,50.094-34.145,52.382c-38.369,4.747-74.818-2-95.406-2s-23.145,8.811-94.4,0c-18.5-2.287-35.149-51.062-35.149-51.062l6.026-32.039s-10.308-24.8-19.081-64.077c-2.481-11.108-7.711-20.128-9.038-34.042-0.737-7.725,5.626-14.833,5.021-23.028-0.5-6.755-3.548-12.04-4.017-19.023-0.716-10.669,1.6-22.069,1-33.04-0.38-6.986,2.373-12.027,2.009-19.023C39.412,173.927,2.115,167.99.157,137.667-2.583,95.223,30.285,34.542,30.285,34.542A137.744,137.744,0,0,1,56.4,17.521C75.349,8.073,99.579,0,99.579,0h89.38V0.5Z"/>
</svg>
