<svg id="Torso" xmlns="http://www.w3.org/2000/svg" width="375" height="490" viewBox="0 0 375 490">
  <metadata><?xpacket begin="﻿" id="W5M0MpCehiHzreSzNTczkc9d"?>
<x:xmpmeta xmlns:x="adobe:ns:meta/" x:xmptk="Adobe XMP Core 5.6-c138 79.159824, 2016/09/14-01:09:01        ">
   <rdf:RDF xmlns:rdf="http://www.w3.org/1999/02/22-rdf-syntax-ns#">
      <rdf:Description rdf:about=""/>
   </rdf:RDF>
</x:xmpmeta>
                                                                                                    
                                                                                                    
                                                                                                    
                                                                                                    
                                                                                                    
                                                                                                    
                                                                                                    
                                                                                                    
                                                                                                    
                                                                                                    
                                                                                                    
                                                                                                    
                                                                                                    
                                                                                                    
                                                                                                    
                                                                                                    
                                                                                                    
                                                                                                    
                                                                                                    
                                                                                                    
                           
<?xpacket end="w"?></metadata>
<defs>
    <style>
      .cls-1 {
        fill: #fff;
        stroke: #858585;
        stroke-width: 2px;
      }

      .cls-1, .cls-2, .cls-3, .cls-4, .cls-5, .cls-6 {
        fill-rule: evenodd;
      }

      .cls-2 {
        fill: silver;
      }

      .cls-3 {
        fill: #545454;
      }

      .cls-4 {
        fill: #282828;
      }

      .cls-5 {
        fill: #e3e3e3;
      }

      .cls-6 {
        fill: #858585;
      }
    </style>
  </defs>
  <path id="torso_block" data-name="torso block" class="cls-1" d="M73,51s58-5,115.5-5C245,46,301,51,301,51c5.523,0,12,7.477,12,13,0,0,5.306,29.481,1,68-11.18,100-30.957,100-29.589,100H88.589c0.656,0-16.03-1-26.589-101-4.069-38.536-1-67-1-67C61,58.477,67.477,51,73,51ZM231-39"/>
  <path id="ellipse" class="cls-2" d="M90.42,61.213c13.2-2.761,25.2,2.5,25.23,11.866,0.032,9.156-11.446,17.216-24.2,18.091-11.4.782-20.14-4.541-20.582-11.94C70.42,71.691,78.667,63.671,90.42,61.213Zm42.734,151.669c-12.547-1.915-20.095-9.982-16.068-17.761,3.955-7.641,17.225-11.329,28.931-8.542,10.931,2.6,16.751,10.033,13.591,16.842C156.4,210.339,144.847,214.667,133.154,212.882Z"/>
  <path id="ellipse-shadows" class="cls-3" d="M87.554,65.935c14.194-4.862,24.816,5.119,24.816,5.119s-7.043-6.273-21.468-3.507C73.735,70.84,78.651,83.28,78.651,83.28S70.94,71.626,87.554,65.935ZM100,89c19.25-10,16-18,16-18s5.241,13.4-13.259,19.4S72.878,85.075,73,85C73.224,84.983,80.75,99,100,89Zm45.584,125.967c-24.513,3.756-28.658-12.486-28.658-12.486s12.873,12.46,27.358,9.14c23.748-5.444,15-17.229,15-17.229S170.514,211.146,145.584,214.967Zm5.474-10.291c6.556-4.229,4.965-12.211,4.965-12.211s5.213,7.6-4.287,14.853C140.763,215.693,125,205,125,205,125.245,204.892,141.981,210.473,151.058,204.676Z"/>
  <path id="tube-under" class="cls-4" d="M157,199.061s-5.464,8.874-13.6,9.826c-8.1.947-18.883-6.347-18.883-6.347l-0.024-.185-0.071.007s-0.005-.258-0.026-0.742l-0.754-5.757s0.106-.042.275-0.106c-0.048-.431-0.1-0.865-0.154-1.331-0.188.079-.3,0.128-0.3,0.128l-1.07-6.687s0.119-.052.342-0.145c-0.053-.294-0.1-0.575-0.156-0.875l-0.079.038L121.1,180.16a109.725,109.725,0,0,0-3.668-11.914c-0.762-2.039-1.41-3.7-2.023-5.16l-2.595-5.26,0.067-.053c-0.156-.288-0.32-0.58-0.485-0.872l-0.146.129-3.343-5.861,0,0c-0.894-1.417-1.912-3.019-3.115-4.93-2.018-3.2-4.941-7.306-8.185-12.634l-0.889-1.352,0.043-.044c-0.476-.8-0.957-1.623-1.442-2.478l-0.048-.082-0.053.048-1.452-2.586c-1.278-2.1-2.6-4.177-3.749-6.21l-0.063.047-0.479-1.038c-0.413-.77-0.8-1.534-1.137-2.285q-0.548-1.23-1.049-2.453l-0.156-.337,0.016-.012a89.433,89.433,0,0,1-4.63-14.806c-1.069-5.009-1.805-8.86-2.321-11.829l-0.189-.9,0.032-.015c-0.15-.889-0.281-1.7-0.389-2.42a38.855,38.855,0,0,1-.623-5.743s0.1-10.781,15.324-11.975S111.2,74.058,111.2,74.058l0.421,5.046s-2.458-.128-5.977,0h5.977a19.114,19.114,0,0,0,.16,2.136l0.178,0.011,1.366,6.516L113,87.747c0.062,0.256.14,0.547,0.208,0.816h0.08l1.77,6.428h0c1.015,3.17,2.349,6.873,4.054,11.093l1.195,2.589-0.065.009c0.092,0.185.172,0.365,0.27,0.552l0.094-.019,2.278,4.058c0.519,0.818,1.069,1.667,1.665,2.568l0.037-.011,2.59,3.94c2.352,3.509,5.118,7.693,8.241,12.863l1.631,2.569-0.086.022c0.257,0.437.519,0.891,0.781,1.342l0.051-.012,3.343,5.861-0.087.019c0.455,0.831.918,1.694,1.383,2.566l0.15-.023,3.024,6.128-0.04.006q0.581,1.367,1.1,2.651l0.051,0,2.54,6.321-0.162.016c0.613,1.7,1.122,3.218,1.559,4.579l0.048,0,0.266,0.983c0.635,2.038,1.081,3.652,1.381,4.788,0.284,1.075,1.146,4.408,1.922,8.656l0.38,1.833-0.063,0c0.029,0.176.06,0.343,0.089,0.522C155.952,189.462,157,199.061,157,199.061Z"/>
  <path id="tube-over" class="cls-5" d="M143.317,209.39c-8.953,1.315-20.709-6.221-20.709-6.221l-0.792-7.164a84.072,84.072,0,0,1,17.6-4.834,82.271,82.271,0,0,1,17.978-.237l0.912,7.421S152.27,208.076,143.317,209.39Zm-4.239-20.185a84.528,84.528,0,0,0-17.424,5.4l-1-7.107a83.7,83.7,0,0,1,17.369-5.34,81.821,81.821,0,0,1,17.874-.776l1.114,7.016A81.047,81.047,0,0,0,139.078,189.205Zm-1.114-8.681a82.029,82.029,0,0,0-17.166,5.928l-1.363-7.185A81.257,81.257,0,0,1,136.55,173.4a80.6,80.6,0,0,1,17.844-1.243l1.471,7.086A79.775,79.775,0,0,0,137.964,180.524Zm-1.837-8.966a77.836,77.836,0,0,0-16.532,6.68l-1.85-7.191a77,77,0,0,1,16.487-6.609,77.4,77.4,0,0,1,17.52-1.979l1.947,7.082A76.689,76.689,0,0,0,136.127,171.558Zm-19-1.487-2.579-6.521a81.5,81.5,0,0,1,15.8-8.206,82.905,82.905,0,0,1,17.264-3.976l2.643,6.4a82.108,82.108,0,0,0-17.3,4.023A82.324,82.324,0,0,0,117.125,170.071Zm-2.941-7.517-3.092-6.266a80.956,80.956,0,0,1,15.22-8.911,82.365,82.365,0,0,1,17-4.829l3.137,6.145a83.025,83.025,0,0,0-17.032,4.878A80.293,80.293,0,0,0,114.184,162.554Zm-3.677-7.074-3.426-5.948a81.244,81.244,0,0,1,14.644-9.629,83.233,83.233,0,0,1,16.635-5.735l3.456,5.825a83.84,83.84,0,0,0-16.655,5.786A80.591,80.591,0,0,0,110.507,155.48ZM107,149.136l-3.748-5.8a79.093,79.093,0,0,1,14.19-10,82.4,82.4,0,0,1,16.383-6.189l3.766,5.675a83.04,83.04,0,0,0-16.4,6.242A78.36,78.36,0,0,0,107,149.136Zm-4.349-6.653-3.708-5.593a80.713,80.713,0,0,1,14.07-10.065,84.021,84.021,0,0,1,16.237-6.385l3.723,5.474a84.653,84.653,0,0,0-16.249,6.436A80.05,80.05,0,0,0,102.653,142.483Zm-4.278-6.349-3.737-5.574a79.986,79.986,0,0,1,14-10.206,85,85,0,0,1,16.18-6.535l3.749,5.454a84.127,84.127,0,0,0-16.191,6.586A80.849,80.849,0,0,0,98.375,136.134Zm-5.246-8.118-3.418-6.042a76.773,76.773,0,0,1,14.544-9.264,81.4,81.4,0,0,1,16.535-5.317l3.45,5.92a80.535,80.535,0,0,0-16.556,5.368A77.534,77.534,0,0,0,93.129,128.016Zm-5.28-8.661L85.1,113.329a83.013,83.013,0,0,1,15.509-8.147,87.115,87.115,0,0,1,17.079-4.228l2.8,5.914a86.247,86.247,0,0,0-17.11,4.273A83.853,83.853,0,0,0,87.848,119.355Zm-3.467-9.274L82.358,103.9a83.123,83.123,0,0,1,15.968-6.773,85.409,85.409,0,0,1,17.1-2.777l2.1,6.081a84.533,84.533,0,0,0-17.139,2.815A83.923,83.923,0,0,0,84.381,110.081Zm13.77-14.513a84.829,84.829,0,0,0-16.339,5.95l-1.578-6.241a83.98,83.98,0,0,1,16.3-5.892,85.388,85.388,0,0,1,17.16-1.869l1.664,6.15A84.551,84.551,0,0,0,98.151,95.568Zm-1.6-7.816a85.506,85.506,0,0,0-16.607,5.058l-1.134-6.275a84.663,84.663,0,0,1,16.561-5,85.127,85.127,0,0,1,17.153-.97l1.231,6.194A84.31,84.31,0,0,0,96.552,87.752Zm-1.333-8.086A67.553,67.553,0,0,0,79.08,85.022L78.17,78.713s0.624-10.219,16.55-11.393c15.8-1.166,17.231,6.446,17.231,6.446l0.287,4.762A88.473,88.473,0,0,0,95.219,79.666Z"/>
  <path id="ellipse_copy" data-name="ellipse copy" class="cls-2" d="M279.442,61.744c-13.214-2.76-25.215,2.495-25.248,11.862-0.032,9.153,11.454,17.21,24.213,18.084,11.406,0.782,20.154-4.539,20.6-11.936C299.455,72.218,291.2,64.2,279.442,61.744ZM236.678,213.352c12.556-1.914,20.109-9.979,16.079-17.754-3.957-7.638-17.237-11.324-28.95-8.538-10.939,2.6-16.763,10.028-13.6,16.835C213.418,210.809,224.977,215.136,236.678,213.352Z"/>
  <path id="ellipse-shadows_copy" data-name="ellipse-shadows copy" class="cls-3" d="M282.31,66.464c-14.2-4.86-24.833,5.117-24.833,5.117s7.048-6.27,21.483-3.505c17.178,3.29,12.259,15.726,12.259,15.726S298.935,72.153,282.31,66.464ZM269.855,89.52c-19.263-10-16.011-17.993-16.011-17.993s-5.245,13.392,13.268,19.39,29.883-5.32,29.762-5.4C296.649,85.5,289.118,99.516,269.855,89.52ZM223.24,216.436c24.53,3.754,29.678-13.48,29.678-13.48s-13.191,12.305-27.377,10.135c-22.174-3.39-15.008-18.222-15.008-18.222S198.292,212.617,223.24,216.436Zm-4.479-11.286c-9.726-4.562-4.967-12.207-4.967-12.207s-6.872,8.55,3.289,14.847c14.315,8.872,27.755-2.317,27.755-2.317C244.592,205.365,228.538,209.678,218.761,205.15Z"/>
  <path id="tube-under_copy" data-name="tube-under copy" class="cls-4" d="M212.816,199.536s5.468,8.871,13.614,9.822c8.108,0.947,18.895-6.344,18.895-6.344l0.024-.185,0.071,0.008s0.005-.259.026-0.743l0.755-5.755-0.275-.106c0.047-.431.1-0.864,0.153-1.329,0.189,0.078.3,0.127,0.3,0.127l1.071-6.684-0.343-.146c0.054-.293.1-0.573,0.157-0.873l0.079,0.038,1.392-6.723a109.7,109.7,0,0,1,3.671-11.909c0.762-2.038,1.411-3.7,2.025-5.158l2.6-5.258-0.068-.053c0.157-.288.32-0.58,0.486-0.872l0.146,0.129,3.345-5.858,0,0c0.894-1.417,1.913-3.018,3.117-4.928,2.019-3.2,4.944-7.3,8.191-12.629l0.889-1.351-0.044-.044c0.477-.8.958-1.623,1.444-2.478l0.048-.082,0.053,0.048,1.453-2.585c1.28-2.094,2.605-4.175,3.753-6.207l0.063,0.047,0.479-1.038c0.413-.769.8-1.533,1.138-2.284q0.548-1.23,1.049-2.451l0.156-.338-0.016-.012a89.432,89.432,0,0,0,4.633-14.8c1.069-5.007,1.806-8.856,2.322-11.824l0.189-.9-0.031-.015c0.149-.889.28-1.7,0.389-2.419a38.8,38.8,0,0,0,.624-5.74s-0.1-10.777-15.334-11.97-16.849,6.927-16.849,6.927l-0.421,5.044s2.46-.128,5.981,0h-5.981a19.1,19.1,0,0,1-.16,2.136l-0.178.011-1.367,6.513,0.326-.02c-0.062.256-.14,0.547-0.208,0.815h-0.08l-1.771,6.425h0c-1.016,3.169-2.351,6.871-4.058,11.088l-1.195,2.589,0.065,0.009c-0.092.185-.172,0.364-0.27,0.552l-0.094-.019-2.28,4.056c-0.519.818-1.069,1.666-1.666,2.567l-0.037-.011-2.592,3.939c-2.353,3.507-5.121,7.689-8.246,12.857l-1.633,2.568,0.087,0.022c-0.257.437-.52,0.891-0.781,1.341l-0.052-.011-3.345,5.858,0.086,0.019c-0.454.83-.917,1.694-1.383,2.565l-0.151-.023-3.025,6.125,0.039,0.006q-0.581,1.367-1.1,2.651l-0.051,0-2.542,6.318,0.162,0.016c-0.613,1.7-1.123,3.217-1.56,4.578h-0.047l-0.267.983c-0.636,2.037-1.082,3.65-1.382,4.786-0.285,1.074-1.147,4.406-1.924,8.652l-0.379,1.833,0.062-.005c-0.029.176-.06,0.343-0.088,0.521C213.864,189.942,212.816,199.536,212.816,199.536Z"/>
  <path id="tube-over_copy" data-name="tube-over copy" class="cls-5" d="M226.508,209.862c8.96,1.314,20.723-6.219,20.723-6.219l0.793-7.162a84.178,84.178,0,0,0-17.608-4.831,82.381,82.381,0,0,0-17.99-.237l-0.913,7.418S217.549,208.547,226.508,209.862Zm4.243-20.178a84.716,84.716,0,0,1,17.436,5.4l1-7.1a83.793,83.793,0,0,0-17.381-5.338,81.967,81.967,0,0,0-17.886-.775l-1.115,7.012A81.235,81.235,0,0,1,230.751,189.684Zm1.114-8.677a82.119,82.119,0,0,1,17.178,5.926l1.364-7.183a81.377,81.377,0,0,0-17.127-5.86,80.712,80.712,0,0,0-17.857-1.243l-1.472,7.084A79.923,79.923,0,0,1,231.865,181.007Zm1.838-8.962a77.865,77.865,0,0,1,16.543,6.677l1.852-7.188a77.116,77.116,0,0,0-16.5-6.607,77.537,77.537,0,0,0-17.532-1.978l-1.948,7.08A76.76,76.76,0,0,1,233.7,172.045Zm19.015-1.487,2.58-6.518a81.529,81.529,0,0,0-15.808-8.2,83.039,83.039,0,0,0-17.276-3.975l-2.645,6.4a82.182,82.182,0,0,1,17.313,4.022A82.381,82.381,0,0,1,252.718,170.558Zm2.943-7.513,3.094-6.265a80.97,80.97,0,0,0-15.23-8.907,82.527,82.527,0,0,0-17.016-4.827l-3.139,6.143a83.114,83.114,0,0,1,17.043,4.876A80.311,80.311,0,0,1,255.661,163.045Zm3.68-7.072,3.428-5.946a81.294,81.294,0,0,0-14.654-9.625,83.353,83.353,0,0,0-16.646-5.732l-3.458,5.822a84,84,0,0,1,16.666,5.784A80.6,80.6,0,0,1,259.341,155.973Zm3.508-6.341,3.75-5.8a79.141,79.141,0,0,0-14.2-9.993,82.509,82.509,0,0,0-16.394-6.187l-3.768,5.674a83.1,83.1,0,0,1,16.408,6.238A78.47,78.47,0,0,1,262.849,149.632Zm4.351-6.651,3.711-5.591a80.811,80.811,0,0,0-14.08-10.061,84.215,84.215,0,0,0-16.248-6.382l-3.726,5.472a84.8,84.8,0,0,1,16.261,6.433A80.128,80.128,0,0,1,267.2,142.981Zm4.281-6.346,3.74-5.572a80.039,80.039,0,0,0-14.008-10.2,85.119,85.119,0,0,0-16.191-6.532l-3.752,5.452a84.267,84.267,0,0,1,16.2,6.583A80.86,80.86,0,0,1,271.481,136.635Zm5.25-8.115,3.421-6.039A76.832,76.832,0,0,0,265.6,113.22a81.547,81.547,0,0,0-16.546-5.314l-3.453,5.917a80.744,80.744,0,0,1,16.568,5.365A77.6,77.6,0,0,1,276.731,128.52Zm5.284-8.657,2.75-6.024a83.078,83.078,0,0,0-15.519-8.143,87.273,87.273,0,0,0-17.091-4.227l-2.8,5.912a86.343,86.343,0,0,1,17.122,4.271A83.94,83.94,0,0,1,282.015,119.863Zm3.469-9.271,2.026-6.179a83.213,83.213,0,0,0-15.979-6.77,85.558,85.558,0,0,0-17.111-2.776l-2.1,6.079a84.689,84.689,0,0,1,17.151,2.814A84.014,84.014,0,0,1,285.484,110.592ZM271.705,96.085a84.922,84.922,0,0,1,16.35,5.948l1.58-6.239a84.113,84.113,0,0,0-16.31-5.889,85.536,85.536,0,0,0-17.172-1.868l-1.665,6.148A84.692,84.692,0,0,1,271.705,96.085Zm1.6-7.813a85.616,85.616,0,0,1,16.618,5.056l1.135-6.272a84.787,84.787,0,0,0-16.572-5,85.277,85.277,0,0,0-17.165-.969l-1.231,6.191A84.456,84.456,0,0,1,273.305,88.272Zm1.334-8.083a67.639,67.639,0,0,1,16.15,5.353l0.911-6.306s-0.625-10.215-16.562-11.389c-15.816-1.165-17.243,6.444-17.243,6.444l-0.286,4.76A88.622,88.622,0,0,1,274.639,80.19Z"/>
  <path id="torso_shadow_left" data-name="torso shadow left" class="cls-3" d="M133.449,282.911C122.9,257.286,111.923,236,111.923,236A256.066,256.066,0,0,1,135.5,279.851c11.8,28.676,20.5,63.228,20.5,63.228S144.9,310.735,133.449,282.911ZM130.374,359.4s-12.5-21.833-20.5-43.851a229.848,229.848,0,0,1-10.25-40.793c0,0.191,8.279,26.428,16.172,47.219C123.529,342.344,130.374,359.4,130.374,359.4Zm16.4,82.6S111.025,388.443,91,353.365c-9.9-17.349,2.054-36.661,2.474-36.8,0,0-3.561,16.273,5.125,36.713C114.34,390.322,146.775,442,146.775,442ZM115,429.762s-23.7-19.9-38.952-54.049c-10.479-23.457-6.15-56.089-6.15-56.089s6.77,43.964,15.376,63.227C101.024,418.111,115,429.762,115,429.762Z"/>
  <path id="torso_shadow_right" data-name="torso shadow right" class="cls-6" d="M295.409,269.921c-13.1,25.247-24.133,51.03-24.133,51.03s10.1-32.97,23.168-58.18A145.1,145.1,0,0,1,319,229S305.822,249.851,295.409,269.921Zm-61.294,154.5s10.6-9.186,17.429-33.806c7.564-27.269,11.3-69.615,11.3-69.615s-1.059,43.535-8.767,71.341C247.419,416.367,234.115,424.418,234.115,424.418Zm-0.87-26.266c-4.317,9.821-6.576,23.421-6.576,23.421s-2.574-18.626,2.454-30.07c3.069-6.984,15.7-6.01,15.7-6.01S237.565,388.325,233.245,398.152Zm46.194-31.5c14.6-34.481,26.69-76.9,26.69-76.9s-8.6,46.667-23.186,81.1c-13.137,31.007-32.087,49.436-32.087,49.436A345.854,345.854,0,0,0,279.439,366.657Zm22.838,9.638c10.067-22.374,15.136-48.15,15.136-48.15s-2.026,26.735-12.449,49.893c-10.126,22.5-28.42,40.987-28.42,40.987S291.84,399.491,302.277,376.3Z"/>
</svg>
