<svg id="torso" xmlns="http://www.w3.org/2000/svg" width="375" height="490" viewBox="0 0 375 490">
  <metadata><?xpacket begin="﻿" id="W5M0MpCehiHzreSzNTczkc9d"?>
<x:xmpmeta xmlns:x="adobe:ns:meta/" x:xmptk="Adobe XMP Core 5.6-c138 79.159824, 2016/09/14-01:09:01        ">
   <rdf:RDF xmlns:rdf="http://www.w3.org/1999/02/22-rdf-syntax-ns#">
      <rdf:Description rdf:about=""/>
   </rdf:RDF>
</x:xmpmeta>
                                                                                                    
                                                                                                    
                                                                                                    
                                                                                                    
                                                                                                    
                                                                                                    
                                                                                                    
                                                                                                    
                                                                                                    
                                                                                                    
                                                                                                    
                                                                                                    
                                                                                                    
                                                                                                    
                                                                                                    
                                                                                                    
                                                                                                    
                                                                                                    
                                                                                                    
                                                                                                    
                           
<?xpacket end="w"?></metadata>
<defs>
    <style>
      .cls-1 {
        fill: #e3e3e3;
      }

      .cls-1, .cls-2, .cls-3, .cls-4, .cls-5, .cls-6 {
        fill-rule: evenodd;
      }

      .cls-2 {
        fill: #fff;
        stroke: #858585;
        stroke-width: 2px;
      }

      .cls-3 {
        fill: silver;
      }

      .cls-4 {
        fill: #363636;
      }

      .cls-5 {
        fill: #5d5d5d;
      }

      .cls-6 {
        fill: #959595;
      }
    </style>
  </defs>
  <path id="torso-2" data-name="torso" class="cls-1" d="M188.975,0.5h89.372s24.228,8.077,43.18,17.529a137.733,137.733,0,0,1,26.109,17.028s40.256,55.846,23.1,102.61c-10.335,28.164-34.109,73.045-34.142,73.677-0.365,7,2.388,12.042,2.008,19.031-0.6,10.975,1.72,22.379,1,33.053-0.468,6.986-3.518,12.273-4.016,19.031-0.605,8.2,5.758,15.309,5.021,23.038-1.328,13.92-6.557,22.943-9.038,34.055-8.773,39.295-19.08,64.1-19.08,64.1l6.026,32.052s-15.649,50.094-34.143,52.382c-38.365,4.747-74.811-2-95.4-2s-23.143,8.811-94.393,0c-18.494-2.287-35.146-51.062-35.146-51.062l6.025-32.039s-10.307-24.8-19.08-64.077c-2.481-11.108-7.71-20.128-9.038-34.042-0.737-7.725,5.625-14.833,5.021-23.028-0.5-6.755-3.548-12.04-4.017-19.023-0.716-10.669,1.6-22.069,1-33.04-0.38-6.986,2.373-12.027,2.008-19.023C39.44,173.927,2.146,167.99.188,137.667-2.552,95.223,30.314,34.542,30.314,34.542a137.731,137.731,0,0,1,26.109-17.02C75.374,8.073,99.6,0,99.6,0h89.373V0.5Z"/>
  <path class="cls-2" d="M65.558,56.352c12.088-12.059,233.546-10.129,243.7,0S309.258,230,274.444,230H100.372C65.558,230,53.47,68.411,65.558,56.352Z"/>
  <g id="airtube">
    <path class="cls-3" d="M89.813,61.062c11.965-3.2,23.564,1.281,25.907,10.008s-5.458,18.4-17.422,21.6S74.734,91.386,72.391,82.659,77.849,64.262,89.813,61.062Z"/>
    <path class="cls-4" d="M102.954,91.134c-15.386,6.758-19.825.943-19.825,0.943s1.469,2.97,17.033-1.872c15.858-4.933,14.813-20.177,14.813-20.177S118.417,84.341,102.954,91.134ZM82.972,74.027C78.5,79.9,82.583,84.068,82.583,84.068s-5.389-4.085-1.611-10.041c6.694-10.552,24-5,24-5C104.961,69.047,89.264,65.767,82.972,74.027Z"/>
    <path id="Ellipse_5_copy" data-name="Ellipse 5 copy" class="cls-3" d="M138.085,184.218c12.236-.017,22.145,7.226,22.133,16.176s-9.941,16.219-22.177,16.236S115.9,209.4,115.908,200.454,125.849,184.235,138.085,184.218Z"/>
    <path id="Shape_3_copy" data-name="Shape 3 copy" class="cls-4" d="M142.877,216.348c-16.414,2.551-23.518-8.168-23.518-8.168s5,7.239,21.1,6.568c16.394-.684,20.3-16.628,20.3-16.628S159.375,213.784,142.877,216.348Zm2.11-8.538c9.773-3.4,10.569-9.584,10.569-9.584s0.9,7.139-8.488,10.9c-13.279,5.327-21.822-2.791-21.822-2.791A24.3,24.3,0,0,0,144.987,207.81Z"/>
    <path class="cls-5" d="M153,197.072s-4.955,8.5-12.337,9.417c-7.348.908-17.125-6.083-17.125-6.083l-0.021-.177-0.064.007s0-.248-0.024-0.712l-0.684-5.517,0.249-.1c-0.043-.413-0.087-0.829-0.139-1.275l-0.272.122-0.971-6.408s0.109-.05.311-0.139c-0.049-.282-0.091-0.55-0.142-0.838l-0.072.036-1.262-6.444a109.447,109.447,0,0,0-3.326-11.417c-0.691-1.954-1.279-3.543-1.835-4.945l-2.354-5.041,0.062-.051c-0.142-.276-0.291-0.556-0.441-0.836l-0.132.124-3.031-5.616,0,0c-0.811-1.358-1.733-2.893-2.825-4.725-1.83-3.07-4.481-7-7.423-12.106l-0.806-1.3,0.039-.042c-0.432-.767-0.868-1.555-1.308-2.375l-0.043-.079-0.048.046-1.317-2.478c-1.159-2.008-2.36-4-3.4-5.95l-0.057.045-0.435-1c-0.374-.737-0.728-1.469-1.031-2.189q-0.5-1.179-.951-2.35l-0.141-.324,0.015-.012a89.272,89.272,0,0,1-4.2-14.188c-0.969-4.8-1.637-8.49-2.1-11.335l-0.172-.866,0.029-.014c-0.136-.852-0.254-1.631-0.353-2.319a39.3,39.3,0,0,1-.565-5.5s0.093-10.332,13.9-11.476,15.269,6.64,15.269,6.64l0.382,4.835h0a19.239,19.239,0,0,0,.144,2.047l0.162,0.01,1.239,6.244-0.3-.019c0.056,0.246.127,0.524,0.188,0.782h0.073l1.605,6.16h0c0.92,3.038,2.13,6.587,3.677,10.631l1.083,2.481-0.059.009c0.083,0.177.156,0.349,0.244,0.529l0.086-.019,2.066,3.889c0.47,0.784.969,1.6,1.51,2.461l0.033-.01,2.349,3.776c2.133,3.362,4.642,7.372,7.473,12.326l1.48,2.461-0.079.022c0.234,0.419.471,0.853,0.709,1.285l0.046-.01,3.032,5.616-0.079.018c0.412,0.8.832,1.624,1.254,2.459l0.137-.022,2.742,5.872-0.036.006q0.525,1.31,1,2.541l0.046,0,2.3,6.057-0.147.015c0.555,1.632,1.018,3.084,1.413,4.389h0.044l0.241,0.942c0.576,1.954.98,3.5,1.253,4.589,0.258,1.03,1.039,4.224,1.743,8.3l0.344,1.756-0.057,0c0.027,0.168.055,0.329,0.081,0.5C152.052,187.874,153,197.072,153,197.072Z"/>
    <path class="cls-1" d="M140.835,208.408c-8.3,1.1-19.14-6.408-19.14-6.408l-0.729-6.946a74.039,74.039,0,0,1,16.284-4.426,73.263,73.263,0,0,1,16.756.035l0.823,7.269S149.163,207.3,140.835,208.408Zm-3.892-19.7a74.637,74.637,0,0,0-16.127,4.989l-0.922-6.9a74,74,0,0,1,16.082-4.968,72.756,72.756,0,0,1,16.67-.535l1.015,6.888A72.069,72.069,0,0,0,136.943,188.708Zm-1.018-8.48a72.742,72.742,0,0,0-15.9,5.55l-1.258-6.994a72.052,72.052,0,0,1,15.855-5.525,71.589,71.589,0,0,1,16.651-1.035l1.351,6.971A70.947,70.947,0,0,0,135.925,180.228Zm-1.692-8.778a69.345,69.345,0,0,0-15.317,6.336l-1.71-7.014a68.738,68.738,0,0,1,15.276-6.3,68.768,68.768,0,0,1,16.353-1.8l1.8,6.98A68.1,68.1,0,0,0,134.233,171.45Zm-17.6-1.634-2.384-6.372a73.612,73.612,0,0,1,14.629-7.911,73.86,73.86,0,0,1,16.111-3.815l2.455,6.32a73.158,73.158,0,0,0-16.151,3.829A74.3,74.3,0,0,0,116.633,169.816Zm-2.719-7.345-2.858-6.129a73.675,73.675,0,0,1,14.082-8.64A73.626,73.626,0,0,1,141,143.007l2.92,6.07a74.2,74.2,0,0,0-15.893,4.713A73.038,73.038,0,0,0,113.914,162.471Zm-3.4-6.921-3.166-5.818a74.652,74.652,0,0,1,13.533-9.378,74.731,74.731,0,0,1,15.5-5.624l3.219,5.753a75.291,75.291,0,0,0-15.528,5.647A73.981,73.981,0,0,0,110.515,155.55Zm-3.24-6.205-3.462-5.672a73.109,73.109,0,0,1,13.1-9.766,74.2,74.2,0,0,1,15.246-6.1l3.509,5.6a74.841,74.841,0,0,0-15.274,6.128A72.526,72.526,0,0,0,107.275,149.345Zm-4.017-6.508-3.425-5.468a74.855,74.855,0,0,1,12.969-9.86,75.743,75.743,0,0,1,15.092-6.326l3.469,5.4a76.4,76.4,0,0,0-15.119,6.35A74.192,74.192,0,0,0,103.258,142.837Zm-3.952-6.207-3.451-5.446a74.3,74.3,0,0,1,12.885-10.025,76.681,76.681,0,0,1,15.021-6.5l3.492,5.376a75.956,75.956,0,0,0-15.047,6.529A75.071,75.071,0,0,0,99.306,136.63ZM94.461,128.7l-3.16-5.9a70.683,70.683,0,0,1,13.373-9.14,72.725,72.725,0,0,1,15.336-5.336l3.213,5.835a72.021,72.021,0,0,0-15.367,5.358A71.34,71.34,0,0,0,94.461,128.7Zm-4.878-8.455-2.545-5.885a75.386,75.386,0,0,1,14.252-8.085,77.178,77.178,0,0,1,15.832-4.3l2.609,5.832a76.433,76.433,0,0,0-15.868,4.314A76.12,76.12,0,0,0,89.582,120.244Zm-3.218-9.061-1.883-6.044a74.6,74.6,0,0,1,14.678-6.785,75.053,75.053,0,0,1,15.852-2.9l1.956,6a74.323,74.323,0,0,0-15.892,2.911A75.312,75.312,0,0,0,86.364,111.183ZM98.994,96.82a75.552,75.552,0,0,0-15.024,5.989L82.494,96.7a74.877,74.877,0,0,1,14.987-5.963A74.694,74.694,0,0,1,113.393,88.7l1.554,6.081A74,74,0,0,0,98.994,96.82Zm-1.5-7.7a75.684,75.684,0,0,0-15.277,5.156l-1.071-6.155a75,75,0,0,1,15.238-5.135A74.193,74.193,0,0,1,112.3,81.807l1.152,6.134A73.518,73.518,0,0,0,97.495,89.123Zm-1.256-7.976a60.154,60.154,0,0,0-14.852,5.485l-0.866-6.2S81.046,70.342,95.74,68.923s16.018,6.136,16.018,6.136l0.272,4.731A77.159,77.159,0,0,0,96.239,81.146Z"/>
  </g>
  <g id="airtube_copy" data-name="airtube copy">
    <path class="cls-3" d="M282.567,61.062C270.6,57.862,259,62.343,256.661,71.07s5.457,18.4,17.422,21.6,23.564-1.281,25.906-10.008S294.532,64.262,282.567,61.062Z"/>
    <path class="cls-4" d="M290.043,93.616c14.754-8.043,9.342-14.5,9.342-14.5s2.325,5.719-6.756,11.057C282.362,96.206,265.911,85,265.911,85S281.618,98.209,290.043,93.616ZM270,68.028c-7.319.991-9,6-9,6a10.479,10.479,0,0,1,8-8c12.2-2.732,21,8,21,8C289.975,74.031,280.289,66.634,270,68.028Z"/>
    <path id="Ellipse_5_copy-2" data-name="Ellipse 5 copy" class="cls-3" d="M234.3,184.218c-12.236-.017-22.145,7.226-22.133,16.176s9.941,16.219,22.177,16.236,22.145-7.226,22.133-16.176S246.532,184.235,234.3,184.218Z"/>
    <path class="cls-5" d="M219.379,197.072s4.955,8.5,12.337,9.417c7.348,0.908,17.124-6.083,17.124-6.083l0.022-.177,0.064,0.007s0-.248.024-0.712l0.684-5.517-0.25-.1c0.044-.413.088-0.829,0.14-1.275l0.272,0.122,0.97-6.408s-0.108-.05-0.31-0.139c0.048-.282.09-0.55,0.142-0.838l0.071,0.036,1.262-6.444a109.462,109.462,0,0,1,3.327-11.417c0.691-1.954,1.278-3.543,1.835-4.945l2.353-5.041-0.061-.051c0.142-.276.29-0.556,0.44-0.836l0.132,0.124,3.032-5.616,0,0c0.81-1.358,1.733-2.893,2.824-4.725,1.83-3.07,4.481-7,7.423-12.106l0.806-1.3L274,133.006c0.431-.767.867-1.555,1.308-2.375l0.043-.079L275.4,130.6l1.317-2.478c1.159-2.008,2.36-4,3.4-5.95l0.057,0.045,0.435-1c0.374-.737.727-1.469,1.03-2.189q0.5-1.179.952-2.35l0.141-.324-0.015-.012a89.327,89.327,0,0,0,4.2-14.188c0.969-4.8,1.637-8.49,2.1-11.335l0.172-.866-0.029-.014c0.136-.852.255-1.631,0.353-2.319a39.349,39.349,0,0,0,.566-5.5s-0.094-10.332-13.9-11.476-15.269,6.64-15.269,6.64l-0.382,4.835h0a19.125,19.125,0,0,1-.145,2.047l-0.161.01-1.239,6.244,0.3-.019c-0.056.246-.127,0.524-0.188,0.782h-0.072l-1.606,6.16h0c-0.921,3.038-2.131,6.587-3.677,10.631l-1.084,2.481,0.06,0.009c-0.083.177-.156,0.349-0.245,0.529l-0.085-.019-2.066,3.889c-0.471.784-.97,1.6-1.511,2.461l-0.033-.01-2.349,3.776c-2.132,3.362-4.641,7.372-7.473,12.326l-1.48,2.461,0.079,0.022c-0.233.419-.471,0.853-0.708,1.285l-0.047-.01-3.031,5.616,0.078,0.018c-0.412.8-.832,1.624-1.253,2.459l-0.137-.022-2.742,5.872,0.036,0.006q-0.526,1.31-1,2.541l-0.047,0-2.3,6.057,0.147,0.015c-0.556,1.632-1.018,3.084-1.414,4.389h-0.043l-0.242.942c-0.576,1.954-.98,3.5-1.252,4.589-0.258,1.03-1.039,4.224-1.743,8.3l-0.344,1.756,0.056,0c-0.026.168-.054,0.329-0.08,0.5C220.329,187.874,219.379,197.072,219.379,197.072Z"/>
    <path class="cls-1" d="M231.545,208.408c8.3,1.1,19.14-6.408,19.14-6.408l0.73-6.946a74.039,74.039,0,0,0-16.284-4.426,73.26,73.26,0,0,0-16.756.035l-0.823,7.269S223.217,207.3,231.545,208.408Zm3.893-19.7a74.637,74.637,0,0,1,16.127,4.989l0.922-6.9a73.994,73.994,0,0,0-16.083-4.968,72.756,72.756,0,0,0-16.67-.535l-1.014,6.888A72.068,72.068,0,0,1,235.438,188.708Zm1.018-8.48a72.746,72.746,0,0,1,15.9,5.55l1.259-6.994a72.052,72.052,0,0,0-15.855-5.525,71.6,71.6,0,0,0-16.652-1.035l-1.35,6.971A70.947,70.947,0,0,1,236.456,180.228Zm1.692-8.778a69.345,69.345,0,0,1,15.317,6.336l1.71-7.014a68.738,68.738,0,0,0-15.276-6.3,68.768,68.768,0,0,0-16.353-1.8l-1.8,6.98A68.1,68.1,0,0,1,238.148,171.45Zm17.6-1.634,2.384-6.372a73.612,73.612,0,0,0-14.629-7.911,73.847,73.847,0,0,0-16.111-3.815l-2.455,6.32a73.146,73.146,0,0,1,16.151,3.829A74.3,74.3,0,0,1,255.747,169.816Zm2.72-7.345,2.857-6.129a73.649,73.649,0,0,0-14.081-8.64,73.627,73.627,0,0,0-15.858-4.695l-2.92,6.07a74.181,74.181,0,0,1,15.893,4.713A73.063,73.063,0,0,1,258.467,162.471Zm3.4-6.921,3.167-5.818a74.637,74.637,0,0,0-13.534-9.378A74.711,74.711,0,0,0,236,134.73l-3.219,5.753a75.313,75.313,0,0,1,15.528,5.647A73.954,73.954,0,0,1,261.865,155.55Zm3.24-6.205,3.463-5.672a73.094,73.094,0,0,0-13.1-9.766,74.2,74.2,0,0,0-15.246-6.1l-3.508,5.6a74.844,74.844,0,0,1,15.273,6.128A72.484,72.484,0,0,1,265.105,149.345Zm4.017-6.508,3.426-5.468a74.824,74.824,0,0,0-12.969-9.86,75.747,75.747,0,0,0-15.091-6.326l-3.469,5.4a76.382,76.382,0,0,1,15.118,6.35A74.146,74.146,0,0,1,269.122,142.837Zm3.952-6.207,3.451-5.446a74.323,74.323,0,0,0-12.884-10.025,76.708,76.708,0,0,0-15.021-6.5l-3.493,5.376a75.93,75.93,0,0,1,15.047,6.529A75.081,75.081,0,0,1,273.074,136.63Zm4.846-7.931,3.16-5.9a70.716,70.716,0,0,0-13.373-9.14,72.725,72.725,0,0,0-15.336-5.336l-3.214,5.835A61.427,61.427,0,0,1,277.92,128.7Zm4.878-8.455,2.546-5.885a75.394,75.394,0,0,0-14.252-8.085,77.178,77.178,0,0,0-15.833-4.3l-2.609,5.832a76.416,76.416,0,0,1,15.868,4.314A76.122,76.122,0,0,1,282.8,120.244Zm3.218-9.061,1.883-6.044a64.236,64.236,0,0,0-30.529-9.686l-1.956,6a74.319,74.319,0,0,1,15.891,2.911A75.286,75.286,0,0,1,286.016,111.183ZM273.387,96.82a75.539,75.539,0,0,1,15.023,5.989l1.477-6.111A74.872,74.872,0,0,0,274.9,90.735,74.691,74.691,0,0,0,258.987,88.7l-1.554,6.081A74.008,74.008,0,0,1,273.387,96.82Zm1.5-7.7a75.7,75.7,0,0,1,15.277,5.156l1.07-6.155A75,75,0,0,0,276,82.989a74.2,74.2,0,0,0-15.914-1.182l-1.152,6.134A73.525,73.525,0,0,1,274.886,89.123Zm1.256-7.976a60.161,60.161,0,0,1,14.852,5.485l0.866-6.2s-0.525-10.089-15.219-11.509-16.018,6.136-16.018,6.136l-0.272,4.731A77.162,77.162,0,0,1,276.142,81.146Z"/>
    <path id="Shape_3_copy-2" data-name="Shape 3 copy" class="cls-4" d="M245.03,216.2c15.28-6.124,10.5-17.187,10.5-17.187s4.787,6.1-9.256,13.631c-14.307,7.675-28.28-1.865-28.28-1.865S229.671,222.356,245.03,216.2Zm-2.151-9.642C232.825,208.735,223,205,223,205a22.879,22.879,0,0,0,16.441,3.814c14.117-1.913,12.025-8.965,12.025-8.965A13.474,13.474,0,0,1,242.879,206.558Z"/>
  </g>
  <path id="shadows-left" class="cls-6" d="M296.718,269.494C283.67,295.3,272.6,321.776,272.6,321.776s10.24-33.942,23.287-59.751A143.412,143.412,0,0,1,320.005,228S307.054,249.046,296.718,269.494ZM235.173,428s10.589-9.762,17.465-34.855c7.639-27.873,11.644-71.369,11.644-71.369s-1.374,44.657-9.148,73.029C248.434,419.252,235.173,428,235.173,428Zm-0.831-26.556c-4.367,10.166-6.654,24.066-6.654,24.066s-2.611-18.817,2.5-30.7c3.114-7.251,15.8-6.639,15.8-6.639S238.708,391.278,234.342,401.444Zm45.742-33.195c14.45-34.954,26.614-78.008,26.614-78.008S297.8,337.584,283.411,372.4c-12.981,31.4-31.6,50.623-31.6,50.623A369.992,369.992,0,0,0,280.084,368.249Zm21.624,9.129c9.788-22.383,14.97-48.133,14.97-48.133s-2.362,26.665-12.475,49.792c-9.843,22.508-27.446,41.494-27.446,41.494S291.543,400.622,301.708,377.378Z"/>
  <path id="shadows-right" class="cls-6" d="M132.729,283.683C122.3,258.183,111.452,237,111.452,237a255.389,255.389,0,0,1,23.3,43.639c11.667,28.536,20.263,62.92,20.263,62.92S144.049,311.372,132.729,283.683Zm-3.04,76.114s-12.357-21.727-20.263-43.639a229.939,229.939,0,0,1-10.132-40.594c0.005,0.19,8.183,26.3,15.985,46.99C122.924,342.828,129.689,359.8,129.689,359.8ZM145.9,442s-35.336-53.3-55.13-88.2c-9.79-17.265,2.03-36.483,2.445-36.622,0,0-3.519,16.194,5.066,36.535C113.84,390.573,145.9,442,145.9,442ZM96.255,370.96A159.205,159.205,0,0,0,107.4,394.3c10.9,19.257,27.356,44.653,27.356,44.653s-13.891-19.1-28.369-39.579c-10.816-15.295-23.3-33.49-23.3-33.49a36.344,36.344,0,0,0,8.105,5.074A7.284,7.284,0,0,0,96.255,370.96Zm18.238,58.862s-23.423-19.806-38.5-53.787c-10.357-23.343-6.079-55.817-6.079-55.817s6.691,43.75,15.2,62.921C100.679,418.227,114.492,429.822,114.492,429.822Z"/>
</svg>
