<svg id="Leg" xmlns="http://www.w3.org/2000/svg" width="186" height="447" viewBox="0 0 186 447">
  <metadata><?xpacket begin="﻿" id="W5M0MpCehiHzreSzNTczkc9d"?>
<x:xmpmeta xmlns:x="adobe:ns:meta/" x:xmptk="Adobe XMP Core 5.6-c138 79.159824, 2016/09/14-01:09:01        ">
   <rdf:RDF xmlns:rdf="http://www.w3.org/1999/02/22-rdf-syntax-ns#">
      <rdf:Description rdf:about=""/>
   </rdf:RDF>
</x:xmpmeta>
                                                                                                    
                                                                                                    
                                                                                                    
                                                                                                    
                                                                                                    
                                                                                                    
                                                                                                    
                                                                                                    
                                                                                                    
                                                                                                    
                                                                                                    
                                                                                                    
                                                                                                    
                                                                                                    
                                                                                                    
                                                                                                    
                                                                                                    
                                                                                                    
                                                                                                    
                                                                                                    
                           
<?xpacket end="w"?></metadata>
<defs>
    <style>
      .cls-1 {
        fill: #e3e3e3;
      }

      .cls-1, .cls-2, .cls-3 {
        fill-rule: evenodd;
      }

      .cls-2 {
        fill: silver;
      }

      .cls-3 {
        fill: #858585;
      }
    </style>
  </defs>
  <path id="upper-leg" class="cls-1" d="M159,40.38S124.462-3.868,93,.282C58.137,4.88,26,57.923,26,57.923S0,98.4,0,142.63c0,45.23,26,94.231,26,94.231s11.771,13.757,13,40.1c0.3,6.53-4.248,8.759-5,16.039-1.081,10.465,1.38,26.255,1,37.091-1.411,40.226-1,78.191-1,78.191s1.413,0.488,2,9.022c0.346,5.032,1,11.027,1,11.027s40.324,22.7,71,18.044c28.762-4.361,47-27.066,47-27.066s5.718-4.729,10-9.022c4.7-4.71,10-14.034,10-14.034l4-19.047s-1-9.318-1-16.039a27.3,27.3,0,0,1,1-8.02s3-9.954,3-19.046a49.392,49.392,0,0,0-3-16.04s3-11.659,3-22.054a44.84,44.84,0,0,0-3-15.036l1-14.035,2-2.005V238.866s4.274-20.506,4-38.094a81.972,81.972,0,0,0-5-26.063,130.07,130.07,0,0,0,2-23.057,71.115,71.115,0,0,0-3-18.044,40.092,40.092,0,0,1-5.44-13.207c-2.086-8.855-3.2-22.767-5.56-34.911-1.054-5.422-3.927-10.049-5-15.037-0.865-4.02-.374-9.521-1-13.032-0.54-3.027-3.489-3.256-3-7.017A20.435,20.435,0,0,0,159,40.38Z"/>
  <path class="cls-2" d="M173,115a106.2,106.2,0,0,0-33.722-6.014C113.166,108.749,81.087,111.913,78,115c-5.25,5.25-4.25,129.5,0,133s41.133,4.637,67.468,4.763C166.6,252.865,185.138,237.019,185,237c0,0,1-5.074,1-32,0-10.644-.645-20.237-1-32-0.33-10.958-.305-24.132-2-33C180.067,124.653,173,115,173,115Z"/>
  <path class="cls-3" d="M80.71,167.809C82.288,188.737,84,226,84,226s-0.089-47.529,1.685-61.853A14.573,14.573,0,0,1,98,151s-6.466-1.589-9.256-7.585c-3.437-7.387-2.9-19.54-2.9-19.54S79.279,148.831,80.71,167.809Zm20.854,14.444a76.455,76.455,0,0,1,4.7-11.088,77.963,77.963,0,0,1,6.629-10.085,43.077,43.077,0,0,0-7.98,9.859A32.388,32.388,0,0,0,101.564,182.253ZM111.68,179.2a28,28,0,0,1-.4-6.854,42.671,42.671,0,0,1,1.429-7.565,17.334,17.334,0,0,0-2.779,7.338A14.672,14.672,0,0,0,111.68,179.2Zm1.221-25.662a196.486,196.486,0,0,0,30.1,4,197.74,197.74,0,0,0,30.286-1.4A54.177,54.177,0,0,1,148,161C132.614,160.339,112.9,153.539,112.9,153.539Z"/>
  <path class="cls-3" d="M29.388,343.187m2.424,1.035c-0.644,11.839.66,21.747,0.756,21.4a45.426,45.426,0,0,0,7.2,4.207,158.571,158.571,0,0,1,.943-22.743c0.748-12.356,2.359-20.016,2.479-19.772q-4.614-1.551-9.432-3.411C33.619,323.766,31.871,332.347,31.812,344.222Zm11,3.131a178.835,178.835,0,0,0-2.049,22.617,58,58,0,0,0,8.357,3.248c-0.158.468,1.054-11.064,3.091-23.659,1.559-12.7,2.763-19.028,2.836-18.649q-4.385-1.275-8.96-2.906c-0.106-.285-2,6.9-3.275,19.349h0Zm11.874,2.714c-2.584,12.27-4.631,23.519-4.467,23.063a75.857,75.857,0,0,0,9.292,2.536c-0.175.461,2.388-11.315,4.85-23.782,2.114-12.69,2.43-18.289,2.437-17.812q-4.225-.9-8.544-2.176C58.211,331.48,56.864,337.472,54.687,350.067Zm6.279,26.325q4.563,1.4,9.3,2.354c-0.19.447,3.593-10.991,6.882-23.667,3.091-12.932,3.129-19.1,3.028-18.549q-3.925-.525-7.769-1.328c0.066-.552-0.962,5.073-4.346,17.943-3.609,12.423-7.276,23.706-7.09,23.247h0Zm10.734,2.6q4.728,1.238,9.6,2.067c-0.2.413,4.121-10.741,7.488-23.337,3.31-12.992,2.8-20.295,2.65-19.8q-4.049-.4-7.946-0.969c0.132-.559-0.143,5.944-3.785,18.829C75.928,368.35,71.514,379.419,71.7,378.992Zm10.949,2.491q4.783,1.027,9.68,1.7a221.142,221.142,0,0,0,7.912-22.769c3.511-12.791,3.021-21.55,2.846-21.148q-4.17-.408-8.183-0.905c0.174-.483.2,7.425-3.664,20.232A229.282,229.282,0,0,1,82.649,381.483ZM92.9,383.118c3.27,0.581,6.574,1.053,9.9,1.436a193.219,193.219,0,0,0,7.86-22.136c3.467-12.464,3.062-22.259,2.888-21.95q-4.335-.492-8.536-1.039c0.184-.395.359,8.677-3.462,21.261A186.362,186.362,0,0,1,92.9,383.118Zm11.4,1.648c3.244,0.377,6.5.674,9.752,0.916a222.143,222.143,0,0,0,7.2-21.683c3.211-12.116,2.951-22.549,2.792-22.333q-4.333-.447-8.587-0.957c0.175-.3.354,9.729-3.185,22.044a194.287,194.287,0,0,1-7.974,22.013h0Zm11.117,1.076c3.262,0.24,6.511.428,9.719,0.59-0.17.286,3.579-9.485,6.7-21.429a88.283,88.283,0,0,0,2.794-22.423c-2.932-.255-5.861-0.534-8.77-0.834,0.156-.2.279,10.349-3.028,22.421a218.823,218.823,0,0,1-7.412,21.675h0Zm13.964,0.621c3.309-.036,6.553-0.094,9.694-0.154-0.173.228,2.629-10.04,4.768-21.522a87.889,87.889,0,0,0,1.029-21.815c-3.1,0-6.219-.024-9.332-0.08,0.132-.128,1.1,10.479-1.053,22.091-2.281,11.708-5.29,21.756-5.106,21.48h0Zm13.97,0.135c2.914-.269,5.72-0.548,8.387-0.833-0.174.139,1.823-11.008,3.2-22.175a94.041,94.041,0,0,0-.2-21.393q-4.489.408-9.04,0.768a86.686,86.686,0,0,1,.55,21.711c-1.311,11.4-3.089,22.131-2.9,21.922h0Zm12.233-2.118c2.5-.6,4.876-1.229,7.1-1.874-0.126,0,1.99-11.589,2.846-22.025a86.321,86.321,0,0,0-1.081-20.264q-4.44.865-8.944,1.719a80.341,80.341,0,0,1,1.941,20.466c-0.537,10.651-2.022,22.056-1.861,21.978h0Zm11.835-24.742c-0.422,10.142-2.4,21.816-2.288,21.848,2.113-.847,4.086-1.716,5.9-2.6-0.065-.094,2.8-11.477,3.8-21.463a86.975,86.975,0,0,0-.564-19.851q-4.415,1.125-8.869,2.263a77.312,77.312,0,0,1,2.019,19.8h0Zm9.224-3.226c-0.675,9.733-3.568,20.946-3.53,21.057,1.731-1.062,3.322-2.121,4.758-3.157,0,0,.994-2.708,2.183-6.52,0.594-1.91,1.23-4.1,1.816-6.429,0.293-1.163.573-2.362,0.831-3.578s0.492-2.45.693-3.685a92.145,92.145,0,0,0,.854-19.893q-4.482,1.388-8.928,2.786A75.8,75.8,0,0,1,176.644,356.512Z"/>
</svg>
