<svg xmlns="http://www.w3.org/2000/svg" width="213" height="279" viewBox="0 0 213 279">
  <metadata><?xpacket begin="﻿" id="W5M0MpCehiHzreSzNTczkc9d"?>
<x:xmpmeta xmlns:x="adobe:ns:meta/" x:xmptk="Adobe XMP Core 5.6-c138 79.159824, 2016/09/14-01:09:01        ">
   <rdf:RDF xmlns:rdf="http://www.w3.org/1999/02/22-rdf-syntax-ns#">
      <rdf:Description rdf:about=""/>
   </rdf:RDF>
</x:xmpmeta>
                                                                                                    
                                                                                                    
                                                                                                    
                                                                                                    
                                                                                                    
                                                                                                    
                                                                                                    
                                                                                                    
                                                                                                    
                                                                                                    
                                                                                                    
                                                                                                    
                                                                                                    
                                                                                                    
                                                                                                    
                                                                                                    
                                                                                                    
                                                                                                    
                                                                                                    
                                                                                                    
                           
<?xpacket end="w"?></metadata>
<defs>
    <style>
      .cls-1 {
        fill: #e3e3e3;
      }

      .cls-1, .cls-2 {
        fill-rule: evenodd;
      }

      .cls-2 {
        fill: #959595;
      }
    </style>
  </defs>
  <path id="upper-arm" class="cls-1" d="M79.55,0s33.476,16.975,56.189,47.726c8.833,11.958,13.785,27.414,20.068,40.19,12.356,25.127,22.075,45.214,22.075,45.214l-2.007,17.08s2.4,15.051,8.027,24.114c2.857,4.6,8.309,7.755,11.037,11.053a12.655,12.655,0,0,1,3.01,7.033l10.034,9.043s-1.107,4.15,0,7.033A14.954,14.954,0,0,0,213,214.514s-4.9,3.677-6.02,7.034c-0.853,2.563,2.006,5.023,2.006,5.023s0.1,39.946-17.057,49.233c-19.78,10.707-57.193-9.043-57.193-9.043l-8.027-8.038,1-5.023-5.017-3.014v-4.02l-6.02-1-11.037-4.019,1-19.091-6.02-3.014-2.007-6.028a25.279,25.279,0,0,0-3.01-12.057C92.45,195.38,85.57,188.391,85.57,188.391l-6.02-7.033v-6.029l-20.068-19.09S-4.818,95.469.282,55.764C5.214,17.371,79.55,0,79.55,0Z"/>
  <path class="cls-2" d="M159.953,163.685a43.418,43.418,0,0,1,20.371,15.139S176.118,163,160.912,158.482a46.228,46.228,0,0,0-27.129-.017C134.6,158.359,147.206,159.341,159.953,163.685Zm-13.6,96.505A162.462,162.462,0,0,1,167.706,247.6,166.361,166.361,0,0,1,191,238.879s-14.295,1.559-25.235,6.781A68.37,68.37,0,0,0,146.353,260.19Zm20.382,6.78a57.441,57.441,0,0,1,7.765-11.624,89.652,89.652,0,0,1,11.647-10.655s-8.612,3.007-13.588,8.718C167.836,258.83,166.735,266.97,166.735,266.97Z"/>
</svg>
