<svg id="Leg" xmlns="http://www.w3.org/2000/svg" width="186" height="447" viewBox="0 0 186 447">
  <metadata><?xpacket begin="﻿" id="W5M0MpCehiHzreSzNTczkc9d"?>
<x:xmpmeta xmlns:x="adobe:ns:meta/" x:xmptk="Adobe XMP Core 5.6-c138 79.159824, 2016/09/14-01:09:01        ">
   <rdf:RDF xmlns:rdf="http://www.w3.org/1999/02/22-rdf-syntax-ns#">
      <rdf:Description rdf:about=""/>
   </rdf:RDF>
</x:xmpmeta>
                                                                                                    
                                                                                                    
                                                                                                    
                                                                                                    
                                                                                                    
                                                                                                    
                                                                                                    
                                                                                                    
                                                                                                    
                                                                                                    
                                                                                                    
                                                                                                    
                                                                                                    
                                                                                                    
                                                                                                    
                                                                                                    
                                                                                                    
                                                                                                    
                                                                                                    
                                                                                                    
                           
<?xpacket end="w"?></metadata>
<defs>
    <style>
      .cls-1 {
        fill: #e3e3e3;
      }

      .cls-1, .cls-2, .cls-3 {
        fill-rule: evenodd;
      }

      .cls-2 {
        fill: silver;
      }

      .cls-3 {
        fill: #858585;
      }
    </style>
  </defs>
  <path id="upper-leg" class="cls-1" d="M27,40.38S61.538-3.868,93,.282c34.863,4.6,67,57.641,67,57.641s26,40.48,26,84.707c0,45.23-26,94.231-26,94.231s-11.771,13.757-13,40.1c-0.305,6.53,4.248,8.759,5,16.039,1.081,10.465-1.38,26.255-1,37.091,1.411,40.226,1,78.191,1,78.191s-1.413.488-2,9.022c-0.346,5.032-1,11.027-1,11.027s-40.324,22.7-71,18.044c-28.762-4.361-47-27.066-47-27.066s-5.718-4.729-10-9.022c-4.7-4.71-10-14.034-10-14.034L7,377.2s1-9.318,1-16.039a27.3,27.3,0,0,0-1-8.02S4,343.191,4,334.1a49.393,49.393,0,0,1,3-16.04S4,306.4,4,296.005a44.841,44.841,0,0,1,3-15.036L6,266.934l-2-2.005V238.866s-4.274-20.506-4-38.094a81.964,81.964,0,0,1,5-26.063,130.049,130.049,0,0,1-2-23.057,71.1,71.1,0,0,1,3-18.044A40.074,40.074,0,0,0,11.44,120.4c2.086-8.855,3.2-22.767,5.56-34.911,1.054-5.422,3.927-10.049,5-15.037,0.865-4.02.374-9.521,1-13.032,0.54-3.027,3.489-3.256,3-7.017A20.44,20.44,0,0,1,27,40.38Z"/>
  <path class="cls-2" d="M13,115a106.2,106.2,0,0,1,33.722-6.014c26.112-.237,58.191,2.927,61.278,6.014,5.25,5.25,4.25,129.5,0,133s-41.133,4.637-67.468,4.763C19.4,252.865.862,237.019,1,237c0,0-1-5.074-1-32,0-10.644.645-20.237,1-32,0.33-10.958.305-24.132,2-33C5.933,124.653,13,115,13,115Z"/>
  <path class="cls-3" d="M105.29,167.809C103.712,188.737,102,226,102,226s0.089-47.529-1.685-61.853A14.573,14.573,0,0,0,88,151s6.466-1.589,9.256-7.585c3.437-7.387,2.9-19.54,2.9-19.54S106.721,148.831,105.29,167.809ZM84.436,182.253a76.5,76.5,0,0,0-4.7-11.088,78,78,0,0,0-6.63-10.085,43.074,43.074,0,0,1,7.98,9.859A32.392,32.392,0,0,1,84.436,182.253ZM74.32,179.2a27.982,27.982,0,0,0,.4-6.854,42.634,42.634,0,0,0-1.429-7.565,17.34,17.34,0,0,1,2.779,7.338A14.669,14.669,0,0,1,74.32,179.2ZM73.1,153.539a196.488,196.488,0,0,1-30.1,4,197.745,197.745,0,0,1-30.286-1.4A54.178,54.178,0,0,0,38,161C53.386,160.339,73.1,153.539,73.1,153.539Z"/>
  <path class="cls-3" d="M156.612,343.187m-2.424,1.035c0.644,11.839-.661,21.747-0.756,21.4a45.472,45.472,0,0,1-7.2,4.207,158.576,158.576,0,0,0-.943-22.743c-0.748-12.356-2.359-20.016-2.479-19.772q4.614-1.551,9.432-3.411C152.381,323.766,154.129,332.347,154.188,344.222Zm-11,3.131a178.97,178.97,0,0,1,2.048,22.617,57.956,57.956,0,0,1-8.357,3.248c0.159,0.468-1.053-11.064-3.09-23.659-1.559-12.7-2.763-19.028-2.836-18.649q4.385-1.275,8.959-2.906c0.106-.285,2,6.9,3.276,19.349h0Zm-11.874,2.714c2.584,12.27,4.631,23.519,4.466,23.063a75.8,75.8,0,0,1-9.291,2.536c0.175,0.461-2.388-11.315-4.85-23.782-2.114-12.69-2.43-18.289-2.437-17.812q4.226-.9,8.544-2.176C127.789,331.48,129.136,337.472,131.313,350.067Zm-6.279,26.325q-4.563,1.4-9.3,2.354c0.19,0.447-3.593-10.991-6.882-23.667-3.091-12.932-3.129-19.1-3.028-18.549q3.924-.525,7.769-1.328c-0.066-.552.962,5.073,4.346,17.943,3.609,12.423,7.276,23.706,7.09,23.247h0Zm-10.734,2.6q-4.728,1.238-9.6,2.067c0.2,0.413-4.121-10.741-7.488-23.337-3.31-12.992-2.8-20.295-2.65-19.8q4.049-.4,7.946-0.969c-0.132-.559.143,5.944,3.784,18.829C110.072,368.35,114.486,379.419,114.3,378.992Zm-10.949,2.491q-4.783,1.027-9.681,1.7a221.076,221.076,0,0,1-7.912-22.769c-3.511-12.791-3.022-21.55-2.846-21.148q4.17-.408,8.183-0.905c-0.174-.483-0.2,7.425,3.664,20.232A229.132,229.132,0,0,0,103.351,381.483ZM93.1,383.118c-3.27.581-6.574,1.053-9.9,1.436a193.369,193.369,0,0,1-7.86-22.136c-3.467-12.464-3.062-22.259-2.887-21.95q4.334-.492,8.535-1.039c-0.184-.395-0.359,8.677,3.462,21.261A186.353,186.353,0,0,0,93.1,383.118Zm-11.4,1.648c-3.245.377-6.5,0.674-9.752,0.916A222.158,222.158,0,0,1,64.745,364c-3.21-12.116-2.95-22.549-2.792-22.333q4.334-.447,8.588-0.957c-0.176-.3-0.355,9.729,3.185,22.044A194.381,194.381,0,0,0,81.7,384.766h0Zm-11.117,1.076c-3.262.24-6.511,0.428-9.719,0.59,0.17,0.286-3.579-9.485-6.7-21.429-2.973-11.689-2.931-22.563-2.794-22.423,2.932-.255,5.861-0.534,8.77-0.834-0.157-.2-0.279,10.349,3.028,22.421a218.687,218.687,0,0,0,7.412,21.675h0Zm-13.964.621c-3.309-.036-6.553-0.094-9.695-0.154,0.173,0.228-2.629-10.04-4.767-21.522a87.838,87.838,0,0,1-1.029-21.815c3.1,0,6.219-.024,9.332-0.08-0.132-.128-1.1,10.479,1.053,22.091,2.281,11.708,5.289,21.756,5.106,21.48h0Zm-13.97.135c-2.914-.269-5.72-0.548-8.387-0.833,0.173,0.139-1.823-11.008-3.2-22.175a94.011,94.011,0,0,1,.2-21.393q4.488,0.408,9.039.768a86.692,86.692,0,0,0-.549,21.711c1.31,11.4,3.089,22.131,2.895,21.922h0ZM30.416,384.48c-2.5-.6-4.877-1.229-7.1-1.874,0.126,0-1.99-11.589-2.846-22.025a86.337,86.337,0,0,1,1.081-20.264q4.44,0.865,8.944,1.719a80.326,80.326,0,0,0-1.94,20.466c0.537,10.651,2.021,22.056,1.861,21.978h0ZM18.58,359.738c0.422,10.142,2.4,21.816,2.288,21.848-2.113-.847-4.086-1.716-5.9-2.6,0.066-.094-2.8-11.477-3.8-21.463a86.949,86.949,0,0,1,.565-19.851q4.414,1.125,8.869,2.263a77.263,77.263,0,0,0-2.019,19.8h0Zm-9.224-3.226c0.675,9.733,3.568,20.946,3.53,21.057-1.731-1.062-3.322-2.121-4.758-3.157,0,0-.994-2.708-2.183-6.52-0.593-1.91-1.23-4.1-1.816-6.429C3.836,360.3,3.556,359.1,3.3,357.885s-0.492-2.45-.693-3.685a92.1,92.1,0,0,1-.854-19.893q4.482,1.388,8.928,2.786A75.761,75.761,0,0,0,9.356,356.512Z"/>
</svg>
