<svg xmlns="http://www.w3.org/2000/svg" width="213" height="279" viewBox="0 0 213 279">
  <metadata><?xpacket begin="﻿" id="W5M0MpCehiHzreSzNTczkc9d"?>
<x:xmpmeta xmlns:x="adobe:ns:meta/" x:xmptk="Adobe XMP Core 5.6-c138 79.159824, 2016/09/14-01:09:01        ">
   <rdf:RDF xmlns:rdf="http://www.w3.org/1999/02/22-rdf-syntax-ns#">
      <rdf:Description rdf:about=""/>
   </rdf:RDF>
</x:xmpmeta>
                                                                                                    
                                                                                                    
                                                                                                    
                                                                                                    
                                                                                                    
                                                                                                    
                                                                                                    
                                                                                                    
                                                                                                    
                                                                                                    
                                                                                                    
                                                                                                    
                                                                                                    
                                                                                                    
                                                                                                    
                                                                                                    
                                                                                                    
                                                                                                    
                                                                                                    
                                                                                                    
                           
<?xpacket end="w"?></metadata>
<defs>
    <style>
      .cls-1 {
        fill: #e3e3e3;
      }

      .cls-1, .cls-2 {
        fill-rule: evenodd;
      }

      .cls-2 {
        fill: #959595;
      }
    </style>
  </defs>
  <path id="upper-arm" class="cls-1" d="M133.45,0S99.974,16.977,77.261,47.731C68.428,59.69,63.476,75.148,57.193,87.926c-12.356,25.13-22.075,45.218-22.075,45.218l2.007,17.083s-2.4,15.053-8.027,24.117c-2.857,4.6-8.309,7.755-11.037,11.053a12.668,12.668,0,0,0-3.01,7.034L5.017,201.475s1.107,4.151,0,7.034A14.947,14.947,0,0,1,0,214.538s4.9,3.677,6.02,7.035c0.853,2.563-2.007,5.024-2.007,5.024s-0.1,39.95,17.057,49.238c19.78,10.708,57.193-9.044,57.193-9.044l8.027-8.039-1-5.024,5.017-3.014v-4.02l6.02-1,11.037-4.019-1-19.093,6.02-3.014,2.007-6.029a25.284,25.284,0,0,1,3.01-12.059c3.154-6.074,10.034-13.063,10.034-13.063l6.02-7.034v-6.029l20.068-19.093s64.3-60.776,59.2-100.486C207.786,17.373,133.45,0,133.45,0Z"/>
  <path class="cls-2" d="M53.047,163.7a43.421,43.421,0,0,0-20.37,15.141s4.206-15.823,19.412-20.344a46.218,46.218,0,0,1,27.129-.017C78.4,158.377,65.794,159.359,53.047,163.7Zm13.6,96.516a162.516,162.516,0,0,0-21.353-12.594A166.285,166.285,0,0,0,22,238.906s14.3,1.559,25.235,6.782A68.36,68.36,0,0,1,66.647,260.219ZM46.265,267A57.468,57.468,0,0,0,38.5,255.375a89.577,89.577,0,0,0-11.647-10.656s8.612,3.007,13.588,8.718C45.164,258.859,46.265,267,46.265,267Z"/>
</svg>
