<svg id="upper_leg_right" data-name="upper leg right" xmlns="http://www.w3.org/2000/svg" width="186" height="447" viewBox="0 0 186 447">
  <metadata><?xpacket begin="﻿" id="W5M0MpCehiHzreSzNTczkc9d"?>
<x:xmpmeta xmlns:x="adobe:ns:meta/" x:xmptk="Adobe XMP Core 5.6-c138 79.159824, 2016/09/14-01:09:01        ">
   <rdf:RDF xmlns:rdf="http://www.w3.org/1999/02/22-rdf-syntax-ns#">
      <rdf:Description rdf:about=""/>
   </rdf:RDF>
</x:xmpmeta>
                                                                                                    
                                                                                                    
                                                                                                    
                                                                                                    
                                                                                                    
                                                                                                    
                                                                                                    
                                                                                                    
                                                                                                    
                                                                                                    
                                                                                                    
                                                                                                    
                                                                                                    
                                                                                                    
                                                                                                    
                                                                                                    
                                                                                                    
                                                                                                    
                                                                                                    
                                                                                                    
                           
<?xpacket end="w"?></metadata>
<defs>
    <style>
      .cls-1 {
        fill: #e3e3e3;
      }

      .cls-1, .cls-2, .cls-3, .cls-4 {
        fill-rule: evenodd;
      }

      .cls-2 {
        fill: #363636;
      }

      .cls-3 {
        fill: silver;
      }

      .cls-4 {
        fill: #858585;
      }
    </style>
  </defs>
  <path id="upper-leg_copy" data-name="upper-leg copy" class="cls-1" d="M158.947,40.38S124.42-3.868,92.969.282C58.117,4.88,25.991,57.923,25.991,57.923S0,98.4,0,142.63c0,45.23,25.991,94.231,25.991,94.231s11.767,13.757,13,40.1c0.3,6.53-4.247,8.759-5,16.039-1.081,10.465,1.38,26.255,1,37.091-1.411,40.226-1,78.191-1,78.191s1.412,0.488,2,9.022c0.346,5.032,1,11.027,1,11.027s40.31,22.7,70.977,18.044c28.752-4.361,46.984-27.066,46.984-27.066s5.716-4.729,10-9.022c4.7-4.71,10-14.034,10-14.034l4-19.047s-1-9.318-1-16.039a27.3,27.3,0,0,1,1-8.02s3-9.954,3-19.046a49.406,49.406,0,0,0-3-16.04s3-11.659,3-22.054a44.853,44.853,0,0,0-3-15.036l1-14.035,2-2.005V238.866s4.273-20.506,4-38.094a81.971,81.971,0,0,0-5-26.063,130.012,130.012,0,0,0,2-23.057,71.088,71.088,0,0,0-3-18.044A40.08,40.08,0,0,1,174.5,120.4c-2.086-8.855-3.2-22.767-5.559-34.911-1.054-5.422-3.925-10.049-5-15.037-0.865-4.02-.374-9.521-1-13.032-0.54-3.027-3.488-3.256-3-7.017A20.443,20.443,0,0,0,158.947,40.38Z"/>
  <path class="cls-2" d="M176.666,362.282c0.036-11.145.881-23.282,0.46-31.635,1.532-1.7,3.049-3.3,4.583-4.838,0.562,7.2.051,18.284-.269,29.475-1.6,2.3-3.193,4.64-4.774,7h0ZM168.8,333.92c2-.714,3.99-1.4,5.969-2.085,0.453,9.6-.784,23.991-0.406,35.982-1.953,1.725-3.91,3.462-5.867,5.186-0.88-12.156.691-28.3,0.3-39.083h0Zm-8.6.149q3.1-.308,6.146-0.593c0.483,11.218-1.327,28.668-.23,41.23q-3.094.775-6.264,1.567c-1.146-12.61.781-30.612,0.348-42.2h0Zm-8.793,1.891q3.2-.388,6.326-0.725c0.279,12.132-1.666,30.416-.328,42.75q-3.2.795-6.472,1.592c-1.384-12.253.619-30.966,0.474-43.617h0Zm-9.109.236q3.3-.417,6.528-0.766c0.185,12.633-1.886,31.6-.595,44.071q-3.388-.1-6.837-0.236c-1.008-12.305.929-30.483,0.9-43.069h0Zm-9.409.521q3.42-.51,6.752-0.937c0.03,13.23-2.119,32.736-.869,45.215q-3.486-.115-7.029-0.26C130.764,368.481,132.745,349.9,132.89,336.717Zm-9.7-1.257q3.521,0.417,6.962.881c-0.138,13.2-2.151,31.887-1.249,44.275q-3.566-.154-7.189-0.332c-0.722-12.69,1.351-31.594,1.476-44.824h0Zm-10.016-1.073q3.634,0.346,7.187.746c-0.122,13.242-2.211,32.207-1.555,45.007q-3.647-.184-7.351-0.385c-0.5-13.044,1.6-32.095,1.719-45.368h0Zm-10.343-.851q3.753,0.26,7.421.584c-0.117,13.285-2.221,32.344-1.77,45.473q-3.729-.205-7.516-0.419c-0.331-13.316,1.747-32.323,1.865-45.638h0Zm-10.682-.594q3.877,0.162,7.665.4c-0.119,13.327-2.177,32.284-1.888,45.664l-7.684-.434c-0.2-13.515,1.785-32.27,1.907-45.626h0Zm-11.032-2.267q4.011,1.018,7.915,2.151c-0.123,13.367-2.066,32.008-1.9,45.569q-3.9-.217-7.857-0.429C79.166,363.633,81.172,344.2,81.114,330.675Zm-11.423-1.886q4.155,0.875,8.2,1.858c0.049,12.912-1.7,30.971-1.8,45.068q-3.982-.21-8.028-0.407c0.118-14.8,1.83-33.367,1.621-46.519h0ZM57.87,327.274q4.3,0.745,8.493,1.583c0.183,12.594-1.269,29.777-1.513,44.161q-4.054-1.261-8.172-2.5c0.306-14.476,1.467-30.837,1.192-43.242h0Zm-12.311-4.917c2.967,1.084,5.915,2.142,8.826,3.229,0.373,12.171-.635,28.1-0.985,42.645q-4.15-1.209-8.383-2.343c0.3-15.032.991-30.766,0.542-43.531h0Zm-12.512-7.35c2.933,1.425,5.9,2.668,8.866,3.831,0.512,12.693.041,27.829-.239,42.756-2.836-2.05-5.723-4.009-8.678-5.841,0.056-13.681.117-27.213,0.051-40.746h0Z"/>
  <path id="pocket" class="cls-3" d="M76.974,115c2.079-3.188,45.751-7.49,71.976-6,21.068,1.2,25.991,8,25.991,8s7.228,14.758,8,24c2.689,32.284,4.248,93.25,2,96s-14.79,13.579-29.99,15c-31.675,2.961-73.226-.25-76.974-5S73.225,120.75,76.974,115Z"/>
  <path class="cls-4" d="M80.263,168.759c0.626,14,4.708,54.241,4.708,54.241s0.8-34.3,2-52c1-14.742,9-21,9-21s-3.169.214-7-7a36.425,36.425,0,0,1-4-18C84.946,124.955,79.627,154.52,80.263,168.759ZM151.949,158c10.664,0.276,26.991-3,26.991-3s-14.863,5.969-26.991,6c-16.274.041-30.643-5.964-35.927-8.023C120.669,154.162,140.639,157.707,151.949,158Zm-49.983,26s1.566-5.094,3.2-10.964a22.1,22.1,0,0,1,5.8-10.036s-5.687,3.663-7.363,10.032A51.25,51.25,0,0,0,101.966,184Zm11.269-3.48a27.77,27.77,0,0,1-1.992-7.1c-0.55-4.046,1.719-9.424,1.719-9.424s-3.983,5.224-3.363,9.417C110.154,177.175,113.235,180.52,113.235,180.52Z"/>
</svg>
