<svg id="upper_leg_right" data-name="upper leg right" xmlns="http://www.w3.org/2000/svg" width="186" height="447" viewBox="0 0 186 447">
  <metadata><?xpacket begin="﻿" id="W5M0MpCehiHzreSzNTczkc9d"?>
<x:xmpmeta xmlns:x="adobe:ns:meta/" x:xmptk="Adobe XMP Core 5.6-c138 79.159824, 2016/09/14-01:09:01        ">
   <rdf:RDF xmlns:rdf="http://www.w3.org/1999/02/22-rdf-syntax-ns#">
      <rdf:Description rdf:about=""/>
   </rdf:RDF>
</x:xmpmeta>
                                                                                                    
                                                                                                    
                                                                                                    
                                                                                                    
                                                                                                    
                                                                                                    
                                                                                                    
                                                                                                    
                                                                                                    
                                                                                                    
                                                                                                    
                                                                                                    
                                                                                                    
                                                                                                    
                                                                                                    
                                                                                                    
                                                                                                    
                                                                                                    
                                                                                                    
                                                                                                    
                           
<?xpacket end="w"?></metadata>
<defs>
    <style>
      .cls-1 {
        fill: #e3e3e3;
      }

      .cls-1, .cls-2, .cls-3, .cls-4, .cls-5, .cls-6 {
        fill-rule: evenodd;
      }

      .cls-2 {
        fill: silver;
      }

      .cls-3 {
        fill: #858585;
      }

      .cls-4 {
        fill: #101e28;
      }

      .cls-5 {
        fill: #ff163c;
      }

      .cls-6 {
        fill: #fff;
      }
    </style>
  </defs>
  <path id="upper-leg_copy" data-name="upper-leg copy" class="cls-1" d="M158.946,40.38S124.42-3.868,92.969.282C58.117,4.88,25.991,57.923,25.991,57.923S0,98.4,0,142.63c0,45.23,25.991,94.231,25.991,94.231s11.767,13.757,13,40.1c0.3,6.53-4.246,8.759-5,16.039-1.081,10.465,1.38,26.255,1,37.091-1.411,40.226-1,78.191-1,78.191s1.412,0.488,2,9.022c0.346,5.032,1,11.027,1,11.027s40.31,22.7,70.976,18.044c28.753-4.361,46.985-27.066,46.985-27.066s5.716-4.729,10-9.022c4.7-4.71,10-14.034,10-14.034l4-19.047s-1-9.318-1-16.039a27.3,27.3,0,0,1,1-8.02s3-9.954,3-19.046a49.406,49.406,0,0,0-3-16.04s3-11.659,3-22.054a44.853,44.853,0,0,0-3-15.036l1-14.035,2-2.005V238.866s4.272-20.506,4-38.094a81.971,81.971,0,0,0-5-26.063,130.012,130.012,0,0,0,2-23.057,71.088,71.088,0,0,0-3-18.044A40.08,40.08,0,0,1,174.5,120.4c-2.086-8.855-3.2-22.767-5.559-34.911-1.054-5.422-3.925-10.049-5-15.037-0.865-4.02-.374-9.521-1-13.032-0.54-3.027-3.488-3.256-3-7.017A20.435,20.435,0,0,0,158.946,40.38Z"/>
  <path id="pocket" class="cls-2" d="M76.974,115c2.079-3.189,45.751-7.491,71.976-6,21.068,1.2,25.991,8,25.991,8s7.228,14.758,8,24c2.69,32.284,4.249,93.25,2,96s-14.79,13.579-29.99,15c-31.676,2.961-73.226-.25-76.974-5S73.225,120.75,76.974,115Z"/>
  <path class="cls-3" d="M80.263,168.759c0.626,14,4.708,54.241,4.708,54.241s0.8-34.3,2-52c1-14.742,9-21,9-21s-3.169.214-7-7a36.425,36.425,0,0,1-4-18C84.946,124.955,79.627,154.52,80.263,168.759ZM151.949,158c10.664,0.276,26.991-3,26.991-3s-14.864,5.969-26.991,6c-16.274.041-30.643-5.964-35.927-8.023C120.669,154.162,140.639,157.707,151.949,158Zm-49.983,26s1.566-5.094,3.2-10.964a22.1,22.1,0,0,1,5.8-10.036s-5.687,3.663-7.363,10.032A51.25,51.25,0,0,0,101.966,184Zm11.269-3.48a27.77,27.77,0,0,1-1.992-7.1c-0.55-4.046,1.719-9.424,1.719-9.424s-3.983,5.224-3.363,9.417C110.154,177.175,113.235,180.52,113.235,180.52Z"/>
  <path class="cls-4" d="M80.038,168.313C80.66,182.165,84.711,222,84.711,222S85.5,188.051,86.7,170.531c0.993-14.592,8.962-21.776,8.962-21.776s-3.177,1.2-6.977-5.939A35.966,35.966,0,0,1,84.711,125C84.686,124.955,79.406,154.219,80.038,168.313Zm71.151-10.65C161.772,157.936,183,153.7,183,153.7s-19.775,6.9-31.811,6.929c-16.153.04-53.264-9.84-58.509-11.878C97.293,149.929,139.963,157.374,151.189,157.663Z"/>
  <path class="cls-3" d="M50.082,205.755c3.539,1.6,6.261-1.987,6.261-1.987s-3.207.054-6.659-6.284c-5.65-10.372-12.674-29.206-12.674-29.206S46.543,204.152,50.082,205.755ZM163.66,245.286A60.436,60.436,0,0,0,182,233.981s-0.48-.674-18.34,8.479c-7.3,3.739-18.879,2.362-28.958,2.826-25.1,1.155-53.089-2.826-53.089-2.826V243.4s29.725,4.71,53.089,4.71C144.5,248.112,154.905,248.492,163.66,245.286ZM146.932,91.28c6.976,0.921,18.653,5.167,18.653,5.167S144.52,85.3,142.627,87.278s-0.912,6.018-.912,6.018S142.67,90.717,146.932,91.28Zm27.346,191.689,0.965-16.957-9.652,5.652,6.756-.942ZM164.625,315l9.653-1.884,1.93-8.479-3.861,5.653ZM43.968,275.432l9.653,9.421-9.653-21.668v12.247Zm0,5.513,5.926,4.677-3.478-5.317Z"/>
  <path id="Shape_14_copy" data-name="Shape 14 copy" class="cls-5" d="M182.781,326s-10.307,4.229-29.344,6.664c-13.3,1.7-45.621-1.861-61.725-3.249C55.6,326.3,34.036,313,34.036,313S33.259,323.9,33,335c-0.246,10.547.024,25.649,0.024,25.649s7.993,5.229,26.309,13c12.968,5.5,31.421,8.58,47.559,9.747,22.163,1.6,45.372-.834,59.7-6.415a38.256,38.256,0,0,0,14.167-9.829s0.484-11.779,1.023-22.742C182.249,334.9,182.781,326,182.781,326Z"/>
  <path class="cls-6" d="M182.813,327.08s-10.31,5.79-29.351,8.053c-13.3,1.582-45.63-1.729-61.737-3.02C55.607,329.22,34.036,315,34.036,315A92.79,92.79,0,0,0,31,335.133c-0.246,9.805,2.024,24.161,2.024,24.161s7.994,4.86,26.314,12.08c12.971,5.111,31.427,7.975,47.568,9.06,22.168,1.49,45.382.155,59.713-5.034a34.659,34.659,0,0,0,14.169-10.066s1.485-10.95,2.025-21.14C183.28,335.354,182.813,327.08,182.813,327.08Z"/>
  <path class="cls-5" d="M62.813,331.988l-7.04,11.581-11.781-3.2,7.624,9.9-6.4,10.674,11.16-4.525,7.442,9.577L63.521,353.5,75,348.789l-11.782-3.2Zm43.412,8.244-4.044,13.9-13.143.1L99.752,362.2l-3.638,12.791,10.316-7.848,10.435,7.689L113.033,362.1l10.591-8.127-13.143.1ZM153.562,339l-1.779,13.2-11.774,1.873,10.668,5.794-1.563,12.131,8.21-8.539,10.381,5.58-5.13-11.066,8.419-8.83-11.775,1.873Z"/>
</svg>
