<svg id="upper_leg_left" data-name="upper leg left" xmlns="http://www.w3.org/2000/svg" width="186" height="447" viewBox="0 0 186 447">
  <metadata><?xpacket begin="﻿" id="W5M0MpCehiHzreSzNTczkc9d"?>
<x:xmpmeta xmlns:x="adobe:ns:meta/" x:xmptk="Adobe XMP Core 5.6-c138 79.159824, 2016/09/14-01:09:01        ">
   <rdf:RDF xmlns:rdf="http://www.w3.org/1999/02/22-rdf-syntax-ns#">
      <rdf:Description rdf:about=""/>
   </rdf:RDF>
</x:xmpmeta>
                                                                                                    
                                                                                                    
                                                                                                    
                                                                                                    
                                                                                                    
                                                                                                    
                                                                                                    
                                                                                                    
                                                                                                    
                                                                                                    
                                                                                                    
                                                                                                    
                                                                                                    
                                                                                                    
                                                                                                    
                                                                                                    
                                                                                                    
                                                                                                    
                                                                                                    
                                                                                                    
                           
<?xpacket end="w"?></metadata>
<defs>
    <style>
      .cls-1 {
        fill: #e3e3e3;
      }

      .cls-1, .cls-2, .cls-3, .cls-4, .cls-5 {
        fill-rule: evenodd;
      }

      .cls-2 {
        fill: silver;
      }

      .cls-3 {
        fill: #858585;
      }

      .cls-4 {
        fill: #101e28;
      }

      .cls-5 {
        fill: #545454;
      }
    </style>
  </defs>
  <path id="upper-leg_copy" data-name="upper-leg copy" class="cls-1" d="M27.054,40.38S61.58-3.868,93.032.282c34.852,4.6,66.977,57.641,66.977,57.641S186,98.4,186,142.63c0,45.23-25.991,94.231-25.991,94.231s-11.767,13.757-13,40.1c-0.3,6.53,4.247,8.759,5,16.039,1.08,10.465-1.38,26.255-1,37.091,1.411,40.226,1,78.191,1,78.191s-1.413.488-2,9.022c-0.346,5.032-1,11.027-1,11.027s-40.311,22.7-70.976,18.044c-28.752-4.361-46.984-27.066-46.984-27.066s-5.716-4.729-10-9.022c-4.7-4.71-10-14.034-10-14.034l-4-19.047s1-9.318,1-16.039a27.308,27.308,0,0,0-1-8.02s-3-9.954-3-19.046a49.408,49.408,0,0,1,3-16.04s-3-11.659-3-22.054a44.854,44.854,0,0,1,3-15.036l-1-14.035-2-2.005V238.866s-4.273-20.506-4-38.094a82,82,0,0,1,5-26.063,130.073,130.073,0,0,1-2-23.057,71.106,71.106,0,0,1,3-18.044A40.082,40.082,0,0,0,11.5,120.4c2.086-8.855,3.2-22.767,5.558-34.911,1.054-5.422,3.925-10.049,5-15.037,0.865-4.02.374-9.521,1-13.032,0.54-3.027,3.488-3.256,3-7.017A20.446,20.446,0,0,1,27.054,40.38Z"/>
  <path id="pocket" class="cls-2" d="M109.026,115c-2.079-3.189-45.751-7.491-71.976-6-21.068,1.2-25.991,8-25.991,8s-7.227,14.758-8,24c-2.69,32.284-4.249,93.25-2,96s14.79,13.579,29.99,15c31.675,2.961,73.226-.25,76.974-5S112.775,120.75,109.026,115Z"/>
  <path class="cls-3" d="M105.737,168.759c-0.626,14-4.708,54.241-4.708,54.241s-0.8-34.3-2-52c-1-14.742-9-21-9-21s3.169,0.214,7-7a36.424,36.424,0,0,0,4-18C101.055,124.955,106.374,154.52,105.737,168.759ZM34.051,158c-10.664.276-26.991-3-26.991-3s14.863,5.969,26.991,6c16.274,0.041,30.643-5.964,35.927-8.023C65.331,154.162,45.361,157.707,34.051,158Zm49.983,26s-1.566-5.094-3.2-10.964A22.1,22.1,0,0,0,75.037,163s5.686,3.663,7.362,10.032A51.276,51.276,0,0,1,84.034,184Zm-11.27-3.48a27.754,27.754,0,0,0,1.993-7.1c0.55-4.046-1.719-9.424-1.719-9.424s3.983,5.224,3.363,9.417C75.846,177.175,72.765,180.52,72.765,180.52Z"/>
  <path class="cls-4" d="M105.962,168.313C105.34,182.165,101.289,222,101.289,222S100.5,188.051,99.3,170.531c-0.993-14.592-8.962-21.776-8.962-21.776s3.177,1.2,6.977-5.939A35.961,35.961,0,0,0,101.289,125C101.314,124.955,106.594,154.219,105.962,168.313Zm-71.15-10.65C24.228,157.936,3,153.7,3,153.7s19.775,6.9,31.812,6.929c16.152,0.04,53.264-9.84,58.509-11.878C88.707,149.929,46.037,157.374,34.812,157.663Z"/>
  <path class="cls-3" d="M135.918,205.755c-3.539,1.6-6.261-1.987-6.261-1.987s3.206,0.054,6.659-6.284c5.65-10.372,12.674-29.206,12.674-29.206S139.457,204.152,135.918,205.755ZM22.34,245.286A60.437,60.437,0,0,1,4,233.981s0.48-.674,18.34,8.479c7.3,3.739,18.879,2.362,28.958,2.826,25.1,1.155,53.089-2.826,53.089-2.826V243.4s-29.725,4.71-53.089,4.71C41.5,248.112,31.095,248.492,22.34,245.286ZM39.068,91.28c-6.976.921-18.653,5.167-18.653,5.167S41.48,85.3,43.374,87.278s0.911,6.018.911,6.018S43.331,90.717,39.068,91.28ZM11.722,282.969l-0.965-16.957,9.653,5.652-6.757-.942ZM21.375,315l-9.653-1.884-1.931-8.479,3.861,5.653Zm120.657-39.568-9.653,9.421,9.653-21.668v12.247Zm0,5.513-5.926,4.677,3.478-5.317Z"/>
  <path class="cls-5" d="M146.844,357.863L146.3,332.556,152,326.6l0.524,25.421ZM136.211,337.2l7.209-3.051,0.622,28.177-7.142,4.5Zm-10.146,1.661,7.236-1.631,0.739,31.095-7.2,1.545Zm-10.1,3.076,7.229-1.63,0.792,31.064-7.194,1.543Zm-10.136,1.517,7.227-1.558,0.843,31.047-7.231.072ZM95.7,345.039l7.222-1.558,0.9,31.031-7.229.072Zm-10.17.1,7.265-.073,0.9,29.545-7.229.072Zm-10.17.1,7.264-.073,0.953,29.544-7.228.072Zm-10.17.1,7.264-.073,1,29.543-7.228.072Zm-10.169.1,7.264-.073,1.054,29.541-7.228.072Zm-10.226-1.383,7.321,1.412,1.1,29.54-7.228.072ZM34.562,342.68l7.325,1.413,1.154,29.554-7.229.072ZM24.327,341.3l7.329,1.413,1.205,29.568-7.292-1.4Zm-10.37-4.36,7.4,2.9,1.256,29.6-7.3-1.4ZM3.5,331.078l7.412,2.908,1.374,31.129-7.434-4.226Z"/>
</svg>
