<svg id="upper_leg_right" data-name="upper leg right" xmlns="http://www.w3.org/2000/svg" width="186" height="447" viewBox="0 0 186 447">
  <metadata><?xpacket begin="﻿" id="W5M0MpCehiHzreSzNTczkc9d"?>
<x:xmpmeta xmlns:x="adobe:ns:meta/" x:xmptk="Adobe XMP Core 5.6-c138 79.159824, 2016/09/14-01:09:01        ">
   <rdf:RDF xmlns:rdf="http://www.w3.org/1999/02/22-rdf-syntax-ns#">
      <rdf:Description rdf:about=""/>
   </rdf:RDF>
</x:xmpmeta>
                                                                                                    
                                                                                                    
                                                                                                    
                                                                                                    
                                                                                                    
                                                                                                    
                                                                                                    
                                                                                                    
                                                                                                    
                                                                                                    
                                                                                                    
                                                                                                    
                                                                                                    
                                                                                                    
                                                                                                    
                                                                                                    
                                                                                                    
                                                                                                    
                                                                                                    
                                                                                                    
                           
<?xpacket end="w"?></metadata>
<defs>
    <style>
      .cls-1 {
        fill: #e3e3e3;
      }

      .cls-1, .cls-2, .cls-3, .cls-4 {
        fill-rule: evenodd;
      }

      .cls-2 {
        fill: #363636;
      }

      .cls-3 {
        fill: silver;
      }

      .cls-4 {
        fill: #858585;
      }
    </style>
  </defs>
  <path id="upper-leg_copy" data-name="upper-leg copy" class="cls-1" d="M27.053,40.38S61.58-3.868,93.031.282c34.852,4.6,66.978,57.641,66.978,57.641S186,98.4,186,142.63c0,45.23-25.991,94.231-25.991,94.231s-11.767,13.757-13,40.1c-0.3,6.53,4.247,8.759,5,16.039,1.08,10.465-1.38,26.255-1,37.091,1.41,40.226,1,78.191,1,78.191s-1.413.488-2,9.022c-0.346,5.032-1,11.027-1,11.027s-40.311,22.7-70.977,18.044c-28.752-4.361-46.984-27.066-46.984-27.066s-5.716-4.729-10-9.022c-4.7-4.71-10-14.034-10-14.034l-4-19.047s1-9.318,1-16.039a27.308,27.308,0,0,0-1-8.02s-3-9.954-3-19.046a49.407,49.407,0,0,1,3-16.04s-3-11.659-3-22.054a44.854,44.854,0,0,1,3-15.036l-1-14.035-2-2.005V238.866s-4.273-20.506-4-38.094a81.994,81.994,0,0,1,5-26.063,130.081,130.081,0,0,1-2-23.057,71.109,71.109,0,0,1,3-18.044A40.084,40.084,0,0,0,11.5,120.4c2.086-8.855,3.2-22.767,5.558-34.911,1.054-5.422,3.925-10.049,5-15.037,0.865-4.02.374-9.521,1-13.032,0.54-3.027,3.488-3.256,3-7.017A20.446,20.446,0,0,1,27.053,40.38Z"/>
  <path class="cls-2" d="M9.334,362.282C9.3,351.137,8.453,339,8.874,330.647c-1.532-1.7-3.049-3.3-4.583-4.838-0.562,7.2-.051,18.284.269,29.475,1.6,2.3,3.194,4.64,4.774,7h0ZM17.2,333.92c-2-.714-3.99-1.4-5.969-2.085-0.453,9.6.784,23.991,0.406,35.982,1.953,1.725,3.91,3.462,5.867,5.186,0.88-12.156-.69-28.3-0.3-39.083h0Zm8.6,0.149q-3.1-.308-6.146-0.593c-0.483,11.218,1.327,28.668.23,41.23q3.094,0.775,6.264,1.567c1.146-12.61-.781-30.612-0.348-42.2h0Zm8.793,1.891q-3.2-.388-6.326-0.725c-0.28,12.132,1.666,30.416.327,42.75q3.2,0.795,6.473,1.592c1.383-12.253-.619-30.966-0.474-43.617h0ZM43.7,336.2q-3.3-.417-6.528-0.766c-0.185,12.633,1.887,31.6.6,44.071q3.389-.1,6.837-0.236c1.008-12.305-.929-30.483-0.9-43.069h0Zm9.409,0.521q-3.42-.51-6.752-0.937c-0.03,13.23,2.119,32.736.869,45.215q3.486-.115,7.029-0.26C55.236,368.481,53.255,349.9,53.11,336.717Zm9.7-1.257q-3.521.417-6.962,0.881c0.138,13.2,2.151,31.887,1.249,44.275q3.566-.154,7.189-0.332c0.722-12.69-1.351-31.594-1.476-44.824h0Zm10.017-1.073q-3.635.346-7.187,0.746c0.122,13.242,2.211,32.207,1.555,45.007q3.647-.184,7.351-0.385c0.505-13.044-1.6-32.095-1.719-45.368h0Zm10.343-.851q-3.754.26-7.421,0.584c0.117,13.285,2.222,32.344,1.771,45.473q3.728-.205,7.516-0.419c0.331-13.316-1.747-32.323-1.865-45.638h0Zm10.682-.594q-3.877.162-7.665,0.4c0.119,13.327,2.177,32.284,1.888,45.664l7.685-.434c0.2-13.515-1.785-32.27-1.907-45.626h0Zm11.032-2.267q-4.011,1.018-7.915,2.151c0.123,13.367,2.066,32.008,1.9,45.569q3.9-.217,7.856-0.429C106.834,363.633,104.828,344.2,104.886,330.675Zm11.423-1.886q-4.155.875-8.2,1.858c-0.049,12.912,1.705,30.971,1.8,45.068q3.983-.21,8.028-0.407c-0.118-14.8-1.83-33.367-1.621-46.519h0Zm11.821-1.515q-4.3.745-8.493,1.583c-0.182,12.594,1.27,29.777,1.513,44.161q4.054-1.261,8.172-2.5c-0.306-14.476-1.467-30.837-1.192-43.242h0Zm12.311-4.917c-2.967,1.084-5.915,2.142-8.826,3.229-0.374,12.171.634,28.1,0.984,42.645q4.151-1.209,8.383-2.343c-0.295-15.032-.99-30.766-0.541-43.531h0Zm12.511-7.35c-2.932,1.425-5.9,2.668-8.865,3.831-0.513,12.693-.041,27.829.239,42.756,2.835-2.05,5.722-4.009,8.678-5.841-0.057-13.681-.117-27.213-0.052-40.746h0Z"/>
  <path id="pocket" class="cls-3" d="M109.026,115c-2.079-3.188-45.751-7.49-71.976-6-21.068,1.2-25.991,8-25.991,8s-7.227,14.758-8,24c-2.689,32.284-4.249,93.25-2,96s14.79,13.579,29.99,15c31.675,2.961,73.225-.25,76.974-5S112.775,120.75,109.026,115Z"/>
  <path class="cls-4" d="M105.737,168.759c-0.626,14-4.708,54.241-4.708,54.241s-0.8-34.3-2-52c-1-14.742-9-21-9-21s3.169,0.214,7-7a36.424,36.424,0,0,0,4-18C101.054,124.955,106.373,154.52,105.737,168.759ZM34.051,158c-10.664.276-26.991-3-26.991-3s14.863,5.969,26.991,6c16.274,0.041,30.643-5.964,35.927-8.023C65.331,154.162,45.361,157.707,34.051,158Zm49.983,26s-1.567-5.094-3.2-10.964A22.1,22.1,0,0,0,75.037,163s5.686,3.663,7.362,10.032A51.272,51.272,0,0,1,84.034,184Zm-11.27-3.48a27.747,27.747,0,0,0,1.993-7.1c0.55-4.046-1.719-9.424-1.719-9.424s3.983,5.224,3.363,9.417C75.846,177.175,72.765,180.52,72.765,180.52Z"/>
</svg>
