<svg xmlns="http://www.w3.org/2000/svg" width="500" height="500" viewBox="0 0 500 500">
  <metadata><?xpacket begin="﻿" id="W5M0MpCehiHzreSzNTczkc9d"?>
<x:xmpmeta xmlns:x="adobe:ns:meta/" x:xmptk="Adobe XMP Core 5.6-c138 79.159824, 2016/09/14-01:09:01        ">
   <rdf:RDF xmlns:rdf="http://www.w3.org/1999/02/22-rdf-syntax-ns#">
      <rdf:Description rdf:about=""/>
   </rdf:RDF>
</x:xmpmeta>
                                                                                                    
                                                                                                    
                                                                                                    
                                                                                                    
                                                                                                    
                                                                                                    
                                                                                                    
                                                                                                    
                                                                                                    
                                                                                                    
                                                                                                    
                                                                                                    
                                                                                                    
                                                                                                    
                                                                                                    
                                                                                                    
                                                                                                    
                                                                                                    
                                                                                                    
                                                                                                    
                           
<?xpacket end="w"?></metadata>
<defs>
    <style>
      .cls-1 {
        fill: #6dcff6;
        fill-rule: evenodd;
      }
    </style>
  </defs>
  <path class="cls-1" d="M367.189,24.852c-12.991-8-25.655-9.328-62.118-13.853S257.169-.015,220.194-0.015,183.679,3.817,163.168,14s-35.652,20.56-54.639,25.56S83.327,60.1,66.235,84.989s-49.5,44.554-47.5,67.551-2.791,16.36-2.463,46.435-26,36.508-16,82.5,15.741,42.855,26,65.48,16.761,39.6,23.757,55.6,24.844,18.291,52.191,36.391,36.942,34.4,51.932,43.4,42.479,0.6,62.989.6,37.091,18.014,67.071,17.014,36.913-19.094,60.842-27.013,40.376-11.358,54.367-20.357,14.292-38.979,37.57-57.633,39.972-19,31.978-30,8.544-43.636,12.991-71.991,16.992-50.078,17.992-70.075-11.314-30.022-24.987-54.909-18.5-64.449-18.5-64.449S435.366,73.567,416,59.993,380.18,32.851,367.189,24.852Z"/>
</svg>
