<svg xmlns="http://www.w3.org/2000/svg" width="1037.76" height="476.721" viewBox="0 0 1920 882">
  <metadata><?xpacket begin="﻿" id="W5M0MpCehiHzreSzNTczkc9d"?>
<x:xmpmeta xmlns:x="adobe:ns:meta/" x:xmptk="Adobe XMP Core 5.6-c138 79.159824, 2016/09/14-01:09:01        ">
   <rdf:RDF xmlns:rdf="http://www.w3.org/1999/02/22-rdf-syntax-ns#">
      <rdf:Description rdf:about=""/>
   </rdf:RDF>
</x:xmpmeta>
                                                                                                    
                                                                                                    
                                                                                                    
                                                                                                    
                                                                                                    
                                                                                                    
                                                                                                    
                                                                                                    
                                                                                                    
                                                                                                    
                                                                                                    
                                                                                                    
                                                                                                    
                                                                                                    
                                                                                                    
                                                                                                    
                                                                                                    
                                                                                                    
                                                                                                    
                                                                                                    
                           
<?xpacket end="w"?></metadata>
<defs>
    <style>
      .cls-1 {
        fill: #69d9e8;
        fill-rule: evenodd;
      }
    </style>
  </defs>
  <path class="cls-1" d="M1920,693V882H0V778.05c24.519,0.151,32.4-1.027,51.318-5.67,22.129-5.431,42.788.5,61.935-3.78,11.507-2.573,32.407,4.528,42.47,3.78,26.535-1.971,62.6-6.357,93.788-11.34,4.843-.774,10.83,2.96,14.157,3.78,8.3,2.045,61.313,2.785,67.244,1.89a341.624,341.624,0,0,1,104.406,0l21.235-1.89,90.249-1.89c0.658-3.923.428-3.637,1.769-5.67,4.332-4.961,2.389-7.637,8.848-9.45,5.1,7.84,11.312,5,21.235,3.78v-5.67c9.1,0.435,12.232,3.989,17.7,5.67l23-1.89,1.769,3.78c9.026,3.3,25.638-3.785,33.622-5.67,12.467-2.944,38.518,2.511,46.01,3.78,9.8,1.661,13.4-5.214,21.235-3.78,0.773,0.142,3.542,3.749,5.309,3.78,6.054,0.107,11.73-9.14,21.234-5.67,3.736,1.364,5.362,8.245,8.848,9.45,11,3.8,31.015-8.607,51.318-3.78,41.376,9.837,91.568,7.22,130.95,13.23,4.062,0.62,6.567-3.137,12.387-1.89,45.568,9.76,84.533.634,134.493,11.34,2.52,0.54,9.87-2.849,14.15-1.89,13.08,2.928,17-6.677,28.32-3.78,16.5,4.228,40.14,1.384,63.7,0h38.93c3.91-1.578,3.4-4.623,7.08-3.78,9.31,2.129,26.23-8.24,26.54-7.56a92.127,92.127,0,0,1,7.08,7.56c9.24-.962,16.24-1.966,23.01-3.78s9.33,2.911,12.38,3.78c7.39,2.1,12.12-2.718,15.93-3.78,12.69-3.533,26.14,1.724,35.39,0v-3.78c-3.72-3.417-3.54-5.516-3.54-13.23a11.2,11.2,0,0,0,3.54-3.78h1.77v1.89c4.77,3.524,5.06,4.493,5.31,13.23,2.15,3.353.03,3.306,1.77,5.67,15.77,10.375,45.39-4.1,60.17-1.89,14.9,2.228,66.57,7.625,88.47,0,4.57-1.589,7.35-7.943,10.62-9.45,12.21-5.613,21.52,7.156,26.55,9.45,7.97,3.634,21.26-.969,26.54,0,1.19,0.219,50.49.481,51.32,0l1.77-5.67c7.58-3.592,15.34,2.536,19.46,3.78-0.51-4.644-1.16-.911,0-5.67,6.31,0.123,11.99-.4,15.93-1.89v-1.89c-7.26-3.915-16.24-11.845-23.01-15.12h-19.46c-7.17-1.774-46.04-7.33-54.86-3.78-5.35,2.155-7.28,5.392-17.69,5.67-4.62-6.065-10.54-11.774-15.93-17.01v-3.78c5.96-2.189,16.19-2.019,24.77-1.89,11.29,6.826,36.74-4.8,53.09-1.89,18.9,3.369,42.37,7.421,67.25,7.56,11.43,0.064,39.97,7.652,46-1.89-11.91-3.235-11.51-12.487-19.46-15.12-6.51-2.156-20.93.91-28.31,0v-3.78C1759.59,696.988,1854.52,699.061,1920,693Zm-258.36,62.37c-0.03,5.242-2.05,4.094,5.31,5.67,3.69-2.7,6.31-1.185,8.85-5.67h-14.16Zm-796.313,18.9v3.78h1.77C865.981,774.735,866.755,776.214,865.327,774.27Z"/>
</svg>
