<svg xmlns="http://www.w3.org/2000/svg" width="500" height="500" viewBox="0 0 500 500">
  <metadata><?xpacket begin="﻿" id="W5M0MpCehiHzreSzNTczkc9d"?>
<x:xmpmeta xmlns:x="adobe:ns:meta/" x:xmptk="Adobe XMP Core 5.6-c138 79.159824, 2016/09/14-01:09:01        ">
   <rdf:RDF xmlns:rdf="http://www.w3.org/1999/02/22-rdf-syntax-ns#">
      <rdf:Description rdf:about=""/>
   </rdf:RDF>
</x:xmpmeta>
                                                                                                    
                                                                                                    
                                                                                                    
                                                                                                    
                                                                                                    
                                                                                                    
                                                                                                    
                                                                                                    
                                                                                                    
                                                                                                    
                                                                                                    
                                                                                                    
                                                                                                    
                                                                                                    
                                                                                                    
                                                                                                    
                                                                                                    
                                                                                                    
                                                                                                    
                                                                                                    
                           
<?xpacket end="w"?></metadata>
<defs>
    <style>
      .cls-1 {
        fill: #0072bc;
        fill-rule: evenodd;
      }
    </style>
  </defs>
  <path class="cls-1" d="M367.161,475.145c-13,8-25.673,9.329-62.161,13.855s-47.935,11.015-84.935,11.015S183.525,496.182,163,486s-35.676-20.563-54.676-25.563S83.1,439.89,66,415s-49.535-44.559-47.535-67.559S15.672,331.079,16,301-10.014,264.488-.014,218.488,15.738,175.628,26,153,42.773,113.4,49.773,97.4,74.634,79.1,102,61s36.967-34.4,51.967-43.4S196.475,17,217,17,254.117-1.017,284.117-.017,321.055,19.08,345,27s40.4,11.36,54.4,20.36S413.707,86.344,437,105s40,19,32,30,8.55,43.642,13,72,17,50.085,18,70.085S488.683,307.11,475,332s-18.507,64.457-18.507,64.457S435.384,426.423,416,440,380.161,467.145,367.161,475.145Z"/>
</svg>
